STARTFONT 2.1
COMMENT
COMMENT Converted from OpenType font "NotoSansDisplay-Regular.ttf" by "otf2bdf 3.0".
COMMENT
FONT -FreeType-Noto Sans Disp-Medium-R-Normal--25-180-100-100-P-119-ISO10646-1
SIZE 18 100 100
FONTBOUNDINGBOX 84 38 -15 -10
STARTPROPERTIES 19
FOUNDRY "FreeType"
FAMILY_NAME "Noto Sans Disp"
WEIGHT_NAME "Medium"
SLANT "R"
SETWIDTH_NAME "Normal"
ADD_STYLE_NAME ""
PIXEL_SIZE 25
POINT_SIZE 180
RESOLUTION_X 100
RESOLUTION_Y 100
SPACING "P"
AVERAGE_WIDTH 119
CHARSET_REGISTRY "ISO10646"
CHARSET_ENCODING "1"
FONT_ASCENT 26
FONT_DESCENT 7
COPYRIGHT "Copyright 2015 Google Inc. All Rights Reserved."
_OTF_FONTFILE "NotoSansDisplay-Regular.ttf"
_OTF_PSNAME "NotoSansDisplay-Regular"
ENDPROPERTIES
CHARS 2793
STARTCHAR 0000
ENCODING 0
SWIDTH 0 0
DWIDTH 0 0
BBX 0 0 0 0
BITMAP
ENDCHAR
STARTCHAR 000D
ENCODING 13
SWIDTH 240 0
DWIDTH 6 0
BBX 0 0 0 0
BITMAP
ENDCHAR
STARTCHAR 0020
ENCODING 32
SWIDTH 240 0
DWIDTH 6 0
BBX 0 0 0 0
BITMAP
ENDCHAR
STARTCHAR 0021
ENCODING 33
SWIDTH 280 0
DWIDTH 7 0
BBX 3 18 2 0
BITMAP
60
60
60
60
60
60
60
60
60
60
60
60
60
00
00
E0
E0
E0
ENDCHAR
STARTCHAR 0022
ENCODING 34
SWIDTH 400 0
DWIDTH 10 0
BBX 7 7 1 11
BITMAP
E6
66
66
66
46
46
46
ENDCHAR
STARTCHAR 0023
ENCODING 35
SWIDTH 640 0
DWIDTH 16 0
BBX 14 18 1 0
BITMAP
0630
0630
0420
0420
0C60
7FFC
7FFC
0C40
0840
08C0
18C0
FFF8
FFF8
1880
1080
1180
3180
3180
ENDCHAR
STARTCHAR 0024
ENCODING 36
SWIDTH 520 0
DWIDTH 13 0
BBX 11 21 1 -2
BITMAP
0C00
0C00
1F00
7FC0
ECC0
CC00
CC00
EC00
FC00
7E00
1F80
0FC0
0CE0
0C60
0C60
8DE0
FFC0
7F00
0C00
0C00
0C00
ENDCHAR
STARTCHAR 0025
ENCODING 37
SWIDTH 760 0
DWIDTH 19 0
BBX 17 18 1 0
BITMAP
380C00
7C0800
EE1800
C61000
C63000
C62000
C66400
C65F00
EEDB00
7CB180
39B180
013180
033180
023180
063180
043B80
0C1F00
080E00
ENDCHAR
STARTCHAR 0026
ENCODING 38
SWIDTH 680 0
DWIDTH 17 0
BBX 15 18 1 0
BITMAP
0F00
3F80
31C0
30C0
30C0
31C0
1B80
1F00
1E00
3706
638E
E1CC
C0FC
C078
E078
E0FC
7FCE
1F06
ENDCHAR
STARTCHAR 0027
ENCODING 39
SWIDTH 200 0
DWIDTH 5 0
BBX 2 7 2 11
BITMAP
C0
C0
C0
C0
C0
80
80
ENDCHAR
STARTCHAR 0028
ENCODING 40
SWIDTH 280 0
DWIDTH 7 0
BBX 6 23 1 -5
BITMAP
18
38
30
70
60
60
60
E0
C0
C0
C0
C0
C0
C0
C0
E0
60
60
60
30
30
18
0C
ENDCHAR
STARTCHAR 0029
ENCODING 41
SWIDTH 280 0
DWIDTH 7 0
BBX 5 23 1 -5
BITMAP
C0
60
60
70
30
30
38
18
18
18
18
18
18
18
18
18
38
30
30
70
60
C0
C0
ENDCHAR
STARTCHAR 002A
ENCODING 42
SWIDTH 520 0
DWIDTH 13 0
BBX 11 11 1 7
BITMAP
0E00
0C00
0C00
0400
E5E0
FFE0
0E00
1B00
1B00
3380
3180
ENDCHAR
STARTCHAR 002B
ENCODING 43
SWIDTH 520 0
DWIDTH 13 0
BBX 11 12 1 3
BITMAP
0600
0600
0600
0600
0600
FFE0
FFE0
0600
0600
0600
0600
0600
ENDCHAR
STARTCHAR 002C
ENCODING 44
SWIDTH 240 0
DWIDTH 6 0
BBX 4 6 1 -3
BITMAP
70
60
60
E0
C0
C0
ENDCHAR
STARTCHAR 002D
ENCODING 45
SWIDTH 320 0
DWIDTH 8 0
BBX 6 2 1 6
BITMAP
FC
FC
ENDCHAR
STARTCHAR 002E
ENCODING 46
SWIDTH 280 0
DWIDTH 7 0
BBX 3 3 2 0
BITMAP
E0
E0
E0
ENDCHAR
STARTCHAR 002F
ENCODING 47
SWIDTH 360 0
DWIDTH 9 0
BBX 8 18 0 0
BITMAP
03
03
03
06
06
06
0C
0C
0C
18
18
38
30
30
70
60
60
E0
ENDCHAR
STARTCHAR 0030
ENCODING 48
SWIDTH 520 0
DWIDTH 13 0
BBX 11 18 1 0
BITMAP
1F00
3F80
71C0
60C0
E060
C060
C060
C060
C060
C060
C060
C060
C060
E060
60C0
71C0
3F80
1F00
ENDCHAR
STARTCHAR 0031
ENCODING 49
SWIDTH 520 0
DWIDTH 13 0
BBX 6 18 2 0
BITMAP
0C
3C
7C
EC
CC
0C
0C
0C
0C
0C
0C
0C
0C
0C
0C
0C
0C
0C
ENDCHAR
STARTCHAR 0032
ENCODING 50
SWIDTH 520 0
DWIDTH 13 0
BBX 11 18 1 0
BITMAP
1F00
7F80
E1C0
00C0
00C0
00C0
00C0
01C0
0180
0380
0700
0E00
1C00
1800
3000
6000
FFE0
FFE0
ENDCHAR
STARTCHAR 0033
ENCODING 51
SWIDTH 520 0
DWIDTH 13 0
BBX 12 18 1 0
BITMAP
1F80
7FC0
60E0
0060
0060
0060
00C0
1F80
1FC0
00E0
0070
0030
0030
0030
0070
C0E0
FFC0
3F80
ENDCHAR
STARTCHAR 0034
ENCODING 52
SWIDTH 520 0
DWIDTH 13 0
BBX 13 18 1 0
BITMAP
00C0
01C0
03C0
02C0
06C0
0CC0
0CC0
18C0
30C0
30C0
60C0
C0C0
FFF8
FFF8
00C0
00C0
00C0
00C0
ENDCHAR
STARTCHAR 0035
ENCODING 53
SWIDTH 520 0
DWIDTH 13 0
BBX 11 18 1 0
BITMAP
7FC0
7FC0
6000
6000
6000
6000
7F00
7FC0
01C0
00E0
0060
0060
0060
0060
00E0
C1C0
FF80
3F00
ENDCHAR
STARTCHAR 0036
ENCODING 54
SWIDTH 520 0
DWIDTH 13 0
BBX 11 18 1 0
BITMAP
07C0
1FC0
3800
7000
6000
6000
CF00
DFC0
F0E0
E0E0
C060
C060
C060
E060
60E0
70C0
3FC0
0F00
ENDCHAR
STARTCHAR 0037
ENCODING 55
SWIDTH 520 0
DWIDTH 13 0
BBX 11 18 1 0
BITMAP
FFE0
FFE0
00E0
00C0
00C0
0180
0180
0380
0300
0300
0600
0600
0E00
0C00
0C00
1800
1800
3800
ENDCHAR
STARTCHAR 0038
ENCODING 56
SWIDTH 520 0
DWIDTH 13 0
BBX 11 18 1 0
BITMAP
1F00
3FC0
70E0
6060
6060
6060
70C0
3F80
0F00
3F80
71C0
E0E0
C060
C060
E060
E0E0
7FC0
1F00
ENDCHAR
STARTCHAR 0039
ENCODING 57
SWIDTH 520 0
DWIDTH 13 0
BBX 11 18 1 0
BITMAP
1F00
3F80
71C0
E0C0
C0E0
C060
C060
E0E0
61E0
7F60
3E60
00E0
00C0
00C0
01C0
0380
7F00
7C00
ENDCHAR
STARTCHAR 003A
ENCODING 58
SWIDTH 280 0
DWIDTH 7 0
BBX 3 14 2 0
BITMAP
E0
E0
E0
00
00
00
00
00
00
00
00
E0
E0
E0
ENDCHAR
STARTCHAR 003B
ENCODING 59
SWIDTH 280 0
DWIDTH 7 0
BBX 4 17 1 -3
BITMAP
70
70
70
00
00
00
00
00
00
00
00
70
60
60
60
C0
C0
ENDCHAR
STARTCHAR 003C
ENCODING 60
SWIDTH 520 0
DWIDTH 13 0
BBX 11 12 1 4
BITMAP
0060
01E0
0780
0E00
3800
E000
E000
3C00
0F00
03C0
00E0
0020
ENDCHAR
STARTCHAR 003D
ENCODING 61
SWIDTH 520 0
DWIDTH 13 0
BBX 11 7 1 6
BITMAP
FFE0
FFE0
0000
0000
0000
FFE0
FFE0
ENDCHAR
STARTCHAR 003E
ENCODING 62
SWIDTH 520 0
DWIDTH 13 0
BBX 11 12 1 4
BITMAP
C000
F000
3C00
0E00
0380
00E0
00E0
0780
1E00
7800
E000
8000
ENDCHAR
STARTCHAR 003F
ENCODING 63
SWIDTH 440 0
DWIDTH 11 0
BBX 9 18 1 0
BITMAP
7E00
FF00
8380
0180
0180
0180
0300
0700
0E00
1C00
3800
3000
3000
0000
0000
3800
3800
3800
ENDCHAR
STARTCHAR 0040
ENCODING 64
SWIDTH 880 0
DWIDTH 22 0
BBX 19 20 1 -2
BITMAP
01FC00
07FF00
1E0780
3801C0
30F8C0
73F8E0
631860
E61860
C61860
C61860
C61860
C618E0
C73CC0
E3EFC0
61C780
600000
700000
3C0400
1FFC00
03F000
ENDCHAR
STARTCHAR 0041
ENCODING 65
SWIDTH 600 0
DWIDTH 15 0
BBX 15 18 0 0
BITMAP
0380
0380
02C0
06C0
06C0
0660
0C60
0C60
1830
1830
1FF0
3FF8
3018
3018
600C
600C
600E
C006
ENDCHAR
STARTCHAR 0042
ENCODING 66
SWIDTH 600 0
DWIDTH 15 0
BBX 12 18 2 0
BITMAP
FF80
FFC0
C0E0
C060
C060
C060
C0E0
FF80
FFC0
C0E0
C070
C030
C030
C030
C070
C0E0
FFE0
FF80
ENDCHAR
STARTCHAR 0043
ENCODING 67
SWIDTH 560 0
DWIDTH 14 0
BBX 12 18 1 0
BITMAP
07E0
1FF0
3810
7000
6000
E000
E000
C000
C000
C000
C000
C000
E000
6000
7000
3800
1FF0
07E0
ENDCHAR
STARTCHAR 0044
ENCODING 68
SWIDTH 680 0
DWIDTH 17 0
BBX 13 18 2 0
BITMAP
FF00
FFC0
C0E0
C070
C030
C038
C018
C018
C018
C018
C018
C018
C038
C030
C070
C0E0
FFC0
FF00
ENDCHAR
STARTCHAR 0045
ENCODING 69
SWIDTH 520 0
DWIDTH 13 0
BBX 10 18 2 0
BITMAP
FFC0
FFC0
C000
C000
C000
C000
C000
FF80
FF80
C000
C000
C000
C000
C000
C000
C000
FFC0
FFC0
ENDCHAR
STARTCHAR 0046
ENCODING 70
SWIDTH 480 0
DWIDTH 12 0
BBX 10 18 2 0
BITMAP
FFC0
FFC0
C000
C000
C000
C000
C000
C000
FF80
FF80
C000
C000
C000
C000
C000
C000
C000
C000
ENDCHAR
STARTCHAR 0047
ENCODING 71
SWIDTH 680 0
DWIDTH 17 0
BBX 14 18 1 0
BITMAP
07F0
1FFC
3C08
7000
6000
6000
E000
C000
C0FC
C0FC
C00C
C00C
E00C
600C
700C
380C
1FFC
07F8
ENDCHAR
STARTCHAR 0048
ENCODING 72
SWIDTH 680 0
DWIDTH 17 0
BBX 13 18 2 0
BITMAP
C018
C018
C018
C018
C018
C018
C018
FFF8
FFF8
C018
C018
C018
C018
C018
C018
C018
C018
C018
ENDCHAR
STARTCHAR 0049
ENCODING 73
SWIDTH 320 0
DWIDTH 8 0
BBX 6 18 1 0
BITMAP
FC
78
30
30
30
30
30
30
30
30
30
30
30
30
30
30
78
FC
ENDCHAR
STARTCHAR 004A
ENCODING 74
SWIDTH 240 0
DWIDTH 6 0
BBX 6 23 -2 -5
BITMAP
0C
0C
0C
0C
0C
0C
0C
0C
0C
0C
0C
0C
0C
0C
0C
0C
0C
0C
0C
0C
1C
F8
F0
ENDCHAR
STARTCHAR 004B
ENCODING 75
SWIDTH 560 0
DWIDTH 14 0
BBX 12 18 2 0
BITMAP
C070
C0E0
C1C0
C180
C300
C700
CE00
DC00
DC00
FE00
E600
C700
C380
C180
C1C0
C0E0
C060
C070
ENDCHAR
STARTCHAR 004C
ENCODING 76
SWIDTH 480 0
DWIDTH 12 0
BBX 10 18 2 0
BITMAP
C000
C000
C000
C000
C000
C000
C000
C000
C000
C000
C000
C000
C000
C000
C000
C000
FFC0
FFC0
ENDCHAR
STARTCHAR 004D
ENCODING 77
SWIDTH 840 0
DWIDTH 21 0
BBX 17 18 2 0
BITMAP
F00780
F00780
F00780
D80D80
D80D80
D80D80
CC1980
CC1980
CC1980
C63180
C63180
C63180
C36180
C36180
C36180
C1C180
C1C180
C1C180
ENDCHAR
STARTCHAR 004E
ENCODING 78
SWIDTH 720 0
DWIDTH 18 0
BBX 13 18 2 0
BITMAP
E018
F018
F018
D818
D818
CC18
CC18
C618
C618
C318
C318
C198
C1D8
C0D8
C078
C078
C038
C038
ENDCHAR
STARTCHAR 004F
ENCODING 79
SWIDTH 720 0
DWIDTH 18 0
BBX 15 18 1 0
BITMAP
07E0
1FF0
3838
700C
600C
E006
C006
C006
C006
C006
C006
C006
E00E
600C
701C
3838
1FF0
07E0
ENDCHAR
STARTCHAR 0050
ENCODING 80
SWIDTH 560 0
DWIDTH 14 0
BBX 11 18 2 0
BITMAP
FF00
FFC0
C1C0
C0E0
C060
C060
C060
C0E0
C1C0
FF80
FE00
C000
C000
C000
C000
C000
C000
C000
ENDCHAR
STARTCHAR 0051
ENCODING 81
SWIDTH 720 0
DWIDTH 18 0
BBX 15 22 1 -4
BITMAP
07E0
1FF0
3838
700C
600C
E006
C006
C006
C006
C006
C006
C006
E00E
600C
701C
3838
1FF0
07E0
0060
0070
0038
001C
ENDCHAR
STARTCHAR 0052
ENCODING 82
SWIDTH 600 0
DWIDTH 15 0
BBX 12 18 2 0
BITMAP
FF00
FFC0
C0C0
C0E0
C060
C060
C0E0
C1C0
FF80
FF00
C300
C380
C180
C1C0
C0C0
C0E0
C060
C070
ENDCHAR
STARTCHAR 0053
ENCODING 83
SWIDTH 520 0
DWIDTH 13 0
BBX 11 18 1 0
BITMAP
1F80
7FC0
E040
C000
C000
C000
E000
7800
3E00
0F80
03C0
00E0
0060
0060
00E0
80C0
FFC0
7F00
ENDCHAR
STARTCHAR 0054
ENCODING 84
SWIDTH 600 0
DWIDTH 15 0
BBX 13 18 1 0
BITMAP
FFF8
FFF8
0600
0600
0600
0600
0600
0600
0600
0600
0600
0600
0600
0600
0600
0600
0600
0600
ENDCHAR
STARTCHAR 0055
ENCODING 85
SWIDTH 680 0
DWIDTH 17 0
BBX 13 18 2 0
BITMAP
C018
C018
C018
C018
C018
C018
C018
C018
C018
C018
C018
C018
C018
E038
6030
7070
3FE0
0F80
ENDCHAR
STARTCHAR 0056
ENCODING 86
SWIDTH 560 0
DWIDTH 14 0
BBX 14 18 0 0
BITMAP
C00C
E01C
6018
6018
7038
3030
3030
3870
1860
1860
1CE0
0CC0
0CC0
0EC0
0780
0780
0780
0300
ENDCHAR
STARTCHAR 0057
ENCODING 87
SWIDTH 880 0
DWIDTH 22 0
BBX 22 18 0 0
BITMAP
E0301C
607018
607818
607818
707838
30CC30
30CC30
30CC30
39CC70
198660
198660
198660
1B06E0
0F03C0
0F03C0
0F03C0
0E03C0
060180
ENDCHAR
STARTCHAR 0058
ENCODING 88
SWIDTH 560 0
DWIDTH 14 0
BBX 14 18 0 0
BITMAP
6018
7038
3030
1860
18E0
0CC0
0FC0
0780
0300
0780
0780
0CC0
1CE0
1860
3070
3030
6038
E01C
ENDCHAR
STARTCHAR 0059
ENCODING 89
SWIDTH 560 0
DWIDTH 14 0
BBX 13 18 1 0
BITMAP
C038
E030
6070
6060
30E0
30C0
19C0
1980
0F80
0F00
0700
0600
0600
0600
0600
0600
0600
0600
ENDCHAR
STARTCHAR 005A
ENCODING 90
SWIDTH 520 0
DWIDTH 13 0
BBX 11 18 1 0
BITMAP
FFE0
FFE0
00C0
01C0
0180
0380
0300
0700
0600
0C00
1C00
1800
3800
3000
6000
6000
FFE0
FFE0
ENDCHAR
STARTCHAR 005B
ENCODING 91
SWIDTH 320 0
DWIDTH 8 0
BBX 6 22 2 -4
BITMAP
FC
FC
C0
C0
C0
C0
C0
C0
C0
C0
C0
C0
C0
C0
C0
C0
C0
C0
C0
C0
FC
FC
ENDCHAR
STARTCHAR 005C
ENCODING 92
SWIDTH 360 0
DWIDTH 9 0
BBX 8 18 0 0
BITMAP
E0
60
60
70
30
30
38
18
18
0C
0C
0C
06
06
06
03
03
03
ENDCHAR
STARTCHAR 005D
ENCODING 93
SWIDTH 320 0
DWIDTH 8 0
BBX 5 22 1 -4
BITMAP
F8
F8
18
18
18
18
18
18
18
18
18
18
18
18
18
18
18
18
18
18
F8
F8
ENDCHAR
STARTCHAR 005E
ENCODING 94
SWIDTH 520 0
DWIDTH 13 0
BBX 11 12 1 7
BITMAP
0400
0E00
0E00
0B00
1B00
1100
3180
3080
60C0
6040
4060
C060
ENDCHAR
STARTCHAR 005F
ENCODING 95
SWIDTH 400 0
DWIDTH 10 0
BBX 10 2 0 -4
BITMAP
FFC0
FFC0
ENDCHAR
STARTCHAR 0060
ENCODING 96
SWIDTH 280 0
DWIDTH 7 0
BBX 5 4 1 16
BITMAP
E0
60
30
18
ENDCHAR
STARTCHAR 0061
ENCODING 97
SWIDTH 520 0
DWIDTH 13 0
BBX 10 14 1 0
BITMAP
1F00
7F80
21C0
00C0
00C0
1FC0
7FC0
F0C0
E0C0
C0C0
C1C0
E1C0
7EC0
3C40
ENDCHAR
STARTCHAR 0062
ENCODING 98
SWIDTH 600 0
DWIDTH 15 0
BBX 11 19 2 0
BITMAP
C000
C000
C000
C000
C000
CF00
DFC0
F0C0
E0E0
C060
C060
C060
C060
C060
C060
E0E0
F0C0
DFC0
CF00
ENDCHAR
STARTCHAR 0063
ENCODING 99
SWIDTH 440 0
DWIDTH 11 0
BBX 9 14 1 0
BITMAP
1F80
3F80
7000
6000
E000
C000
C000
C000
C000
E000
6000
7000
3F80
1F80
ENDCHAR
STARTCHAR 0064
ENCODING 100
SWIDTH 560 0
DWIDTH 14 0
BBX 11 19 1 0
BITMAP
0060
0060
0060
0060
0060
1E60
3FE0
70E0
E0E0
E060
C060
C060
C060
C060
E060
E0E0
70E0
3FE0
1E60
ENDCHAR
STARTCHAR 0065
ENCODING 101
SWIDTH 520 0
DWIDTH 13 0
BBX 11 14 1 0
BITMAP
1F00
3F80
70C0
60E0
C060
FFE0
FFE0
C000
C000
E000
6000
7000
3FC0
0FC0
ENDCHAR
STARTCHAR 0066
ENCODING 102
SWIDTH 400 0
DWIDTH 10 0
BBX 9 19 1 0
BITMAP
0F80
1F80
3800
3000
3000
7F00
FF00
3000
3000
3000
3000
3000
3000
3000
3000
3000
3000
3000
3000
ENDCHAR
STARTCHAR 0067
ENCODING 103
SWIDTH 560 0
DWIDTH 14 0
BBX 11 20 1 -6
BITMAP
1E60
3FE0
70E0
60E0
E060
C060
C060
C060
C060
E060
E0E0
70E0
3FE0
1E60
0060
0060
00E0
40E0
7FC0
3F00
ENDCHAR
STARTCHAR 0068
ENCODING 104
SWIDTH 600 0
DWIDTH 15 0
BBX 11 19 2 0
BITMAP
C000
C000
C000
C000
C000
CF80
DFC0
F0E0
E0E0
E060
C060
C060
C060
C060
C060
C060
C060
C060
C060
ENDCHAR
STARTCHAR 0069
ENCODING 105
SWIDTH 240 0
DWIDTH 6 0
BBX 2 19 2 0
BITMAP
C0
C0
C0
00
00
C0
C0
C0
C0
C0
C0
C0
C0
C0
C0
C0
C0
C0
C0
ENDCHAR
STARTCHAR 006A
ENCODING 106
SWIDTH 240 0
DWIDTH 6 0
BBX 5 25 -1 -6
BITMAP
18
18
18
00
00
18
18
18
18
18
18
18
18
18
18
18
18
18
18
18
18
18
18
F8
F0
ENDCHAR
STARTCHAR 006B
ENCODING 107
SWIDTH 520 0
DWIDTH 13 0
BBX 10 19 2 0
BITMAP
C000
C000
C000
C000
C000
C1C0
C180
C300
C600
CE00
DC00
DC00
FC00
EE00
C700
C300
C380
C1C0
C0C0
ENDCHAR
STARTCHAR 006C
ENCODING 108
SWIDTH 240 0
DWIDTH 6 0
BBX 2 19 2 0
BITMAP
C0
C0
C0
C0
C0
C0
C0
C0
C0
C0
C0
C0
C0
C0
C0
C0
C0
C0
C0
ENDCHAR
STARTCHAR 006D
ENCODING 109
SWIDTH 880 0
DWIDTH 22 0
BBX 18 14 2 0
BITMAP
CF0F00
DFBF80
F1E1C0
E0E0C0
C0C0C0
C0C0C0
C0C0C0
C0C0C0
C0C0C0
C0C0C0
C0C0C0
C0C0C0
C0C0C0
C0C0C0
ENDCHAR
STARTCHAR 006E
ENCODING 110
SWIDTH 600 0
DWIDTH 15 0
BBX 11 14 2 0
BITMAP
CF80
DFC0
F0E0
E0E0
E060
C060
C060
C060
C060
C060
C060
C060
C060
C060
ENDCHAR
STARTCHAR 006F
ENCODING 111
SWIDTH 560 0
DWIDTH 14 0
BBX 12 14 1 0
BITMAP
1F00
3FC0
70E0
6060
E070
C030
C030
C030
C030
E070
6060
70E0
3FC0
1F80
ENDCHAR
STARTCHAR 0070
ENCODING 112
SWIDTH 600 0
DWIDTH 15 0
BBX 11 20 2 -6
BITMAP
CF00
DFC0
F0C0
E0E0
C060
C060
C060
C060
C060
C060
E0E0
F0C0
DFC0
CF00
C000
C000
C000
C000
C000
C000
ENDCHAR
STARTCHAR 0071
ENCODING 113
SWIDTH 560 0
DWIDTH 14 0
BBX 11 20 1 -6
BITMAP
1E60
3FE0
70E0
E0E0
E060
C060
C060
C060
C060
E060
E0E0
70E0
3FE0
1E60
0060
0060
0060
0060
0060
0060
ENDCHAR
STARTCHAR 0072
ENCODING 114
SWIDTH 400 0
DWIDTH 10 0
BBX 7 14 2 0
BITMAP
CE
DE
F0
E0
E0
C0
C0
C0
C0
C0
C0
C0
C0
C0
ENDCHAR
STARTCHAR 0073
ENCODING 115
SWIDTH 440 0
DWIDTH 11 0
BBX 9 14 1 0
BITMAP
3F00
7F00
E100
C000
E000
7000
3C00
0F00
0380
0180
0180
8380
FF00
7E00
ENDCHAR
STARTCHAR 0074
ENCODING 116
SWIDTH 400 0
DWIDTH 10 0
BBX 8 17 1 0
BITMAP
30
30
30
FF
FF
30
30
30
30
30
30
30
30
30
38
3F
0F
ENDCHAR
STARTCHAR 0075
ENCODING 117
SWIDTH 600 0
DWIDTH 15 0
BBX 11 14 2 0
BITMAP
C060
C060
C060
C060
C060
C060
C060
C060
C060
C0E0
C0E0
E1E0
7F60
3E60
ENDCHAR
STARTCHAR 0076
ENCODING 118
SWIDTH 480 0
DWIDTH 12 0
BBX 12 14 0 0
BITMAP
C030
6070
6060
6060
30E0
30C0
30C0
1980
1980
1980
0F00
0F00
0F00
0600
ENDCHAR
STARTCHAR 0077
ENCODING 119
SWIDTH 760 0
DWIDTH 19 0
BBX 18 14 0 0
BITMAP
E0E0C0
60E0C0
61E0C0
61A180
71B180
31B180
333180
331B00
331B00
1A1B00
1E1B00
1E0A00
1E0E00
0C0E00
ENDCHAR
STARTCHAR 0078
ENCODING 120
SWIDTH 520 0
DWIDTH 13 0
BBX 11 14 1 0
BITMAP
C0E0
60C0
7180
3380
3B00
1E00
0E00
0E00
1F00
3B00
3180
61C0
E0C0
C0E0
ENDCHAR
STARTCHAR 0079
ENCODING 121
SWIDTH 480 0
DWIDTH 12 0
BBX 12 20 0 -6
BITMAP
C070
E060
6060
60E0
70C0
30C0
31C0
3980
1980
1B80
0F00
0F00
0F00
0600
0600
0C00
0C00
1C00
F800
F000
ENDCHAR
STARTCHAR 007A
ENCODING 122
SWIDTH 440 0
DWIDTH 11 0
BBX 9 14 1 0
BITMAP
FF80
FF80
0380
0700
0600
0E00
0C00
1800
3800
3000
6000
6000
FF80
FF80
ENDCHAR
STARTCHAR 007B
ENCODING 123
SWIDTH 360 0
DWIDTH 9 0
BBX 8 22 1 -4
BITMAP
07
0F
1C
18
18
18
18
18
18
38
F0
F0
38
18
18
18
18
18
18
1C
0F
07
ENDCHAR
STARTCHAR 007C
ENCODING 124
SWIDTH 560 0
DWIDTH 14 0
BBX 2 25 6 -6
BITMAP
C0
C0
C0
C0
C0
C0
C0
C0
C0
C0
C0
C0
C0
C0
C0
C0
C0
C0
C0
C0
C0
C0
C0
C0
C0
ENDCHAR
STARTCHAR 007D
ENCODING 125
SWIDTH 360 0
DWIDTH 9 0
BBX 8 22 0 -4
BITMAP
E0
F0
38
18
18
18
18
18
18
1C
0F
07
1C
18
18
18
18
18
18
38
F8
E0
ENDCHAR
STARTCHAR 007E
ENCODING 126
SWIDTH 520 0
DWIDTH 13 0
BBX 11 3 1 7
BITMAP
7820
FFE0
83C0
ENDCHAR
STARTCHAR 00A0
ENCODING 160
SWIDTH 240 0
DWIDTH 6 0
BBX 0 0 0 0
BITMAP
ENDCHAR
STARTCHAR 00A1
ENCODING 161
SWIDTH 280 0
DWIDTH 7 0
BBX 3 18 2 -4
BITMAP
E0
E0
E0
00
00
60
60
60
60
60
60
60
60
60
60
60
60
60
ENDCHAR
STARTCHAR 00A2
ENCODING 162
SWIDTH 520 0
DWIDTH 13 0
BBX 9 18 2 0
BITMAP
0C00
1F00
3F80
7080
6000
E000
C000
C000
C000
C000
C000
E000
6000
7080
3F80
1F00
0C00
0C00
ENDCHAR
STARTCHAR 00A3
ENCODING 163
SWIDTH 560 0
DWIDTH 14 0
BBX 12 18 1 0
BITMAP
0FC0
1FE0
3820
3000
3000
3000
3000
3000
FF80
FF80
3000
3000
3000
3000
3000
6000
FFF0
FFF0
ENDCHAR
STARTCHAR 00A4
ENCODING 164
SWIDTH 520 0
DWIDTH 13 0
BBX 11 12 1 3
BITMAP
4040
EEE0
7FC0
3180
60C0
60C0
60C0
60C0
3180
7FC0
EEE0
4040
ENDCHAR
STARTCHAR 00A5
ENCODING 165
SWIDTH 520 0
DWIDTH 13 0
BBX 13 18 0 0
BITMAP
E038
6030
7070
3060
1860
18C0
08C0
0D80
0580
3FE0
3FE0
0300
0300
3FE0
3FE0
0300
0300
0300
ENDCHAR
STARTCHAR 00A6
ENCODING 166
SWIDTH 560 0
DWIDTH 14 0
BBX 2 25 6 -6
BITMAP
C0
C0
C0
C0
C0
C0
C0
C0
C0
C0
00
00
00
00
00
C0
C0
C0
C0
C0
C0
C0
C0
C0
C0
ENDCHAR
STARTCHAR 00A7
ENCODING 167
SWIDTH 520 0
DWIDTH 13 0
BBX 9 19 2 0
BITMAP
3F00
7F80
E000
C000
E000
7800
3E00
E700
C380
C180
E180
7B00
3E00
0700
0380
0180
8380
FF00
7E00
ENDCHAR
STARTCHAR 00A8
ENCODING 168
SWIDTH 560 0
DWIDTH 14 0
BBX 7 3 3 16
BITMAP
C6
C6
C6
ENDCHAR
STARTCHAR 00A9
ENCODING 169
SWIDTH 760 0
DWIDTH 19 0
BBX 17 19 1 0
BITMAP
03E000
0FF800
1C1C00
300600
61E300
47F100
C60180
8E0080
8C0080
8C0080
8C0080
8C0080
CE0180
460100
67E300
31E600
181C00
0FF800
03E000
ENDCHAR
STARTCHAR 00AA
ENCODING 170
SWIDTH 320 0
DWIDTH 8 0
BBX 6 8 1 11
BITMAP
F8
0C
04
7C
C4
84
8C
F4
ENDCHAR
STARTCHAR 00AB
ENCODING 171
SWIDTH 480 0
DWIDTH 12 0
BBX 10 10 1 1
BITMAP
0840
18C0
3980
7380
E700
E600
6300
3180
19C0
1CC0
ENDCHAR
STARTCHAR 00AC
ENCODING 172
SWIDTH 560 0
DWIDTH 14 0
BBX 12 7 1 3
BITMAP
FFF0
FFF0
0030
0030
0030
0030
0030
ENDCHAR
STARTCHAR 00AD
ENCODING 173
SWIDTH 320 0
DWIDTH 8 0
BBX 6 2 1 6
BITMAP
FC
FC
ENDCHAR
STARTCHAR 00AE
ENCODING 174
SWIDTH 760 0
DWIDTH 19 0
BBX 17 19 1 0
BITMAP
03E000
0FF800
1C1C00
300600
67E300
47F100
C63180
863080
863080
87E080
87C080
866080
C66180
463100
661B00
300600
181C00
0FF800
03E000
ENDCHAR
STARTCHAR 00AF
ENCODING 175
SWIDTH 480 0
DWIDTH 12 0
BBX 12 2 0 19
BITMAP
FFF0
FFF0
ENDCHAR
STARTCHAR 00B0
ENCODING 176
SWIDTH 400 0
DWIDTH 10 0
BBX 7 8 2 11
BITMAP
38
7C
C6
82
82
C6
7C
38
ENDCHAR
STARTCHAR 00B1
ENCODING 177
SWIDTH 520 0
DWIDTH 13 0
BBX 11 15 1 0
BITMAP
0600
0600
0600
0600
0600
FFE0
FFE0
0600
0600
0600
0600
0600
0000
FFE0
FFE0
ENDCHAR
STARTCHAR 00B2
ENCODING 178
SWIDTH 320 0
DWIDTH 8 0
BBX 6 11 1 11
BITMAP
78
CC
04
04
0C
08
18
30
60
C0
FC
ENDCHAR
STARTCHAR 00B3
ENCODING 179
SWIDTH 320 0
DWIDTH 8 0
BBX 6 11 1 11
BITMAP
78
CC
04
0C
78
0C
04
04
0C
8C
F8
ENDCHAR
STARTCHAR 00B4
ENCODING 180
SWIDTH 280 0
DWIDTH 7 0
BBX 5 4 1 16
BITMAP
38
70
60
C0
ENDCHAR
STARTCHAR 00B5
ENCODING 181
SWIDTH 600 0
DWIDTH 15 0
BBX 11 20 2 -6
BITMAP
C060
C060
C060
C060
C060
C060
C060
C060
C060
C0E0
C0E0
E1E0
FF60
DE60
C000
C000
C000
C000
C000
C000
ENDCHAR
STARTCHAR 00B6
ENCODING 182
SWIDTH 600 0
DWIDTH 15 0
BBX 12 23 1 -4
BITMAP
1FF0
3FF0
7F10
7F10
FF10
FF10
FF10
FF10
FF10
7F10
7F10
7F10
3F10
0110
0110
0110
0110
0110
0110
0110
0110
0110
0110
ENDCHAR
STARTCHAR 00B7
ENCODING 183
SWIDTH 280 0
DWIDTH 7 0
BBX 3 3 2 7
BITMAP
E0
E0
E0
ENDCHAR
STARTCHAR 00B8
ENCODING 184
SWIDTH 240 0
DWIDTH 6 0
BBX 5 6 0 -6
BITMAP
20
60
38
18
F8
F0
ENDCHAR
STARTCHAR 00B9
ENCODING 185
SWIDTH 320 0
DWIDTH 8 0
BBX 4 11 1 11
BITMAP
30
70
D0
90
10
10
10
10
10
10
10
ENDCHAR
STARTCHAR 00BA
ENCODING 186
SWIDTH 360 0
DWIDTH 9 0
BBX 7 8 1 11
BITMAP
78
C4
86
82
82
86
C6
7C
ENDCHAR
STARTCHAR 00BB
ENCODING 187
SWIDTH 480 0
DWIDTH 12 0
BBX 10 10 1 1
BITMAP
8400
C600
6300
7380
39C0
19C0
3180
6300
E600
CE00
ENDCHAR
STARTCHAR 00BC
ENCODING 188
SWIDTH 760 0
DWIDTH 19 0
BBX 17 18 1 0
BITMAP
380C00
781800
D81800
183000
183000
186000
186000
18C600
198E00
198E00
1B1600
031600
062600
066600
0C7F80
0C7F80
180600
380600
ENDCHAR
STARTCHAR 00BD
ENCODING 189
SWIDTH 760 0
DWIDTH 19 0
BBX 17 18 1 0
BITMAP
380800
781800
D83000
183000
186000
186000
18C000
18DF00
19BB80
190180
1B0180
060380
060300
0C0600
0C0C00
181800
183F80
303F80
ENDCHAR
STARTCHAR 00BE
ENCODING 190
SWIDTH 800 0
DWIDTH 20 0
BBX 18 19 1 0
BITMAP
3C0600
FE0600
460C00
060C00
061800
7C1000
7C3000
066000
066300
06C700
FEC700
7D8B00
018B00
031300
033300
063FC0
043FC0
0C0300
080300
ENDCHAR
STARTCHAR 00BF
ENCODING 191
SWIDTH 440 0
DWIDTH 11 0
BBX 9 18 1 -4
BITMAP
0E00
0E00
0E00
0000
0000
0C00
0C00
1C00
1800
3800
7000
E000
C000
C000
C000
E080
7F80
3F00
ENDCHAR
STARTCHAR 00C0
ENCODING 192
SWIDTH 600 0
DWIDTH 15 0
BBX 15 24 0 0
BITMAP
0E00
0600
0300
0180
0000
0000
0380
0380
02C0
06C0
06C0
0660
0C60
0C60
1830
1830
1FF0
3FF8
3018
3018
600C
600C
600E
C006
ENDCHAR
STARTCHAR 00C1
ENCODING 193
SWIDTH 600 0
DWIDTH 15 0
BBX 15 24 0 0
BITMAP
00E0
01C0
0180
0300
0000
0000
0380
0380
02C0
06C0
06C0
0660
0C60
0C60
1830
1830
1FF0
3FF8
3018
3018
600C
600C
600E
C006
ENDCHAR
STARTCHAR 00C2
ENCODING 194
SWIDTH 600 0
DWIDTH 15 0
BBX 15 24 0 0
BITMAP
0380
07C0
06C0
0C60
0000
0000
0380
0380
02C0
06C0
06C0
0660
0C60
0C60
1830
1830
1FF0
3FF8
3018
3018
600C
600C
600E
C006
ENDCHAR
STARTCHAR 00C3
ENCODING 195
SWIDTH 600 0
DWIDTH 15 0
BBX 15 23 0 0
BITMAP
0F30
0FE0
18E0
0000
0000
0380
0380
02C0
06C0
06C0
0660
0C60
0C60
1830
1830
1FF0
3FF8
3018
3018
600C
600C
600E
C006
ENDCHAR
STARTCHAR 00C4
ENCODING 196
SWIDTH 600 0
DWIDTH 15 0
BBX 15 23 0 0
BITMAP
0C60
0C60
0C60
0000
0000
0380
0380
06C0
06C0
06C0
0C60
0C60
0C60
1830
1830
1FF8
3FF8
3018
701C
600C
600C
E00E
C006
ENDCHAR
STARTCHAR 00C5
ENCODING 197
SWIDTH 600 0
DWIDTH 15 0
BBX 15 22 0 0
BITMAP
0380
06C0
0440
04C0
07C0
0380
07C0
06C0
06C0
0EE0
0C60
0C60
1870
1830
1FF0
3FF8
3018
3018
600C
600C
E00C
C00E
ENDCHAR
STARTCHAR 00C6
ENCODING 198
SWIDTH 840 0
DWIDTH 21 0
BBX 19 18 1 0
BITMAP
01FFE0
01FFE0
033000
033000
063000
063000
0E3000
0C3FE0
0C3FE0
183000
1FF000
3FF000
303000
703000
603000
E03000
C03FE0
C03FE0
ENDCHAR
STARTCHAR 00C7
ENCODING 199
SWIDTH 560 0
DWIDTH 14 0
BBX 12 24 1 -6
BITMAP
07E0
1FF0
3810
7000
6000
E000
E000
C000
C000
C000
C000
C000
E000
6000
7000
3800
1FF0
07E0
0100
0380
00C0
00C0
07C0
0780
ENDCHAR
STARTCHAR 00C8
ENCODING 200
SWIDTH 520 0
DWIDTH 13 0
BBX 10 24 2 0
BITMAP
3000
3800
1800
0C00
0000
0000
FFC0
FFC0
C000
C000
C000
C000
C000
FF80
FF80
C000
C000
C000
C000
C000
C000
C000
FFC0
FFC0
ENDCHAR
STARTCHAR 00C9
ENCODING 201
SWIDTH 520 0
DWIDTH 13 0
BBX 10 24 2 0
BITMAP
0700
0600
0C00
1800
0000
0000
FFC0
FFC0
C000
C000
C000
C000
C000
FF80
FF80
C000
C000
C000
C000
C000
C000
C000
FFC0
FFC0
ENDCHAR
STARTCHAR 00CA
ENCODING 202
SWIDTH 520 0
DWIDTH 13 0
BBX 10 24 2 0
BITMAP
1C00
1E00
3300
6180
0000
0000
FFC0
FFC0
C000
C000
C000
C000
C000
FF80
FF80
C000
C000
C000
C000
C000
C000
C000
FFC0
FFC0
ENDCHAR
STARTCHAR 00CB
ENCODING 203
SWIDTH 520 0
DWIDTH 13 0
BBX 10 23 2 0
BITMAP
3300
3300
3300
0000
0000
FFC0
FFC0
C000
C000
C000
C000
C000
FF80
FF80
C000
C000
C000
C000
C000
C000
C000
FFC0
FFC0
ENDCHAR
STARTCHAR 00CC
ENCODING 204
SWIDTH 320 0
DWIDTH 8 0
BBX 6 24 1 0
BITMAP
C0
60
70
30
00
00
FC
78
30
30
30
30
30
30
30
30
30
30
30
30
30
30
78
FC
ENDCHAR
STARTCHAR 00CD
ENCODING 205
SWIDTH 320 0
DWIDTH 8 0
BBX 6 24 1 0
BITMAP
1C
18
30
20
00
00
FC
78
30
30
30
30
30
30
30
30
30
30
30
30
30
30
78
FC
ENDCHAR
STARTCHAR 00CE
ENCODING 206
SWIDTH 320 0
DWIDTH 8 0
BBX 8 24 0 0
BITMAP
1C
3C
66
C3
00
00
7E
3C
18
18
18
18
18
18
18
18
18
18
18
18
18
18
3C
7E
ENDCHAR
STARTCHAR 00CF
ENCODING 207
SWIDTH 320 0
DWIDTH 8 0
BBX 6 23 1 0
BITMAP
CC
CC
C4
00
00
FC
78
30
30
30
30
30
30
30
30
30
30
30
30
30
30
78
FC
ENDCHAR
STARTCHAR 00D0
ENCODING 208
SWIDTH 680 0
DWIDTH 17 0
BBX 15 18 1 0
BITMAP
3FC0
3FF0
3038
301C
300C
300E
3006
3006
FF06
FF06
3006
300E
300E
300C
301C
3078
3FF0
3FC0
ENDCHAR
STARTCHAR 00D1
ENCODING 209
SWIDTH 720 0
DWIDTH 18 0
BBX 13 23 2 0
BITMAP
0E60
1FC0
1180
0000
0000
E018
F018
F018
D818
D818
CC18
CC18
C618
C618
C318
C318
C198
C1D8
C0D8
C078
C078
C038
C038
ENDCHAR
STARTCHAR 00D2
ENCODING 210
SWIDTH 720 0
DWIDTH 18 0
BBX 15 25 1 0
BITMAP
0E00
0600
0700
0300
0180
0000
0000
07E0
1FF0
3838
700C
600C
E006
C006
C006
C006
C006
C006
C006
E00E
600C
701C
3838
1FF0
07E0
ENDCHAR
STARTCHAR 00D3
ENCODING 211
SWIDTH 720 0
DWIDTH 18 0
BBX 15 25 1 0
BITMAP
00E0
00C0
0180
0300
0200
0000
0000
07E0
1FF0
3838
700C
600C
E006
C006
C006
C006
C006
C006
C006
E00E
600C
701C
3838
1FF0
07E0
ENDCHAR
STARTCHAR 00D4
ENCODING 212
SWIDTH 720 0
DWIDTH 18 0
BBX 15 25 1 0
BITMAP
0380
0380
06C0
0C60
0830
0000
0000
07E0
1FF0
3838
700C
600C
E006
C006
C006
C006
C006
C006
C006
E00E
600C
701C
3838
1FF0
07E0
ENDCHAR
STARTCHAR 00D5
ENCODING 213
SWIDTH 720 0
DWIDTH 18 0
BBX 15 24 1 0
BITMAP
0F10
0FF0
18E0
0000
0000
0000
07E0
1FF0
3838
700C
600C
E006
C006
C006
C006
C006
C006
C006
E00E
600C
701C
3838
1FF0
07E0
ENDCHAR
STARTCHAR 00D6
ENCODING 214
SWIDTH 720 0
DWIDTH 18 0
BBX 15 24 1 0
BITMAP
0660
0660
0660
0000
0000
0000
07E0
1FF0
3838
700C
600C
E006
C006
C006
C006
C006
C006
C006
E00E
600C
701C
3838
1FF0
07E0
ENDCHAR
STARTCHAR 00D7
ENCODING 215
SWIDTH 520 0
DWIDTH 13 0
BBX 10 11 2 3
BITMAP
0080
C0C0
E180
7300
3E00
1C00
1C00
3600
7300
E180
C0C0
ENDCHAR
STARTCHAR 00D8
ENCODING 216
SWIDTH 720 0
DWIDTH 18 0
BBX 15 18 1 0
BITMAP
07EC
1FFC
3838
703C
607C
E066
C0C6
C1C6
C186
C306
C706
C606
EC0E
6C0C
781C
3838
7FF0
67E0
ENDCHAR
STARTCHAR 00D9
ENCODING 217
SWIDTH 680 0
DWIDTH 17 0
BBX 13 25 2 0
BITMAP
1C00
0C00
0E00
0600
0300
0000
0000
C018
C018
C018
C018
C018
C018
C018
C018
C018
C018
C018
C018
C018
E038
6030
7070
3FE0
0F80
ENDCHAR
STARTCHAR 00DA
ENCODING 218
SWIDTH 680 0
DWIDTH 17 0
BBX 13 25 2 0
BITMAP
01C0
0180
0300
0600
0400
0000
0000
C018
C018
C018
C018
C018
C018
C018
C018
C018
C018
C018
C018
C018
E038
6030
7070
3FE0
0F80
ENDCHAR
STARTCHAR 00DB
ENCODING 219
SWIDTH 680 0
DWIDTH 17 0
BBX 13 25 2 0
BITMAP
0700
0700
0D80
18C0
3060
0000
0000
C018
C018
C018
C018
C018
C018
C018
C018
C018
C018
C018
C018
C018
E038
6030
7070
3FE0
0F80
ENDCHAR
STARTCHAR 00DC
ENCODING 220
SWIDTH 680 0
DWIDTH 17 0
BBX 13 24 2 0
BITMAP
18C0
18C0
18C0
0000
0000
0000
C018
C018
C018
C018
C018
C018
C018
C018
C018
C018
C018
C018
C018
E038
6030
7070
3FE0
0F80
ENDCHAR
STARTCHAR 00DD
ENCODING 221
SWIDTH 560 0
DWIDTH 14 0
BBX 13 24 1 0
BITMAP
0380
0300
0600
0400
0000
0000
C038
E030
6070
6060
30E0
30C0
19C0
1980
0F80
0F00
0700
0600
0600
0600
0600
0600
0600
0600
ENDCHAR
STARTCHAR 00DE
ENCODING 222
SWIDTH 560 0
DWIDTH 14 0
BBX 11 18 2 0
BITMAP
C000
C000
C000
FF00
FFC0
C1C0
C0E0
C060
C060
C060
C0E0
C1C0
FF80
FF00
C000
C000
C000
C000
ENDCHAR
STARTCHAR 00DF
ENCODING 223
SWIDTH 600 0
DWIDTH 15 0
BBX 12 19 2 0
BITMAP
3F00
7FC0
E1C0
C0C0
C0C0
C1C0
C380
C700
C600
C700
C380
C1C0
C0E0
C070
C030
C030
C870
CFE0
C7C0
ENDCHAR
STARTCHAR 00E0
ENCODING 224
SWIDTH 520 0
DWIDTH 13 0
BBX 10 19 1 0
BITMAP
3800
1800
0C00
0600
0000
1F00
7F80
21C0
00C0
00C0
07C0
3FC0
70C0
E0C0
C0C0
C1C0
E1C0
7EC0
3C40
ENDCHAR
STARTCHAR 00E1
ENCODING 225
SWIDTH 520 0
DWIDTH 13 0
BBX 10 19 1 0
BITMAP
0300
0700
0E00
0800
0000
1F00
7F80
21C0
00C0
00C0
1FC0
7FC0
F0C0
E0C0
C0C0
C1C0
E1C0
7EC0
3C40
ENDCHAR
STARTCHAR 00E2
ENCODING 226
SWIDTH 520 0
DWIDTH 13 0
BBX 10 19 1 0
BITMAP
0E00
1F00
3380
20C0
0000
1F00
7F80
21C0
00C0
00C0
1FC0
7FC0
F0C0
E0C0
C0C0
C1C0
E1C0
7EC0
3C40
ENDCHAR
STARTCHAR 00E3
ENCODING 227
SWIDTH 520 0
DWIDTH 13 0
BBX 10 18 1 0
BITMAP
3FC0
7F80
0000
0000
1F00
7F80
21C0
00C0
00C0
1FC0
7FC0
F0C0
E0C0
C0C0
C1C0
E1C0
7EC0
3C40
ENDCHAR
STARTCHAR 00E4
ENCODING 228
SWIDTH 520 0
DWIDTH 13 0
BBX 10 18 1 0
BITMAP
3180
3180
3180
0000
1F00
7F80
21C0
00C0
00C0
1FC0
7FC0
F0C0
E0C0
C0C0
C1C0
E1C0
7FC0
3C40
ENDCHAR
STARTCHAR 00E5
ENCODING 229
SWIDTH 520 0
DWIDTH 13 0
BBX 10 21 1 0
BITMAP
0E00
1B00
1100
1100
1F00
0E00
0000
1F00
7F80
21C0
00C0
00C0
1FC0
7FC0
F0C0
E0C0
C0C0
C1C0
E1C0
7EC0
3CC0
ENDCHAR
STARTCHAR 00E6
ENCODING 230
SWIDTH 800 0
DWIDTH 20 0
BBX 18 14 1 0
BITMAP
1F1E00
7FBF80
01E180
00C1C0
00C0C0
1FFFC0
7FFFC0
E0C000
E0C000
C0C000
C1E000
E37000
7F3F80
3C1F80
ENDCHAR
STARTCHAR 00E7
ENCODING 231
SWIDTH 440 0
DWIDTH 11 0
BBX 9 20 1 -6
BITMAP
1F80
3F80
7000
6000
E000
C000
C000
C000
C000
E000
6000
7000
3F80
1F80
0400
0E00
0300
0300
1F00
1E00
ENDCHAR
STARTCHAR 00E8
ENCODING 232
SWIDTH 520 0
DWIDTH 13 0
BBX 11 19 1 0
BITMAP
3800
1800
0C00
0600
0000
1F00
3F80
70C0
60E0
C060
FFE0
FFE0
C000
C000
E000
6000
7000
3FC0
0FC0
ENDCHAR
STARTCHAR 00E9
ENCODING 233
SWIDTH 520 0
DWIDTH 13 0
BBX 11 19 1 0
BITMAP
0380
0700
0E00
0800
0000
1F00
3F80
70C0
60E0
C060
FFE0
FFE0
C000
C000
E000
6000
7000
3FC0
0FC0
ENDCHAR
STARTCHAR 00EA
ENCODING 234
SWIDTH 520 0
DWIDTH 13 0
BBX 11 19 1 0
BITMAP
0E00
1F00
3380
60C0
0000
1F00
3F80
70C0
60E0
C060
FFE0
FFE0
C000
C000
E000
6000
7000
3FC0
0FC0
ENDCHAR
STARTCHAR 00EB
ENCODING 235
SWIDTH 520 0
DWIDTH 13 0
BBX 11 18 1 0
BITMAP
3180
3180
3180
0000
1F00
3F80
70C0
60E0
C060
FFE0
FFE0
C000
C000
E000
6000
7000
3FC0
0FC0
ENDCHAR
STARTCHAR 00EC
ENCODING 236
SWIDTH 240 0
DWIDTH 6 0
BBX 4 19 0 0
BITMAP
C0
60
30
00
00
30
30
30
30
30
30
30
30
30
30
30
30
30
30
ENDCHAR
STARTCHAR 00ED
ENCODING 237
SWIDTH 240 0
DWIDTH 6 0
BBX 4 19 2 0
BITMAP
70
60
C0
00
00
C0
C0
C0
C0
C0
C0
C0
C0
C0
C0
C0
C0
C0
C0
ENDCHAR
STARTCHAR 00EE
ENCODING 238
SWIDTH 240 0
DWIDTH 6 0
BBX 7 19 0 0
BITMAP
38
78
CC
02
00
30
30
30
30
30
30
30
30
30
30
30
30
30
30
ENDCHAR
STARTCHAR 00EF
ENCODING 239
SWIDTH 280 0
DWIDTH 7 0
BBX 7 18 0 0
BITMAP
C6
C6
C6
00
30
30
30
30
30
30
30
30
30
30
30
30
30
30
ENDCHAR
STARTCHAR 00F0
ENCODING 240
SWIDTH 560 0
DWIDTH 14 0
BBX 12 19 1 0
BITMAP
1CC0
0FC0
0700
1F80
19C0
00C0
0060
1F60
3FF0
70F0
E070
C030
C030
C030
C030
E060
70E0
3FC0
1F80
ENDCHAR
STARTCHAR 00F1
ENCODING 241
SWIDTH 600 0
DWIDTH 15 0
BBX 11 18 2 0
BITMAP
3CC0
7F80
4380
0000
CF80
DFC0
F0E0
E0E0
E060
C060
C060
C060
C060
C060
C060
C060
C060
C060
ENDCHAR
STARTCHAR 00F2
ENCODING 242
SWIDTH 560 0
DWIDTH 14 0
BBX 12 19 1 0
BITMAP
1800
1C00
0E00
0200
0000
1F00
3FC0
70E0
6060
E070
C030
C030
C030
C030
E070
6060
70E0
3FC0
1F80
ENDCHAR
STARTCHAR 00F3
ENCODING 243
SWIDTH 560 0
DWIDTH 14 0
BBX 12 19 1 0
BITMAP
0380
0300
0600
0C00
0000
1F00
3FC0
70E0
6060
E070
C030
C030
C030
C030
E070
6060
70E0
3FC0
1F80
ENDCHAR
STARTCHAR 00F4
ENCODING 244
SWIDTH 560 0
DWIDTH 14 0
BBX 12 19 1 0
BITMAP
0E00
0F00
1980
30C0
0000
1F00
3FC0
70E0
6060
E070
C030
C030
C030
C030
E070
6060
70E0
3FC0
1F80
ENDCHAR
STARTCHAR 00F5
ENCODING 245
SWIDTH 560 0
DWIDTH 14 0
BBX 12 18 1 0
BITMAP
3FC0
3FC0
0000
0000
1F00
3FC0
70E0
6060
E070
C030
C030
C030
C030
E070
6060
70E0
3FC0
1F80
ENDCHAR
STARTCHAR 00F6
ENCODING 246
SWIDTH 560 0
DWIDTH 14 0
BBX 12 18 1 0
BITMAP
1980
1980
1980
0000
1F00
3FC0
70E0
6060
E070
C030
C030
C030
C030
E070
6060
70E0
3FC0
1F80
ENDCHAR
STARTCHAR 00F7
ENCODING 247
SWIDTH 520 0
DWIDTH 13 0
BBX 11 12 1 3
BITMAP
0600
0600
0600
0000
0000
FFE0
FFE0
0000
0000
0600
0600
0600
ENDCHAR
STARTCHAR 00F8
ENCODING 248
SWIDTH 560 0
DWIDTH 14 0
BBX 12 14 1 0
BITMAP
1F70
3FE0
70E0
61E0
E1F0
C330
C630
C630
CC30
F870
7860
70E0
7FC0
7F80
ENDCHAR
STARTCHAR 00F9
ENCODING 249
SWIDTH 600 0
DWIDTH 15 0
BBX 11 19 2 0
BITMAP
3800
1C00
0C00
0000
0000
C060
C060
C060
C060
C060
C060
C060
C060
C060
C0E0
C0E0
E1E0
7F60
3E60
ENDCHAR
STARTCHAR 00FA
ENCODING 250
SWIDTH 600 0
DWIDTH 15 0
BBX 11 19 2 0
BITMAP
0380
0700
0E00
0000
0000
C060
C060
C060
C060
C060
C060
C060
C060
C060
C0E0
C0E0
E1E0
7F60
3E60
ENDCHAR
STARTCHAR 00FB
ENCODING 251
SWIDTH 600 0
DWIDTH 15 0
BBX 11 19 2 0
BITMAP
0E00
1F00
3180
0000
0000
C060
C060
C060
C060
C060
C060
C060
C060
C060
C0E0
C0E0
E1E0
7F60
3E60
ENDCHAR
STARTCHAR 00FC
ENCODING 252
SWIDTH 600 0
DWIDTH 15 0
BBX 11 18 2 0
BITMAP
3180
3180
3180
0000
C060
C060
C060
C060
C060
C060
C060
C060
C060
C0E0
C0E0
E1E0
7F60
3E60
ENDCHAR
STARTCHAR 00FD
ENCODING 253
SWIDTH 480 0
DWIDTH 12 0
BBX 12 25 0 -6
BITMAP
0380
0700
0600
0000
0000
C070
E060
6060
60E0
70C0
30C0
31C0
3980
1980
1B80
0F00
0F00
0F00
0600
0600
0C00
0C00
1C00
F800
F000
ENDCHAR
STARTCHAR 00FE
ENCODING 254
SWIDTH 600 0
DWIDTH 15 0
BBX 11 25 2 -6
BITMAP
C000
C000
C000
C000
C000
CF00
DFC0
F0C0
E0E0
C060
C060
C060
C060
C060
C060
E0E0
F0C0
DFC0
CF00
C000
C000
C000
C000
C000
C000
ENDCHAR
STARTCHAR 00FF
ENCODING 255
SWIDTH 520 0
DWIDTH 13 0
BBX 13 24 0 -6
BITMAP
18C0
18C0
18C0
0000
E038
6030
7070
3060
3060
38E0
18C0
18C0
1DC0
0D80
0D80
0780
0700
0700
0700
0600
0E00
0C00
FC00
F000
ENDCHAR
STARTCHAR 0100
ENCODING 256
SWIDTH 600 0
DWIDTH 15 0
BBX 15 22 0 0
BITMAP
0FE0
0FE0
0000
0000
0380
0380
0280
06C0
06C0
0660
0C60
0C60
1830
1830
1FF0
3FF8
3018
3018
600C
600C
600E
C006
ENDCHAR
STARTCHAR 0101
ENCODING 257
SWIDTH 520 0
DWIDTH 13 0
BBX 10 18 1 0
BITMAP
3F80
3F80
0000
0000
1F00
7F80
21C0
00C0
00C0
1FC0
7FC0
F0C0
E0C0
C0C0
C1C0
E1C0
7EC0
3C40
ENDCHAR
STARTCHAR 0102
ENCODING 258
SWIDTH 600 0
DWIDTH 15 0
BBX 15 24 0 0
BITMAP
0820
0C20
07E0
0380
0000
0000
0380
0380
03C0
06C0
06C0
0660
0C60
0C60
0C30
1830
1FF8
3FF8
3018
301C
700C
600C
600E
E006
ENDCHAR
STARTCHAR 0103
ENCODING 259
SWIDTH 520 0
DWIDTH 13 0
BBX 10 19 1 0
BITMAP
2080
3F80
1F00
0000
0000
1F00
7F80
21C0
00C0
00C0
07C0
3FC0
70C0
E0C0
C0C0
C1C0
E1C0
7FC0
3CC0
ENDCHAR
STARTCHAR 0104
ENCODING 260
SWIDTH 640 0
DWIDTH 16 0
BBX 16 24 0 -6
BITMAP
0180
0380
03C0
06C0
06E0
0660
0C60
0C30
0C30
1830
1FF8
1FF8
301C
300C
700C
600E
6006
E007
0002
0006
000C
000C
000F
0007
ENDCHAR
STARTCHAR 0105
ENCODING 261
SWIDTH 520 0
DWIDTH 13 0
BBX 11 20 1 -6
BITMAP
1F00
7F80
21C0
00C0
00C0
1FC0
7FC0
F0C0
E0C0
C0C0
C1C0
E1C0
7FC0
3C40
00C0
00C0
0180
0180
01E0
00E0
ENDCHAR
STARTCHAR 0106
ENCODING 262
SWIDTH 560 0
DWIDTH 14 0
BBX 12 25 1 0
BITMAP
00E0
01C0
0180
0300
0200
0000
0000
07E0
1FF0
3810
7000
6000
E000
E000
C000
C000
C000
C000
C000
E000
6000
7000
3800
1FF0
07E0
ENDCHAR
STARTCHAR 0107
ENCODING 263
SWIDTH 440 0
DWIDTH 11 0
BBX 9 19 1 0
BITMAP
0300
0600
0C00
0800
0000
1F80
3F80
7000
6000
E000
C000
C000
C000
C000
E000
6000
7000
3F80
1F80
ENDCHAR
STARTCHAR 0108
ENCODING 264
SWIDTH 560 0
DWIDTH 14 0
BBX 12 25 1 0
BITMAP
0380
0380
06C0
0C60
1830
0000
0000
07E0
1FF0
3810
7000
6000
E000
E000
C000
C000
C000
C000
C000
E000
6000
7000
3800
1FF0
07E0
ENDCHAR
STARTCHAR 0109
ENCODING 265
SWIDTH 440 0
DWIDTH 11 0
BBX 9 19 1 0
BITMAP
0E00
1F00
3300
6080
0000
1F80
3F80
7000
6000
E000
C000
C000
C000
C000
E000
6000
7000
3F80
1F80
ENDCHAR
STARTCHAR 010A
ENCODING 266
SWIDTH 560 0
DWIDTH 14 0
BBX 12 24 1 0
BITMAP
0300
0300
0300
0000
0000
0000
07E0
1FF0
3810
7000
6000
E000
E000
C000
C000
C000
C000
C000
E000
6000
7000
3800
1FF0
07E0
ENDCHAR
STARTCHAR 010B
ENCODING 267
SWIDTH 440 0
DWIDTH 11 0
BBX 9 19 1 0
BITMAP
0C00
0C00
0C00
0000
0000
1F80
3F80
7080
6000
E000
C000
C000
C000
C000
E000
6000
7000
3F80
1F80
ENDCHAR
STARTCHAR 010C
ENCODING 268
SWIDTH 560 0
DWIDTH 14 0
BBX 12 25 1 0
BITMAP
1830
0C60
06C0
0380
0380
0000
0000
07E0
1FF0
3810
7000
6000
E000
E000
C000
C000
C000
C000
C000
E000
6000
7000
3800
1FF0
07E0
ENDCHAR
STARTCHAR 010D
ENCODING 269
SWIDTH 440 0
DWIDTH 11 0
BBX 9 19 1 0
BITMAP
3180
3B00
1E00
0E00
0000
1F80
3F80
7000
6000
E000
C000
C000
C000
C000
E000
6000
7000
3F80
1F80
ENDCHAR
STARTCHAR 010E
ENCODING 270
SWIDTH 680 0
DWIDTH 17 0
BBX 13 24 2 0
BITMAP
30C0
1980
0F00
0700
0000
0000
FF00
FFC0
C0E0
C070
C030
C038
C018
C018
C018
C018
C018
C018
C038
C030
C070
C0E0
FFC0
FF00
ENDCHAR
STARTCHAR 010F
ENCODING 271
SWIDTH 600 0
DWIDTH 15 0
BBX 15 19 1 0
BITMAP
0066
0066
0066
0064
0060
1E60
3FE0
70E0
E0E0
E060
C060
C060
C060
C060
E060
E0E0
70E0
3FE0
1E60
ENDCHAR
STARTCHAR 0110
ENCODING 272
SWIDTH 680 0
DWIDTH 17 0
BBX 15 18 1 0
BITMAP
3FC0
3FF0
3038
301C
300C
300E
3006
3006
FF06
FF06
3006
300E
300E
300C
301C
3078
3FF0
3FC0
ENDCHAR
STARTCHAR 0111
ENCODING 273
SWIDTH 600 0
DWIDTH 15 0
BBX 13 19 1 0
BITMAP
0060
0FF8
0FF8
0060
0060
1E60
3FE0
70E0
E0E0
E060
C060
C060
C060
C060
E060
E0E0
70E0
3FE0
1E60
ENDCHAR
STARTCHAR 0112
ENCODING 274
SWIDTH 520 0
DWIDTH 13 0
BBX 10 22 2 0
BITMAP
7F00
7F00
0000
0000
FFC0
FFC0
C000
C000
C000
C000
C000
FF80
FF80
C000
C000
C000
C000
C000
C000
C000
FFC0
FFC0
ENDCHAR
STARTCHAR 0113
ENCODING 275
SWIDTH 520 0
DWIDTH 13 0
BBX 11 18 1 0
BITMAP
3F80
3F80
0000
0000
1F00
3F80
70C0
60E0
C060
FFE0
FFE0
C000
C000
E000
6000
7040
3FC0
0F80
ENDCHAR
STARTCHAR 0114
ENCODING 276
SWIDTH 520 0
DWIDTH 13 0
BBX 10 24 2 0
BITMAP
6180
6100
3F00
1E00
0000
0000
FFC0
FFC0
C000
C000
C000
C000
C000
FF80
FF80
C000
C000
C000
C000
C000
C000
C000
FFC0
FFC0
ENDCHAR
STARTCHAR 0115
ENCODING 277
SWIDTH 520 0
DWIDTH 13 0
BBX 11 19 1 0
BITMAP
2080
3F80
1F00
0000
0000
1F00
3F80
70C0
60E0
C060
FFE0
FFE0
C000
C000
E000
6000
7000
3FC0
0FC0
ENDCHAR
STARTCHAR 0116
ENCODING 278
SWIDTH 520 0
DWIDTH 13 0
BBX 10 24 2 0
BITMAP
0C00
0C00
0C00
0000
0000
0000
FFC0
FFC0
C000
C000
C000
C000
C000
FF80
FF80
C000
C000
C000
C000
C000
C000
C000
FFC0
FFC0
ENDCHAR
STARTCHAR 0117
ENCODING 279
SWIDTH 520 0
DWIDTH 13 0
BBX 11 19 1 0
BITMAP
0C00
0C00
0C00
0000
0000
1F00
3F80
70C0
60E0
C060
FFE0
FFE0
C000
C000
E000
6000
7000
3FC0
0FC0
ENDCHAR
STARTCHAR 0118
ENCODING 280
SWIDTH 520 0
DWIDTH 13 0
BBX 10 24 2 -6
BITMAP
FFC0
FFC0
C000
C000
C000
C000
C000
FF80
FF80
C000
C000
C000
C000
C000
C000
C000
FFC0
FFC0
0180
0300
0300
0300
03C0
01C0
ENDCHAR
STARTCHAR 0119
ENCODING 281
SWIDTH 520 0
DWIDTH 13 0
BBX 11 20 1 -6
BITMAP
1F00
3F80
70C0
60E0
C060
FFE0
FFE0
C000
C000
E000
6000
7000
3FC0
0FC0
0180
0300
0300
0300
03C0
01C0
ENDCHAR
STARTCHAR 011A
ENCODING 282
SWIDTH 520 0
DWIDTH 13 0
BBX 10 24 2 0
BITMAP
6180
3300
1E00
1C00
0000
0000
FFC0
FFC0
C000
C000
C000
C000
C000
FF80
FF80
C000
C000
C000
C000
C000
C000
C000
FFC0
FFC0
ENDCHAR
STARTCHAR 011B
ENCODING 283
SWIDTH 520 0
DWIDTH 13 0
BBX 11 19 1 0
BITMAP
3180
1B00
1F00
0E00
0000
1F00
3F80
70C0
60E0
C060
FFE0
FFE0
C000
C000
E000
6000
7000
3FC0
0FC0
ENDCHAR
STARTCHAR 011C
ENCODING 284
SWIDTH 680 0
DWIDTH 17 0
BBX 14 25 1 0
BITMAP
0180
03C0
07E0
0660
0810
0000
0000
07F0
1FFC
3C08
7000
6000
6000
E000
C000
C0FC
C0FC
C00C
C00C
E00C
600C
700C
380C
1FFC
07F8
ENDCHAR
STARTCHAR 011D
ENCODING 285
SWIDTH 560 0
DWIDTH 14 0
BBX 11 25 1 -6
BITMAP
0E00
1F00
1980
20C0
0000
1E60
3FE0
70E0
60E0
E060
C060
C060
C060
C060
E060
E0E0
70E0
3FE0
1E60
0060
0060
00E0
40E0
7FC0
3F00
ENDCHAR
STARTCHAR 011E
ENCODING 286
SWIDTH 680 0
DWIDTH 17 0
BBX 14 24 1 0
BITMAP
0C30
0430
07E0
03C0
0000
0000
07F0
1FFC
3C08
7000
6000
6000
E000
C000
C0FC
C0FC
C00C
C00C
E00C
600C
700C
380C
1FFC
07F8
ENDCHAR
STARTCHAR 011F
ENCODING 287
SWIDTH 560 0
DWIDTH 14 0
BBX 11 25 1 -6
BITMAP
3080
3F80
1F00
0000
0000
1E60
3FE0
70E0
60E0
E060
C060
C060
C060
C060
E060
E0E0
70E0
3FE0
1E60
0060
0060
00E0
40E0
7FC0
3F00
ENDCHAR
STARTCHAR 0120
ENCODING 288
SWIDTH 680 0
DWIDTH 17 0
BBX 14 24 1 0
BITMAP
0180
0180
0180
0000
0000
0000
07F0
1FFC
3C08
7000
6000
6000
E000
C000
C0FC
C0FC
C00C
C00C
E00C
600C
700C
380C
1FFC
07F8
ENDCHAR
STARTCHAR 0121
ENCODING 289
SWIDTH 560 0
DWIDTH 14 0
BBX 11 25 1 -6
BITMAP
0600
0600
0600
0000
0000
1E60
3FE0
70E0
60E0
E060
C060
C060
C060
C060
E060
E0E0
70E0
3FE0
1E60
0060
0060
00E0
40E0
7FC0
3F00
ENDCHAR
STARTCHAR 0122
ENCODING 290
SWIDTH 680 0
DWIDTH 17 0
BBX 14 24 1 -6
BITMAP
07F0
1FFC
3C08
7000
6000
6000
E000
C000
C000
C0FC
C0FC
C00C
E00C
600C
700C
380C
1FFC
07F8
0000
0000
0180
0180
0100
0300
ENDCHAR
STARTCHAR 0123
ENCODING 291
SWIDTH 600 0
DWIDTH 15 0
BBX 11 25 1 -6
BITMAP
0200
0600
0600
0C00
0000
1E60
3FE0
70E0
60E0
E060
C060
C060
C060
C060
E060
E0E0
70E0
3FE0
1E60
0060
0060
00E0
40E0
7FC0
3F00
ENDCHAR
STARTCHAR 0124
ENCODING 292
SWIDTH 680 0
DWIDTH 17 0
BBX 13 24 2 0
BITMAP
0700
0F80
0D80
18C0
0000
0000
C018
C018
C018
C018
C018
C018
C018
FFF8
FFF8
C018
C018
C018
C018
C018
C018
C018
C018
C018
ENDCHAR
STARTCHAR 0125
ENCODING 293
SWIDTH 600 0
DWIDTH 15 0
BBX 14 26 -1 0
BITMAP
1800
3C00
3E00
6700
C100
0000
0000
1800
1800
1800
1800
1800
19F0
1BF8
1E1C
1C1C
1C0C
180C
180C
180C
180C
180C
180C
180C
180C
180C
ENDCHAR
STARTCHAR 0126
ENCODING 294
SWIDTH 720 0
DWIDTH 18 0
BBX 17 18 0 0
BITMAP
300600
300600
300600
FFFF80
FFFF80
300600
300600
3FFE00
3FFE00
300600
300600
300600
300600
300600
300600
300600
300600
300600
ENDCHAR
STARTCHAR 0127
ENCODING 295
SWIDTH 600 0
DWIDTH 15 0
BBX 12 19 1 0
BITMAP
3000
3000
FF80
FF80
3000
33C0
3FE0
3870
3830
3030
3030
3030
3030
3030
3030
3030
3030
3030
3030
ENDCHAR
STARTCHAR 0128
ENCODING 296
SWIDTH 320 0
DWIDTH 8 0
BBX 8 23 0 0
BITMAP
71
FF
8E
00
00
7E
3C
18
18
18
18
18
18
18
18
18
18
18
18
18
18
3C
7E
ENDCHAR
STARTCHAR 0129
ENCODING 297
SWIDTH 240 0
DWIDTH 6 0
BBX 8 18 -1 0
BITMAP
71
FF
8E
00
18
18
18
18
18
18
18
18
18
18
18
18
18
18
ENDCHAR
STARTCHAR 012A
ENCODING 298
SWIDTH 360 0
DWIDTH 9 0
BBX 7 22 1 0
BITMAP
FE
FE
00
00
7E
3C
18
18
18
18
18
18
18
18
18
18
18
18
18
18
3C
7E
ENDCHAR
STARTCHAR 012B
ENCODING 299
SWIDTH 280 0
DWIDTH 7 0
BBX 7 17 0 0
BITMAP
FE
FE
00
18
18
18
18
18
18
18
18
18
18
18
18
18
18
ENDCHAR
STARTCHAR 012C
ENCODING 300
SWIDTH 320 0
DWIDTH 8 0
BBX 8 24 0 0
BITMAP
C3
42
7E
3C
00
00
7E
3C
18
18
18
18
18
18
18
18
18
18
18
18
18
18
3C
7E
ENDCHAR
STARTCHAR 012D
ENCODING 301
SWIDTH 240 0
DWIDTH 6 0
BBX 7 19 0 0
BITMAP
86
86
FC
78
00
30
30
30
30
30
30
30
30
30
30
30
30
30
30
ENDCHAR
STARTCHAR 012E
ENCODING 302
SWIDTH 320 0
DWIDTH 8 0
BBX 6 24 1 -6
BITMAP
FC
78
30
30
30
30
30
30
30
30
30
30
30
30
30
30
78
FC
18
18
30
30
3C
1C
ENDCHAR
STARTCHAR 012F
ENCODING 303
SWIDTH 240 0
DWIDTH 6 0
BBX 3 25 1 -6
BITMAP
60
60
60
00
00
60
60
60
60
60
60
60
60
60
60
60
60
60
60
60
40
C0
C0
E0
60
ENDCHAR
STARTCHAR 0130
ENCODING 304
SWIDTH 320 0
DWIDTH 8 0
BBX 6 24 1 0
BITMAP
30
30
30
00
00
00
FC
78
30
30
30
30
30
30
30
30
30
30
30
30
30
30
78
FC
ENDCHAR
STARTCHAR 0131
ENCODING 305
SWIDTH 240 0
DWIDTH 6 0
BBX 2 14 2 0
BITMAP
C0
C0
C0
C0
C0
C0
C0
C0
C0
C0
C0
C0
C0
C0
ENDCHAR
STARTCHAR 0132
ENCODING 306
SWIDTH 560 0
DWIDTH 14 0
BBX 11 23 1 -5
BITMAP
FC60
7860
3060
3060
3060
3060
3060
3060
3060
3060
3060
3060
3060
3060
3060
3060
7860
FC60
0060
0060
00E0
07C0
0780
ENDCHAR
STARTCHAR 0133
ENCODING 307
SWIDTH 480 0
DWIDTH 12 0
BBX 8 25 2 -6
BITMAP
C3
C3
C3
00
00
C3
C3
C3
C3
C3
C3
C3
C3
C3
C3
C3
C3
C3
C3
03
03
03
03
1F
1E
ENDCHAR
STARTCHAR 0134
ENCODING 308
SWIDTH 240 0
DWIDTH 6 0
BBX 9 29 -2 -5
BITMAP
0E00
1E00
3300
6180
0000
0000
0C00
0C00
0C00
0C00
0C00
0C00
0C00
0C00
0C00
0C00
0C00
0C00
0C00
0C00
0C00
0C00
0C00
0C00
0C00
0C00
1C00
F800
F000
ENDCHAR
STARTCHAR 0135
ENCODING 309
SWIDTH 240 0
DWIDTH 6 0
BBX 9 25 -2 -6
BITMAP
0E00
1E00
3300
4080
0000
0C00
0C00
0C00
0C00
0C00
0C00
0C00
0C00
0C00
0C00
0C00
0C00
0C00
0C00
0C00
0C00
0C00
0C00
FC00
F800
ENDCHAR
STARTCHAR 0136
ENCODING 310
SWIDTH 560 0
DWIDTH 14 0
BBX 12 24 2 -6
BITMAP
C070
C0E0
C1C0
C180
C300
C700
CE00
DC00
DC00
FE00
E600
C700
C380
C180
C1C0
C0E0
C060
C070
0000
0000
0600
0600
0C00
0C00
ENDCHAR
STARTCHAR 0137
ENCODING 311
SWIDTH 520 0
DWIDTH 13 0
BBX 10 25 2 -6
BITMAP
C000
C000
C000
C000
C000
C1C0
C180
C300
C600
CE00
DC00
DC00
FC00
EE00
C700
C300
C380
C1C0
C0C0
0000
0000
0C00
0C00
0800
1800
ENDCHAR
STARTCHAR 0138
ENCODING 312
SWIDTH 520 0
DWIDTH 13 0
BBX 10 14 2 0
BITMAP
C1C0
C380
C300
C600
CE00
DC00
DC00
FC00
EE00
C700
C300
C380
C1C0
C0C0
ENDCHAR
STARTCHAR 0139
ENCODING 313
SWIDTH 480 0
DWIDTH 12 0
BBX 10 24 2 0
BITMAP
7000
6000
C000
8000
0000
0000
C000
C000
C000
C000
C000
C000
C000
C000
C000
C000
C000
C000
C000
C000
C000
C000
FFC0
FFC0
ENDCHAR
STARTCHAR 013A
ENCODING 314
SWIDTH 240 0
DWIDTH 6 0
BBX 5 26 1 0
BITMAP
18
38
30
60
C0
00
00
60
60
60
60
60
60
60
60
60
60
60
60
60
60
60
60
60
60
60
ENDCHAR
STARTCHAR 013B
ENCODING 315
SWIDTH 480 0
DWIDTH 12 0
BBX 10 24 2 -6
BITMAP
C000
C000
C000
C000
C000
C000
C000
C000
C000
C000
C000
C000
C000
C000
C000
C000
FFC0
FFC0
0000
0000
0C00
0C00
1800
1800
ENDCHAR
STARTCHAR 013C
ENCODING 316
SWIDTH 240 0
DWIDTH 6 0
BBX 3 25 1 -6
BITMAP
60
60
60
60
60
60
60
60
60
60
60
60
60
60
60
60
60
60
60
00
00
60
60
40
C0
ENDCHAR
STARTCHAR 013D
ENCODING 317
SWIDTH 520 0
DWIDTH 13 0
BBX 10 18 2 0
BITMAP
C0C0
C180
C180
C100
C000
C000
C000
C000
C000
C000
C000
C000
C000
C000
C000
C000
FFC0
FFC0
ENDCHAR
STARTCHAR 013E
ENCODING 318
SWIDTH 280 0
DWIDTH 7 0
BBX 6 19 2 0
BITMAP
CC
CC
D8
D8
C0
C0
C0
C0
C0
C0
C0
C0
C0
C0
C0
C0
C0
C0
C0
ENDCHAR
STARTCHAR 013F
ENCODING 319
SWIDTH 480 0
DWIDTH 12 0
BBX 10 18 2 0
BITMAP
C000
C000
C000
C000
C000
C000
C000
C300
C300
C300
C000
C000
C000
C000
C000
C000
FFC0
FFC0
ENDCHAR
STARTCHAR 0140
ENCODING 320
SWIDTH 240 0
DWIDTH 6 0
BBX 5 19 2 0
BITMAP
C0
C0
C0
C0
C0
C0
C0
C0
D8
D8
D8
C0
C0
C0
C0
C0
C0
C0
C0
ENDCHAR
STARTCHAR 0141
ENCODING 321
SWIDTH 480 0
DWIDTH 12 0
BBX 12 18 0 0
BITMAP
3000
3000
3000
3000
3000
3000
3000
3300
3E00
3C00
7000
F000
3000
3000
3000
3000
3FF0
3FF0
ENDCHAR
STARTCHAR 0142
ENCODING 322
SWIDTH 240 0
DWIDTH 6 0
BBX 6 19 0 0
BITMAP
30
30
30
30
30
30
30
34
3C
3C
70
F0
30
30
30
30
30
30
30
ENDCHAR
STARTCHAR 0143
ENCODING 323
SWIDTH 720 0
DWIDTH 18 0
BBX 13 24 2 0
BITMAP
0180
0380
0300
0600
0000
0000
E018
F018
F018
D818
D818
CC18
CC18
C618
C618
C318
C318
C198
C1D8
C0D8
C078
C078
C038
C038
ENDCHAR
STARTCHAR 0144
ENCODING 324
SWIDTH 600 0
DWIDTH 15 0
BBX 11 19 2 0
BITMAP
0300
0700
0E00
0800
0000
CF80
DFC0
F0E0
E0E0
E060
C060
C060
C060
C060
C060
C060
C060
C060
C060
ENDCHAR
STARTCHAR 0145
ENCODING 325
SWIDTH 720 0
DWIDTH 18 0
BBX 13 24 2 -6
BITMAP
E018
F018
F018
D818
D818
CC18
CC18
C618
C618
C318
C318
C198
C1D8
C0D8
C078
C078
C038
C038
0000
0000
0300
0200
0600
0400
ENDCHAR
STARTCHAR 0146
ENCODING 326
SWIDTH 600 0
DWIDTH 15 0
BBX 11 20 2 -6
BITMAP
CF80
DFC0
F0E0
E0E0
E060
C060
C060
C060
C060
C060
C060
C060
C060
C060
0000
0000
0E00
0C00
0C00
0800
ENDCHAR
STARTCHAR 0147
ENCODING 327
SWIDTH 720 0
DWIDTH 18 0
BBX 13 24 2 0
BITMAP
18C0
0D80
0780
0700
0000
0000
E018
F018
F018
D818
D818
CC18
CC18
C618
C618
C318
C318
C198
C1D8
C0D8
C078
C078
C038
C038
ENDCHAR
STARTCHAR 0148
ENCODING 328
SWIDTH 600 0
DWIDTH 15 0
BBX 11 19 2 0
BITMAP
7180
3B00
1E00
0E00
0000
CF80
DFC0
F0E0
E0E0
E060
C060
C060
C060
C060
C060
C060
C060
C060
C060
ENDCHAR
STARTCHAR 0149
ENCODING 329
SWIDTH 720 0
DWIDTH 18 0
BBX 15 18 1 0
BITMAP
6000
E000
C000
C000
CCF8
8DFC
0F0E
0E0E
0E06
0C06
0C06
0C06
0C06
0C06
0C06
0C06
0C06
0C06
ENDCHAR
STARTCHAR 014A
ENCODING 330
SWIDTH 720 0
DWIDTH 18 0
BBX 13 23 2 -5
BITMAP
E018
F018
F018
D818
D818
CC18
CE18
C618
C318
C318
C198
C198
C0D8
C0D8
C078
C038
C038
C018
0018
0018
0038
01F0
01E0
ENDCHAR
STARTCHAR 014B
ENCODING 331
SWIDTH 600 0
DWIDTH 15 0
BBX 11 20 2 -6
BITMAP
CF80
DFC0
F0E0
E0E0
E060
C060
C060
C060
C060
C060
C060
C060
C060
C060
0060
0060
0060
00E0
03C0
0380
ENDCHAR
STARTCHAR 014C
ENCODING 332
SWIDTH 720 0
DWIDTH 18 0
BBX 15 23 1 0
BITMAP
0FE0
0FE0
0000
0000
0000
07E0
1FF0
3838
700C
600C
E006
C006
C006
C006
C006
C006
C006
E00E
600C
701C
3838
1FF0
07E0
ENDCHAR
STARTCHAR 014D
ENCODING 333
SWIDTH 560 0
DWIDTH 14 0
BBX 12 18 1 0
BITMAP
3F80
3F80
0000
0000
1F00
3FC0
70E0
6060
E070
C030
C030
C030
C030
E070
6060
70E0
3FC0
1F80
ENDCHAR
STARTCHAR 014E
ENCODING 334
SWIDTH 720 0
DWIDTH 18 0
BBX 15 24 1 0
BITMAP
0820
0FE0
07C0
0000
0000
0000
07E0
1FF0
3838
700C
600C
E006
C006
C006
C006
C006
C006
C006
E00E
600C
701C
3838
1FF0
07E0
ENDCHAR
STARTCHAR 014F
ENCODING 335
SWIDTH 560 0
DWIDTH 14 0
BBX 12 19 1 0
BITMAP
30C0
1F80
0F00
0000
0000
1F00
3FC0
70E0
6060
E070
E030
C030
C030
E030
E070
6060
70E0
3FC0
1F80
ENDCHAR
STARTCHAR 0150
ENCODING 336
SWIDTH 720 0
DWIDTH 18 0
BBX 15 25 1 0
BITMAP
0770
0660
0CC0
0880
0000
0000
0000
07E0
1FF0
3838
700C
600C
E006
C006
C006
C006
C006
C006
C006
E00E
600C
701C
3838
1FF0
07E0
ENDCHAR
STARTCHAR 0151
ENCODING 337
SWIDTH 560 0
DWIDTH 14 0
BBX 12 19 1 0
BITMAP
1CC0
19C0
3180
2300
0000
1F00
3FC0
70E0
6060
E070
C030
C030
C030
C030
E070
6060
70E0
3FC0
1F80
ENDCHAR
STARTCHAR 0152
ENCODING 338
SWIDTH 840 0
DWIDTH 21 0
BBX 19 18 1 0
BITMAP
07FFE0
1FFFE0
383000
703000
603000
E03000
C03000
C03FE0
C03FE0
C03000
C03000
C03000
E03000
603000
703000
383000
1FFFE0
07FFE0
ENDCHAR
STARTCHAR 0153
ENCODING 339
SWIDTH 880 0
DWIDTH 22 0
BBX 20 14 1 0
BITMAP
1F0F80
3F9FC0
70F060
60F070
E06030
C07FF0
C07FF0
C06000
C06000
C07000
60F000
70F800
3F9FE0
1F07C0
ENDCHAR
STARTCHAR 0154
ENCODING 340
SWIDTH 600 0
DWIDTH 15 0
BBX 12 24 2 0
BITMAP
0300
0600
0E00
0C00
0000
0000
FF00
FFC0
C0C0
C0E0
C060
C060
C0E0
C1C0
FF80
FF00
C300
C380
C180
C1C0
C0C0
C0E0
C060
C070
ENDCHAR
STARTCHAR 0155
ENCODING 341
SWIDTH 400 0
DWIDTH 10 0
BBX 7 19 2 0
BITMAP
0E
0C
18
30
00
CE
DE
F0
E0
E0
C0
C0
C0
C0
C0
C0
C0
C0
C0
ENDCHAR
STARTCHAR 0156
ENCODING 342
SWIDTH 600 0
DWIDTH 15 0
BBX 12 24 2 -6
BITMAP
FF00
FFC0
C1C0
C0E0
C060
C060
C060
C0E0
C1C0
FF80
FF00
C300
C180
C1C0
C0C0
C0E0
C060
C070
0000
0000
0600
0C00
0C00
0800
ENDCHAR
STARTCHAR 0157
ENCODING 343
SWIDTH 400 0
DWIDTH 10 0
BBX 8 20 1 -6
BITMAP
67
6F
78
70
70
60
60
60
60
60
60
60
60
60
00
00
60
60
40
C0
ENDCHAR
STARTCHAR 0158
ENCODING 344
SWIDTH 600 0
DWIDTH 15 0
BBX 12 24 2 0
BITMAP
6180
3300
1E00
0E00
0000
0000
FF00
FFC0
C0C0
C0E0
C060
C060
C0E0
C1C0
FF80
FF00
C300
C380
C180
C1C0
C0C0
C0E0
C060
C070
ENDCHAR
STARTCHAR 0159
ENCODING 345
SWIDTH 400 0
DWIDTH 10 0
BBX 8 19 2 0
BITMAP
C3
66
3C
18
00
CE
DE
F0
E0
E0
C0
C0
C0
C0
C0
C0
C0
C0
C0
ENDCHAR
STARTCHAR 015A
ENCODING 346
SWIDTH 520 0
DWIDTH 13 0
BBX 11 25 1 0
BITMAP
0380
0300
0600
0C00
0800
0000
0000
1F80
7FC0
E040
C000
C000
C000
E000
7800
3E00
0F80
03C0
00E0
0060
0060
00E0
80C0
FFC0
7F00
ENDCHAR
STARTCHAR 015B
ENCODING 347
SWIDTH 440 0
DWIDTH 11 0
BBX 9 19 1 0
BITMAP
0600
0C00
1800
1000
0000
3F00
7F00
E100
C000
E000
7000
3C00
0F00
0380
0180
0180
8380
FF00
7E00
ENDCHAR
STARTCHAR 015C
ENCODING 348
SWIDTH 520 0
DWIDTH 13 0
BBX 11 25 1 0
BITMAP
0E00
0E00
1B00
3180
60C0
0000
0000
1F80
7FC0
E040
C000
C000
C000
E000
7800
3E00
0F80
03C0
00E0
0060
0060
00E0
80C0
FFC0
7F00
ENDCHAR
STARTCHAR 015D
ENCODING 349
SWIDTH 440 0
DWIDTH 11 0
BBX 9 19 1 0
BITMAP
1C00
3E00
6700
C100
0000
3F00
7F00
E100
C000
E000
7000
3C00
0F00
0380
0180
0180
8380
FF00
7E00
ENDCHAR
STARTCHAR 015E
ENCODING 350
SWIDTH 520 0
DWIDTH 13 0
BBX 11 24 1 -6
BITMAP
1F80
7FC0
E040
C000
C000
C000
E000
7800
3E00
0F80
03C0
00E0
0060
0060
00E0
80C0
FFC0
7F00
0C00
0E00
0700
0300
1F00
1E00
ENDCHAR
STARTCHAR 015F
ENCODING 351
SWIDTH 440 0
DWIDTH 11 0
BBX 9 20 1 -6
BITMAP
3F00
7F80
E100
C000
E000
7000
3C00
0F00
0380
0180
0180
8380
FF00
7E00
1800
1C00
0600
0600
3E00
3C00
ENDCHAR
STARTCHAR 0160
ENCODING 352
SWIDTH 520 0
DWIDTH 13 0
BBX 11 25 1 0
BITMAP
60C0
3180
1B00
0F00
0E00
0000
0000
1F80
7FC0
E040
C000
C000
C000
E000
7800
3E00
0F80
03C0
00E0
0060
0060
00E0
80C0
FFC0
7F00
ENDCHAR
STARTCHAR 0161
ENCODING 353
SWIDTH 440 0
DWIDTH 11 0
BBX 9 19 1 0
BITMAP
6300
3600
1C00
1C00
0000
3F00
7F00
E100
C000
E000
7000
3C00
0F00
0380
0180
0180
8380
FF00
7E00
ENDCHAR
STARTCHAR 0162
ENCODING 354
SWIDTH 600 0
DWIDTH 15 0
BBX 13 24 1 -6
BITMAP
FFF8
FFF8
0600
0600
0600
0600
0600
0600
0600
0600
0600
0600
0600
0600
0600
0600
0600
0600
0600
0600
0380
0180
0780
0F00
ENDCHAR
STARTCHAR 0163
ENCODING 355
SWIDTH 400 0
DWIDTH 10 0
BBX 8 23 1 -6
BITMAP
30
30
30
FF
FF
30
30
30
30
30
30
30
30
30
38
3F
1F
08
1C
06
06
3E
3C
ENDCHAR
STARTCHAR 0164
ENCODING 356
SWIDTH 600 0
DWIDTH 15 0
BBX 13 24 1 0
BITMAP
30C0
1980
0F00
0700
0000
0000
FFF8
FFF8
0600
0600
0600
0600
0600
0600
0600
0600
0600
0600
0600
0600
0600
0600
0600
0600
ENDCHAR
STARTCHAR 0165
ENCODING 357
SWIDTH 400 0
DWIDTH 10 0
BBX 11 19 1 0
BITMAP
0060
0060
0040
30C0
3000
7F00
FF00
3000
3000
3000
3000
3000
3000
3000
3000
3000
3800
3F00
0F00
ENDCHAR
STARTCHAR 0166
ENCODING 358
SWIDTH 600 0
DWIDTH 15 0
BBX 13 18 1 0
BITMAP
FFF8
FFF8
0600
0600
0600
0600
0600
0600
3FE0
3FE0
0600
0600
0600
0600
0600
0600
0600
0600
ENDCHAR
STARTCHAR 0167
ENCODING 359
SWIDTH 400 0
DWIDTH 10 0
BBX 8 17 1 0
BITMAP
30
30
30
FF
FF
30
30
30
FF
FF
30
30
30
30
38
3F
1F
ENDCHAR
STARTCHAR 0168
ENCODING 360
SWIDTH 680 0
DWIDTH 17 0
BBX 13 24 2 0
BITMAP
0C20
1E60
33C0
3180
0000
0000
C018
C018
C018
C018
C018
C018
C018
C018
C018
C018
C018
C018
C018
E038
6030
7070
3FE0
0F80
ENDCHAR
STARTCHAR 0169
ENCODING 361
SWIDTH 600 0
DWIDTH 15 0
BBX 11 18 2 0
BITMAP
3FC0
7F80
0000
0000
C060
C060
C060
C060
C060
C060
C060
C060
C060
C0E0
C0E0
E1E0
7F60
3E60
ENDCHAR
STARTCHAR 016A
ENCODING 362
SWIDTH 680 0
DWIDTH 17 0
BBX 13 22 2 0
BITMAP
1FC0
1FC0
0000
0000
C018
C018
C018
C018
C018
C018
C018
C018
C018
C018
C018
C018
C018
E038
6030
7070
3FE0
0F80
ENDCHAR
STARTCHAR 016B
ENCODING 363
SWIDTH 600 0
DWIDTH 15 0
BBX 11 18 2 0
BITMAP
3F80
3F80
0000
0000
C060
C060
C060
C060
C060
C060
C060
C060
C060
C0E0
C0E0
E1E0
7F60
3E60
ENDCHAR
STARTCHAR 016C
ENCODING 364
SWIDTH 680 0
DWIDTH 17 0
BBX 13 24 2 0
BITMAP
1040
18C0
1F80
0700
0000
0000
C018
C018
C018
C018
C018
C018
C018
C018
C018
C018
C018
C018
C018
E038
6030
7070
3FE0
0F80
ENDCHAR
STARTCHAR 016D
ENCODING 365
SWIDTH 600 0
DWIDTH 15 0
BBX 11 19 2 0
BITMAP
2080
3F80
1F00
0000
0000
C060
C060
C060
C060
C060
C060
C060
C060
C060
C0E0
C0E0
E1E0
7F60
3E60
ENDCHAR
STARTCHAR 016E
ENCODING 366
SWIDTH 680 0
DWIDTH 17 0
BBX 13 26 2 0
BITMAP
0700
0D80
0880
0880
0F80
0700
0000
0000
C018
C018
C018
C018
C018
C018
C018
C018
C018
C018
C018
C018
C018
E038
6030
7070
3FE0
0F80
ENDCHAR
STARTCHAR 016F
ENCODING 367
SWIDTH 600 0
DWIDTH 15 0
BBX 11 21 2 0
BITMAP
0E00
1B00
1100
1300
1F00
0E00
0000
C060
C060
C060
C060
C060
C060
C060
C060
C060
C0E0
C0E0
E1E0
7F60
3E60
ENDCHAR
STARTCHAR 0170
ENCODING 368
SWIDTH 680 0
DWIDTH 17 0
BBX 13 24 2 0
BITMAP
0CE0
0CC0
1980
3100
0000
0000
C018
C018
C018
C018
C018
C018
C018
C018
C018
C018
C018
C018
C018
E038
6030
7070
3FE0
0F80
ENDCHAR
STARTCHAR 0171
ENCODING 369
SWIDTH 600 0
DWIDTH 15 0
BBX 11 19 2 0
BITMAP
1DC0
3980
3300
6200
0000
C060
C060
C060
C060
C060
C060
C060
C060
C060
C0E0
C0E0
E1E0
7F60
3E60
ENDCHAR
STARTCHAR 0172
ENCODING 370
SWIDTH 720 0
DWIDTH 18 0
BBX 13 24 2 -6
BITMAP
C018
C018
C018
C018
C018
C018
C018
C018
C018
C018
C018
C018
C018
E038
6038
7070
3FE0
0FC0
00C0
0180
0180
0180
01E0
00E0
ENDCHAR
STARTCHAR 0173
ENCODING 371
SWIDTH 600 0
DWIDTH 15 0
BBX 11 20 2 -6
BITMAP
C060
C060
C060
C060
C060
C060
C060
C060
C060
C0E0
C0E0
E1E0
7F60
3E60
00C0
00C0
0180
0180
01E0
00E0
ENDCHAR
STARTCHAR 0174
ENCODING 372
SWIDTH 880 0
DWIDTH 22 0
BBX 22 24 0 0
BITMAP
007000
007800
00CC00
018600
000000
000000
E0301C
607018
607818
607818
707838
30CC30
30CC30
30CC30
39CC70
198660
198660
198660
1B06E0
0F03C0
0F03C0
0F03C0
0E03C0
060180
ENDCHAR
STARTCHAR 0175
ENCODING 373
SWIDTH 760 0
DWIDTH 19 0
BBX 18 19 0 0
BITMAP
00E000
01F000
033800
060800
000000
E0E0C0
60E0C0
61E0C0
61A180
71B180
31B180
333180
331B00
331B00
1A1B00
1E1B00
1E0A00
1E0E00
0C0E00
ENDCHAR
STARTCHAR 0176
ENCODING 374
SWIDTH 560 0
DWIDTH 14 0
BBX 13 24 1 0
BITMAP
0600
0F00
1980
30C0
0000
0000
C038
E030
6070
6060
30E0
30C0
19C0
1980
0F80
0F00
0700
0600
0600
0600
0600
0600
0600
0600
ENDCHAR
STARTCHAR 0177
ENCODING 375
SWIDTH 480 0
DWIDTH 12 0
BBX 12 25 0 -6
BITMAP
0E00
1F00
3980
0000
0000
C070
E060
6060
60E0
70C0
30C0
31C0
3980
1980
1B80
0F00
0F00
0F00
0600
0600
0C00
0C00
1C00
F800
F000
ENDCHAR
STARTCHAR 0178
ENCODING 376
SWIDTH 520 0
DWIDTH 13 0
BBX 13 23 0 0
BITMAP
18C0
18C0
18C0
0000
0000
C018
E038
6030
7070
3060
38C0
18C0
1D80
0D80
0F00
0700
0700
0700
0700
0700
0700
0700
0700
ENDCHAR
STARTCHAR 0179
ENCODING 377
SWIDTH 520 0
DWIDTH 13 0
BBX 11 24 1 0
BITMAP
0380
0700
0600
0C00
0000
0000
FFE0
FFE0
00C0
01C0
0180
0380
0300
0700
0600
0C00
1C00
1800
3800
3000
6000
6000
FFE0
FFE0
ENDCHAR
STARTCHAR 017A
ENCODING 378
SWIDTH 440 0
DWIDTH 11 0
BBX 9 19 1 0
BITMAP
0600
0C00
1800
0000
0000
FF80
FF80
0380
0700
0600
0E00
0C00
1800
3800
3000
6000
6000
FF80
FF80
ENDCHAR
STARTCHAR 017B
ENCODING 379
SWIDTH 520 0
DWIDTH 13 0
BBX 11 24 1 0
BITMAP
0600
0600
0600
0000
0000
0000
FFE0
FFE0
00C0
00C0
0180
0380
0300
0700
0600
0C00
1C00
1800
3800
3000
7000
6000
FFE0
FFE0
ENDCHAR
STARTCHAR 017C
ENCODING 380
SWIDTH 440 0
DWIDTH 11 0
BBX 9 19 1 0
BITMAP
0C00
0C00
0C00
0000
0000
FF80
FF80
0380
0300
0600
0E00
0C00
1C00
3800
3000
7000
6000
FF80
FF80
ENDCHAR
STARTCHAR 017D
ENCODING 381
SWIDTH 520 0
DWIDTH 13 0
BBX 11 24 1 0
BITMAP
3180
1B80
1F00
0E00
0000
0000
FFE0
FFE0
00C0
01C0
0180
0380
0300
0700
0600
0C00
1C00
1800
3800
3000
6000
6000
FFE0
FFE0
ENDCHAR
STARTCHAR 017E
ENCODING 382
SWIDTH 440 0
DWIDTH 11 0
BBX 9 19 1 0
BITMAP
E300
7600
3C00
0000
0000
FF80
FF80
0380
0700
0600
0E00
0C00
1800
3800
3000
6000
6000
FF80
FF80
ENDCHAR
STARTCHAR 017F
ENCODING 383
SWIDTH 320 0
DWIDTH 8 0
BBX 7 19 2 0
BITMAP
3E
7C
E0
C0
C0
C0
C0
C0
C0
C0
C0
C0
C0
C0
C0
C0
C0
C0
C0
ENDCHAR
STARTCHAR 0180
ENCODING 384
SWIDTH 600 0
DWIDTH 15 0
BBX 13 19 1 0
BITMAP
3000
FF80
FF80
3000
3000
33C0
3FE0
3870
3830
3038
3018
3018
3018
3018
3038
3838
3870
3FE0
23C0
ENDCHAR
STARTCHAR 0181
ENCODING 385
SWIDTH 720 0
DWIDTH 18 0
BBX 16 18 1 0
BITMAP
7FF8
FFFC
CC0E
CC06
0C06
0C06
0C0E
0FF8
0FFC
0C0E
0C07
0C03
0C03
0C03
0C07
0C0E
0FFC
0FF8
ENDCHAR
STARTCHAR 0182
ENCODING 386
SWIDTH 560 0
DWIDTH 14 0
BBX 11 18 2 0
BITMAP
FFC0
FFC0
C000
C000
C000
C000
C000
FF00
FF80
C1C0
C0E0
C060
C060
C060
C0E0
C1C0
FFC0
FF00
ENDCHAR
STARTCHAR 0183
ENCODING 387
SWIDTH 600 0
DWIDTH 15 0
BBX 11 19 2 0
BITMAP
FFC0
FFC0
C000
C000
C000
CF00
DFC0
F0C0
E0E0
C060
C060
C060
C060
C060
C060
E0E0
F0C0
DFC0
CF00
ENDCHAR
STARTCHAR 0184
ENCODING 388
SWIDTH 600 0
DWIDTH 15 0
BBX 12 18 2 0
BITMAP
C000
C000
C000
C000
C000
C000
C000
FF00
FFC0
C0E0
C070
C030
C030
C030
E070
60E0
7FE0
1F80
ENDCHAR
STARTCHAR 0185
ENCODING 389
SWIDTH 600 0
DWIDTH 15 0
BBX 11 19 2 0
BITMAP
C000
C000
C000
C000
C000
CF00
DFC0
F0C0
E0E0
C060
C060
C060
C060
C060
E060
E0E0
70C0
3FC0
1F00
ENDCHAR
STARTCHAR 0186
ENCODING 390
SWIDTH 600 0
DWIDTH 15 0
BBX 12 18 1 0
BITMAP
7F00
FF80
41C0
00E0
0060
0070
0030
0030
0030
0030
0030
0030
0070
0060
00E0
81C0
FF80
7F00
ENDCHAR
STARTCHAR 0187
ENCODING 391
SWIDTH 600 0
DWIDTH 15 0
BBX 15 22 1 0
BITMAP
000E
001E
0018
0018
07F8
1FF8
3810
7000
6000
E000
E000
C000
C000
C000
C000
C000
E000
6000
7000
3800
1FF0
07F0
ENDCHAR
STARTCHAR 0188
ENCODING 392
SWIDTH 480 0
DWIDTH 12 0
BBX 12 19 1 0
BITMAP
00F0
01F0
0180
0180
0180
1F80
3F80
7000
6000
E000
C000
C000
C000
C000
E000
6000
7000
3F80
1F80
ENDCHAR
STARTCHAR 0189
ENCODING 393
SWIDTH 680 0
DWIDTH 17 0
BBX 15 18 1 0
BITMAP
3FC0
3FF0
3038
301C
300C
300E
3006
3006
FF06
FF06
3006
300E
300E
300C
301C
3078
3FF0
3FC0
ENDCHAR
STARTCHAR 018A
ENCODING 394
SWIDTH 800 0
DWIDTH 20 0
BBX 17 18 1 0
BITMAP
7FF000
FFFC00
CC0E00
CC0700
CC0300
0C0380
0C0180
0C0180
0C0180
0C0180
0C0180
0C0180
0C0380
0C0300
0C0700
0C0E00
0FFC00
0FF000
ENDCHAR
STARTCHAR 018B
ENCODING 395
SWIDTH 560 0
DWIDTH 14 0
BBX 11 18 1 0
BITMAP
7FE0
7FE0
0060
0060
0060
0060
0060
0FE0
3FE0
7060
E060
C060
C060
C060
E060
7060
7FE0
1FE0
ENDCHAR
STARTCHAR 018C
ENCODING 396
SWIDTH 560 0
DWIDTH 14 0
BBX 11 19 1 0
BITMAP
7FE0
7FE0
0060
0060
0060
1E60
3FE0
70E0
E0E0
E060
C060
C060
C060
C060
E060
E0E0
70E0
3FE0
1E60
ENDCHAR
STARTCHAR 018D
ENCODING 397
SWIDTH 560 0
DWIDTH 14 0
BBX 12 20 1 -6
BITMAP
1F80
3FC0
70E0
E070
C030
C030
C030
C070
E060
60E0
79C0
3F00
0F00
0780
01C0
00C0
00C0
61C0
7F80
1F00
ENDCHAR
STARTCHAR 018E
ENCODING 398
SWIDTH 520 0
DWIDTH 13 0
BBX 9 18 1 0
BITMAP
FF80
FF80
0180
0180
0180
0180
0180
FF80
FF80
0180
0180
0180
0180
0180
0180
0180
FF80
FF80
ENDCHAR
STARTCHAR 018F
ENCODING 399
SWIDTH 680 0
DWIDTH 17 0
BBX 14 18 1 0
BITMAP
3F80
7FE0
4070
0018
0018
000C
000C
000C
FFFC
FFFC
C00C
C00C
E00C
601C
6018
3070
3FE0
0FC0
ENDCHAR
STARTCHAR 0190
ENCODING 400
SWIDTH 560 0
DWIDTH 14 0
BBX 12 18 1 0
BITMAP
1F80
3FE0
7060
6000
6000
6000
3000
1FC0
3FC0
7000
E000
C000
C000
C000
E000
7030
3FF0
1FC0
ENDCHAR
STARTCHAR 0191
ENCODING 401
SWIDTH 480 0
DWIDTH 12 0
BBX 13 24 -1 -6
BITMAP
1FF8
1FF8
1800
1800
1800
1800
1800
1800
1FF0
1FF0
1800
1800
1800
1800
1800
1800
1800
1800
1800
1800
1800
1800
F800
F000
ENDCHAR
STARTCHAR 0192
ENCODING 402
SWIDTH 560 0
DWIDTH 14 0
BBX 10 24 2 -6
BITMAP
07C0
0FC0
0C00
0C00
0C00
0C00
3F80
7F80
0C00
0C00
0C00
0C00
0C00
0C00
0C00
0C00
0C00
0C00
0C00
0C00
0C00
1C00
F800
F000
ENDCHAR
STARTCHAR 0193
ENCODING 403
SWIDTH 680 0
DWIDTH 17 0
BBX 16 22 1 0
BITMAP
0007
000F
000C
000C
07FC
1FFC
3C08
7000
6000
E000
E000
C000
C0FC
C0FC
C00C
C00C
E00C
600C
700C
380C
1FFC
07F8
ENDCHAR
STARTCHAR 0194
ENCODING 404
SWIDTH 560 0
DWIDTH 14 0
BBX 14 24 0 -6
BITMAP
E01C
6018
6018
7038
3030
3030
3870
1860
1860
1CE0
0CC0
0DC0
0780
0780
0780
0780
0780
0780
0FC0
0CC0
0CC0
0CC0
0FC0
0780
ENDCHAR
STARTCHAR 0195
ENCODING 405
SWIDTH 880 0
DWIDTH 22 0
BBX 18 19 2 0
BITMAP
C00000
C00000
C00000
C00000
C00000
CF00C0
DF80C0
F1C0C0
E0C0C0
C0C0C0
C0C0C0
C0C0C0
C0C0C0
C0C0C0
C0C0C0
C0C0C0
C0E1C0
C07F80
C03F00
ENDCHAR
STARTCHAR 0196
ENCODING 406
SWIDTH 360 0
DWIDTH 9 0
BBX 6 18 2 0
BITMAP
C0
C0
C0
C0
C0
C0
C0
C0
C0
C0
C0
C0
C0
C0
C0
E0
7C
3C
ENDCHAR
STARTCHAR 0197
ENCODING 407
SWIDTH 320 0
DWIDTH 8 0
BBX 6 18 1 0
BITMAP
FC
78
30
30
30
30
30
30
FC
FC
30
30
30
30
30
30
78
FC
ENDCHAR
STARTCHAR 0198
ENCODING 408
SWIDTH 600 0
DWIDTH 15 0
BBX 12 18 2 0
BITMAP
C070
C0F0
C1C0
C380
C300
C600
CE00
DC00
DC00
FE00
E600
C700
C380
C180
C1C0
C0E0
C060
C070
ENDCHAR
STARTCHAR 0199
ENCODING 409
SWIDTH 520 0
DWIDTH 13 0
BBX 10 19 2 0
BITMAP
7800
F800
C000
C000
C000
C1C0
C380
C300
C600
CC00
DC00
D800
FC00
EE00
C600
C300
C380
C1C0
C0C0
ENDCHAR
STARTCHAR 019A
ENCODING 410
SWIDTH 320 0
DWIDTH 8 0
BBX 6 19 1 0
BITMAP
30
30
30
30
30
30
30
30
FC
FC
30
30
30
30
30
30
30
30
30
ENDCHAR
STARTCHAR 019B
ENCODING 411
SWIDTH 520 0
DWIDTH 13 0
BBX 13 19 0 0
BITMAP
7800
7C00
0F80
3F00
3600
0600
0700
0700
0F00
0D80
1980
1980
38C0
30C0
30C0
6060
6060
E078
C038
ENDCHAR
STARTCHAR 019C
ENCODING 412
SWIDTH 960 0
DWIDTH 24 0
BBX 20 18 2 0
BITMAP
C06070
C06070
C06070
C06070
C06070
C06070
C06070
C06070
C06070
C06070
C06070
C06070
C06070
C0E070
E0E070
E1F0F0
7F3FB0
3E1E30
ENDCHAR
STARTCHAR 019D
ENCODING 413
SWIDTH 720 0
DWIDTH 18 0
BBX 16 24 -1 -6
BITMAP
1C03
1E03
1E03
1B03
1B03
1983
1983
18C3
18C3
1863
1863
1833
183B
181B
180F
180F
1807
1807
1800
1800
1800
1800
F800
F000
ENDCHAR
STARTCHAR 019E
ENCODING 414
SWIDTH 600 0
DWIDTH 15 0
BBX 11 20 2 -6
BITMAP
CF80
DFC0
F0E0
E0E0
E060
C060
C060
C060
C060
C060
C060
C060
C060
C060
0060
0060
0060
0060
0060
0060
ENDCHAR
STARTCHAR 019F
ENCODING 415
SWIDTH 720 0
DWIDTH 18 0
BBX 15 18 1 0
BITMAP
07E0
1FF0
3818
700C
600C
E006
C006
FFFE
FFFE
C006
C006
C006
E00E
600C
701C
3838
1FF0
07E0
ENDCHAR
STARTCHAR 01A0
ENCODING 416
SWIDTH 720 0
DWIDTH 18 0
BBX 17 19 1 0
BITMAP
000180
07E180
1FF180
383F00
700E00
600E00
E00600
C00600
C00600
C00600
C00600
C00600
C00600
E00600
600C00
700C00
383800
1FF000
07E000
ENDCHAR
STARTCHAR 01A1
ENCODING 417
SWIDTH 600 0
DWIDTH 15 0
BBX 14 16 1 0
BITMAP
000C
000C
1F0C
3FD8
70F0
6060
E070
C030
C030
C030
C030
E070
6060
70E0
3FC0
1F80
ENDCHAR
STARTCHAR 01A2
ENCODING 418
SWIDTH 1000 0
DWIDTH 25 0
BBX 22 18 1 0
BITMAP
07C1F0
1FF3F8
383E1C
701C1C
600C0C
E00E0C
C0060C
C0060C
C0060C
C0060C
C0060C
C00E0C
E00E0C
600C0C
701C0C
38380C
1FF00C
07C00C
ENDCHAR
STARTCHAR 01A3
ENCODING 419
SWIDTH 800 0
DWIDTH 20 0
BBX 17 20 1 -6
BITMAP
1F1E00
3FBF00
71E380
60C180
E0E180
C06180
C06180
C06180
C06180
E0E180
60C180
71C180
3F8180
1F0180
000180
000180
000180
000180
000180
000180
ENDCHAR
STARTCHAR 01A4
ENCODING 420
SWIDTH 680 0
DWIDTH 17 0
BBX 15 18 1 0
BITMAP
7FF0
FFFC
CC1C
CC0E
CC06
0C06
0C06
0C0E
0C1C
0FF8
0FE0
0C00
0C00
0C00
0C00
0C00
0C00
0C00
ENDCHAR
STARTCHAR 01A5
ENCODING 421
SWIDTH 600 0
DWIDTH 15 0
BBX 11 25 2 -6
BITMAP
7800
F800
C000
C000
C000
CF00
DFC0
F0C0
E0E0
C060
C060
C060
C060
C060
C060
E0E0
F0C0
DFC0
CF00
C000
C000
C000
C000
C000
C000
ENDCHAR
STARTCHAR 01A6
ENCODING 422
SWIDTH 600 0
DWIDTH 15 0
BBX 12 21 2 -3
BITMAP
C000
C000
FF00
FFC0
C1C0
C0E0
C060
C060
C060
C0E0
C1C0
FF80
FF00
C300
C380
C180
C0C0
C0E0
0060
0070
0030
ENDCHAR
STARTCHAR 01A7
ENCODING 423
SWIDTH 520 0
DWIDTH 13 0
BBX 11 18 1 0
BITMAP
3F00
7FC0
00E0
0060
0060
0060
00E0
03C0
0F80
3E00
7800
E000
C000
C000
C000
6020
7FE0
1FC0
ENDCHAR
STARTCHAR 01A8
ENCODING 424
SWIDTH 440 0
DWIDTH 11 0
BBX 9 14 1 0
BITMAP
3E00
7F80
4180
0180
0180
0780
1F00
7800
E000
C000
C000
E080
7F80
3F00
ENDCHAR
STARTCHAR 01A9
ENCODING 425
SWIDTH 560 0
DWIDTH 14 0
BBX 12 18 1 0
BITMAP
FFE0
FFE0
6000
7000
3800
1800
0C00
0600
0700
0600
0C00
1C00
1800
3000
7000
E000
FFF0
FFF0
ENDCHAR
STARTCHAR 01AA
ENCODING 426
SWIDTH 360 0
DWIDTH 9 0
BBX 10 25 0 -6
BITMAP
7800
FC00
CC00
FC00
7C00
0C00
0C00
0C00
0C00
0C00
0C00
0C00
0C00
0C00
0C00
0C00
0C00
0C00
0C00
0C00
0C00
0C00
0E00
07C0
03C0
ENDCHAR
STARTCHAR 01AB
ENCODING 427
SWIDTH 400 0
DWIDTH 10 0
BBX 8 23 1 -6
BITMAP
30
30
30
FF
FF
30
30
30
30
30
30
30
30
30
30
3F
1F
03
03
03
03
1F
1E
ENDCHAR
STARTCHAR 01AC
ENCODING 428
SWIDTH 600 0
DWIDTH 15 0
BBX 13 18 1 0
BITMAP
7FF8
FFF8
C300
C300
0300
0300
0300
0300
0300
0300
0300
0300
0300
0300
0300
0300
0300
0300
ENDCHAR
STARTCHAR 01AD
ENCODING 429
SWIDTH 400 0
DWIDTH 10 0
BBX 8 19 1 0
BITMAP
1F
3F
30
30
30
FF
FF
30
30
30
30
30
30
30
30
30
38
3F
0F
ENDCHAR
STARTCHAR 01AE
ENCODING 430
SWIDTH 600 0
DWIDTH 15 0
BBX 13 24 1 -6
BITMAP
FFF8
FFF8
0600
0600
0600
0600
0600
0600
0600
0600
0600
0600
0600
0600
0600
0600
0600
0600
0600
0600
0600
0700
07C0
03C0
ENDCHAR
STARTCHAR 01AF
ENCODING 431
SWIDTH 760 0
DWIDTH 19 0
BBX 17 19 2 0
BITMAP
000180
C01980
C01B80
C01F00
C01E00
C01800
C01800
C01800
C01800
C01800
C01800
C01800
C01800
C01800
E03800
603000
707000
3FE000
0FC000
ENDCHAR
STARTCHAR 01B0
ENCODING 432
SWIDTH 640 0
DWIDTH 16 0
BBX 15 16 2 0
BITMAP
000E
000E
C06C
C07C
C078
C060
C060
C060
C060
C060
C060
C0E0
C0E0
E1E0
7F60
3E60
ENDCHAR
STARTCHAR 01B1
ENCODING 433
SWIDTH 760 0
DWIDTH 19 0
BBX 17 18 1 0
BITMAP
FE3F80
FE3F80
0C1800
180C00
300E00
300600
600700
600300
600300
600300
600300
600300
600700
700600
300E00
381C00
1FF800
07E000
ENDCHAR
STARTCHAR 01B2
ENCODING 434
SWIDTH 680 0
DWIDTH 17 0
BBX 13 18 2 0
BITMAP
C1F0
C1F8
C038
C018
C018
C018
C018
C018
C018
C018
C018
C018
C018
E038
6030
7070
3FE0
0F80
ENDCHAR
STARTCHAR 01B3
ENCODING 435
SWIDTH 560 0
DWIDTH 14 0
BBX 13 18 0 0
BITMAP
E018
F018
3838
1830
1870
0C60
0CE0
0EC0
07C0
0780
0380
0300
0300
0300
0300
0300
0300
0300
ENDCHAR
STARTCHAR 01B4
ENCODING 436
SWIDTH 560 0
DWIDTH 14 0
BBX 13 20 1 -6
BITMAP
C038
E078
6060
60C0
70C0
30C0
3180
3980
1980
1B00
0B00
0F00
0E00
0600
0600
0C00
0C00
1C00
F800
F000
ENDCHAR
STARTCHAR 01B5
ENCODING 437
SWIDTH 520 0
DWIDTH 13 0
BBX 11 18 1 0
BITMAP
FFE0
FFE0
0060
00C0
0180
0180
0300
7FE0
7FE0
0E00
1C00
1800
3800
3000
7000
6000
FFE0
FFE0
ENDCHAR
STARTCHAR 01B6
ENCODING 438
SWIDTH 480 0
DWIDTH 12 0
BBX 10 14 1 0
BITMAP
7FC0
7FC0
0180
0380
0700
0600
7F80
7F80
1800
3800
7000
6000
FFC0
FFC0
ENDCHAR
STARTCHAR 01B7
ENCODING 439
SWIDTH 560 0
DWIDTH 14 0
BBX 12 18 0 0
BITMAP
7FE0
7FE0
00C0
0180
0300
0600
0C00
1F80
1FE0
00E0
0070
0030
0030
0030
0070
C0E0
FFC0
3F80
ENDCHAR
STARTCHAR 01B8
ENCODING 440
SWIDTH 520 0
DWIDTH 13 0
BBX 12 18 1 0
BITMAP
7FE0
7FE0
3000
1800
0C00
0600
1F00
3F00
7000
E000
C000
C000
C000
C000
E000
7030
3FF0
1FC0
ENDCHAR
STARTCHAR 01B9
ENCODING 441
SWIDTH 480 0
DWIDTH 12 0
BBX 11 20 1 -6
BITMAP
FFC0
FFC0
7000
3000
1800
1C00
0E00
0700
1F00
3F00
7000
E000
C000
C000
C000
C000
E000
7060
3FE0
1FC0
ENDCHAR
STARTCHAR 01BA
ENCODING 442
SWIDTH 480 0
DWIDTH 12 0
BBX 10 20 1 -6
BITMAP
FF80
FF80
0300
0600
0C00
1C00
3F00
3F80
01C0
01C0
00C0
00C0
01C0
0180
3F80
FE00
C000
C000
FF00
3F00
ENDCHAR
STARTCHAR 01BB
ENCODING 443
SWIDTH 520 0
DWIDTH 13 0
BBX 11 19 1 0
BITMAP
1F00
7F80
61C0
00C0
00C0
00C0
01C0
0180
7FE0
7FE0
0600
0E00
1C00
1800
3800
7000
E000
FFE0
FFE0
ENDCHAR
STARTCHAR 01BC
ENCODING 444
SWIDTH 560 0
DWIDTH 14 0
BBX 11 18 1 0
BITMAP
FFE0
FFE0
3000
3000
3000
3000
3F00
3F80
01C0
00E0
0060
0060
0060
0060
00E0
81C0
FF80
7F00
ENDCHAR
STARTCHAR 01BD
ENCODING 445
SWIDTH 480 0
DWIDTH 12 0
BBX 10 14 1 0
BITMAP
FF80
FF80
3000
3000
3000
3F00
3F80
01C0
00C0
00C0
00C0
8180
FF80
7E00
ENDCHAR
STARTCHAR 01BE
ENCODING 446
SWIDTH 440 0
DWIDTH 11 0
BBX 9 17 1 0
BITMAP
1000
3000
3000
7F00
FF00
3000
3000
3000
3800
3C00
0F00
0380
0180
0180
8380
FF00
7E00
ENDCHAR
STARTCHAR 01BF
ENCODING 447
SWIDTH 560 0
DWIDTH 14 0
BBX 11 20 2 -6
BITMAP
CF00
DFC0
F1C0
E0E0
C060
C060
C060
C0E0
C0E0
C0C0
C1C0
C780
FF00
F800
C000
C000
C000
C000
C000
C000
ENDCHAR
STARTCHAR 01C0
ENCODING 448
SWIDTH 320 0
DWIDTH 8 0
BBX 2 19 3 0
BITMAP
C0
C0
C0
C0
C0
C0
C0
C0
C0
C0
C0
C0
C0
C0
C0
C0
C0
C0
C0
ENDCHAR
STARTCHAR 01C1
ENCODING 449
SWIDTH 560 0
DWIDTH 14 0
BBX 8 19 3 0
BITMAP
C3
C3
C3
C3
C3
C3
C3
C3
C3
C3
C3
C3
C3
C3
C3
C3
C3
C3
C3
ENDCHAR
STARTCHAR 01C2
ENCODING 450
SWIDTH 480 0
DWIDTH 12 0
BBX 9 19 1 0
BITMAP
0C00
0C00
0C00
0C00
0C00
0C00
FF80
FF80
0C00
0C00
FF80
FF80
0C00
0C00
0C00
0C00
0C00
0C00
0C00
ENDCHAR
STARTCHAR 01C3
ENCODING 451
SWIDTH 280 0
DWIDTH 7 0
BBX 3 18 2 0
BITMAP
60
60
60
60
60
60
60
60
60
60
60
60
60
00
00
E0
E0
E0
ENDCHAR
STARTCHAR 01C4
ENCODING 452
SWIDTH 1200 0
DWIDTH 30 0
BBX 27 24 2 0
BITMAP
000018C0
00000DC0
00000F80
00000700
00000000
00000000
FF00FFE0
FFC0FFE0
C0E000E0
C07001C0
C0300180
C0380380
C0180300
C0180700
C0180600
C0180C00
C0181C00
C0181800
C0383800
C0303000
C0706000
C0E0E000
FFC0FFE0
FF00FFE0
ENDCHAR
STARTCHAR 01C5
ENCODING 453
SWIDTH 1120 0
DWIDTH 28 0
BBX 25 19 2 0
BITMAP
00007180
FF003B00
FFC01E00
C0E00E00
C0700000
C030FF80
C038FF80
C0180380
C0180300
C0180600
C0180E00
C0180C00
C0181800
C0383800
C0303000
C0706000
C0E06000
FFC0FF80
FF00FF80
ENDCHAR
STARTCHAR 01C6
ENCODING 454
SWIDTH 1000 0
DWIDTH 25 0
BBX 23 19 1 0
BITMAP
006186
0060EC
006078
006030
006000
1E63FE
3FE3FE
70E00E
E0E01C
E06018
C06038
C06030
C06060
C060E0
E060C0
E0E180
70E380
3FE3FE
1E63FE
ENDCHAR
STARTCHAR 01C7
ENCODING 455
SWIDTH 720 0
DWIDTH 18 0
BBX 14 23 2 -5
BITMAP
C00C
C00C
C00C
C00C
C00C
C00C
C00C
C00C
C00C
C00C
C00C
C00C
C00C
C00C
C00C
C00C
FF8C
FF8C
000C
000C
001C
00F8
00F0
ENDCHAR
STARTCHAR 01C8
ENCODING 456
SWIDTH 720 0
DWIDTH 18 0
BBX 14 25 2 -6
BITMAP
000C
C00C
C00C
C000
C000
C00C
C00C
C00C
C00C
C00C
C00C
C00C
C00C
C00C
C00C
C00C
C00C
FFCC
FFCC
000C
000C
000C
000C
007C
0078
ENDCHAR
STARTCHAR 01C9
ENCODING 457
SWIDTH 480 0
DWIDTH 12 0
BBX 8 25 2 -6
BITMAP
C3
C3
C3
C0
C0
C3
C3
C3
C3
C3
C3
C3
C3
C3
C3
C3
C3
C3
C3
03
03
03
03
1F
1E
ENDCHAR
STARTCHAR 01CA
ENCODING 458
SWIDTH 960 0
DWIDTH 24 0
BBX 20 23 2 -5
BITMAP
E01830
F01830
F01830
D81830
D81830
CC1830
CC1830
C61830
C61830
C31830
C31830
C19830
C1D830
C0D830
C07830
C07830
C03830
C03830
000030
000030
000070
0003E0
000380
ENDCHAR
STARTCHAR 01CB
ENCODING 459
SWIDTH 960 0
DWIDTH 24 0
BBX 20 25 2 -6
BITMAP
000030
E01830
F01830
F01800
D81800
D81830
CC1830
CC1830
C61830
C61830
C31830
C31830
C19830
C1D830
C0D830
C07830
C07830
C03830
C03830
000030
000030
000030
000070
0003E0
0003C0
ENDCHAR
STARTCHAR 01CC
ENCODING 460
SWIDTH 840 0
DWIDTH 21 0
BBX 17 25 2 -6
BITMAP
000180
000180
000180
000000
000000
CF8180
DFC180
F0E180
E0E180
E06180
C06180
C06180
C06180
C06180
C06180
C06180
C06180
C06180
C06180
000180
000180
000180
000380
000F00
000E00
ENDCHAR
STARTCHAR 01CD
ENCODING 461
SWIDTH 600 0
DWIDTH 15 0
BBX 15 24 0 0
BITMAP
0C60
06E0
07C0
0380
0000
0000
0380
0380
02C0
06C0
06C0
0660
0C60
0C60
1830
1830
1FF0
3FF8
3018
3018
600C
600C
600E
C006
ENDCHAR
STARTCHAR 01CE
ENCODING 462
SWIDTH 520 0
DWIDTH 13 0
BBX 10 19 1 0
BITMAP
3180
1B00
1E00
0E00
0000
1F00
7F80
21C0
00C0
00C0
07C0
3FC0
70C0
E0C0
C0C0
C1C0
E1C0
7EC0
3C40
ENDCHAR
STARTCHAR 01CF
ENCODING 463
SWIDTH 320 0
DWIDTH 8 0
BBX 8 24 0 0
BITMAP
C3
66
3C
38
00
00
7E
3C
18
18
18
18
18
18
18
18
18
18
18
18
18
18
3C
7E
ENDCHAR
STARTCHAR 01D0
ENCODING 464
SWIDTH 240 0
DWIDTH 6 0
BBX 8 19 -1 0
BITMAP
C3
6E
3C
00
00
18
18
18
18
18
18
18
18
18
18
18
18
18
18
ENDCHAR
STARTCHAR 01D1
ENCODING 465
SWIDTH 720 0
DWIDTH 18 0
BBX 15 25 1 0
BITMAP
0830
0C60
06C0
03C0
0180
0000
0000
07E0
1FF0
3838
700C
600C
E006
C006
C006
C006
C006
C006
C006
E00E
600C
701C
3838
1FF0
07E0
ENDCHAR
STARTCHAR 01D2
ENCODING 466
SWIDTH 560 0
DWIDTH 14 0
BBX 12 19 1 0
BITMAP
30C0
1980
0F00
0600
0000
1F00
3FC0
70E0
6060
E070
C030
C030
C030
C030
E070
6060
70E0
3FC0
1F80
ENDCHAR
STARTCHAR 01D3
ENCODING 467
SWIDTH 680 0
DWIDTH 17 0
BBX 13 25 2 0
BITMAP
1060
18C0
0D80
0700
0700
0000
0000
C018
C018
C018
C018
C018
C018
C018
C018
C018
C018
C018
C018
C018
E038
6030
7070
3FE0
0F80
ENDCHAR
STARTCHAR 01D4
ENCODING 468
SWIDTH 600 0
DWIDTH 15 0
BBX 11 19 2 0
BITMAP
3180
1B00
0E00
0000
0000
C060
C060
C060
C060
C060
C060
C060
C060
C060
C0E0
C0E0
E1E0
7F60
3E60
ENDCHAR
STARTCHAR 01D5
ENCODING 469
SWIDTH 680 0
DWIDTH 17 0
BBX 13 26 2 0
BITMAP
0FC0
0FC0
0000
0CC0
0CC0
0CC0
0000
0000
C018
C018
C018
C018
C018
C018
C018
C018
C018
C018
C018
C018
C018
E038
6030
7070
3FE0
0F80
ENDCHAR
STARTCHAR 01D6
ENCODING 470
SWIDTH 600 0
DWIDTH 15 0
BBX 11 22 2 0
BITMAP
1F80
1F80
0000
0000
1980
1980
1980
0000
C060
C060
C060
C060
C060
C060
C060
C060
C060
C0E0
C0E0
E1E0
7F60
3E60
ENDCHAR
STARTCHAR 01D7
ENCODING 471
SWIDTH 680 0
DWIDTH 17 0
BBX 13 27 2 0
BITMAP
00C0
0180
0300
0200
0000
0CC0
0CC0
0000
0000
C018
C018
C018
C018
C018
C018
C018
C018
C018
C018
C018
C018
C018
E038
6030
7070
3FE0
0F80
ENDCHAR
STARTCHAR 01D8
ENCODING 472
SWIDTH 600 0
DWIDTH 15 0
BBX 11 23 2 0
BITMAP
0180
0380
0300
0600
0000
1980
1980
1980
0000
C060
C060
C060
C060
C060
C060
C060
C060
C060
C0E0
C0E0
E1E0
7F60
3E60
ENDCHAR
STARTCHAR 01D9
ENCODING 473
SWIDTH 680 0
DWIDTH 17 0
BBX 13 28 2 0
BITMAP
1860
0CC0
0FC0
0780
0300
0000
0CC0
0CC0
0000
0000
C018
C018
C018
C018
C018
C018
C018
C018
C018
C018
C018
C018
C018
E038
6030
7070
3FE0
0F80
ENDCHAR
STARTCHAR 01DA
ENCODING 474
SWIDTH 600 0
DWIDTH 15 0
BBX 11 23 2 0
BITMAP
30C0
1980
0F00
0600
0000
1980
1980
1980
0000
C060
C060
C060
C060
C060
C060
C060
C060
C060
C0E0
C0E0
E1E0
7F60
3E60
ENDCHAR
STARTCHAR 01DB
ENCODING 475
SWIDTH 680 0
DWIDTH 17 0
BBX 13 27 2 0
BITMAP
0C00
0600
0300
0100
0000
0CC0
0CC0
0000
0000
C018
C018
C018
C018
C018
C018
C018
C018
C018
C018
C018
C018
C018
E038
6030
7070
3FE0
0F80
ENDCHAR
STARTCHAR 01DC
ENCODING 476
SWIDTH 600 0
DWIDTH 15 0
BBX 11 23 2 0
BITMAP
3800
1C00
0C00
0600
0000
1980
1980
1980
0000
C060
C060
C060
C060
C060
C060
C060
C060
C060
C0E0
C0E0
E1E0
7F60
3E60
ENDCHAR
STARTCHAR 01DD
ENCODING 477
SWIDTH 520 0
DWIDTH 13 0
BBX 11 14 1 0
BITMAP
3E00
7F80
01C0
00C0
0060
0060
FFE0
FFE0
C060
C0E0
E0C0
61C0
3F80
1F00
ENDCHAR
STARTCHAR 01DE
ENCODING 478
SWIDTH 600 0
DWIDTH 15 0
BBX 14 26 0 0
BITMAP
0FE0
0FE0
0000
0C60
0C60
0C60
0000
0000
0300
0780
0780
0780
0CC0
0CC0
0C60
1860
1860
1830
3FF0
3FF0
7018
6018
6018
E00C
C00C
C00C
ENDCHAR
STARTCHAR 01DF
ENCODING 479
SWIDTH 520 0
DWIDTH 13 0
BBX 10 22 1 0
BITMAP
1F80
1F80
0000
0000
1980
1980
1980
0000
1F00
7F80
21C0
00C0
00C0
1FC0
7FC0
F0C0
E0C0
C0C0
C1C0
E1C0
7EC0
3CC0
ENDCHAR
STARTCHAR 01E0
ENCODING 480
SWIDTH 600 0
DWIDTH 15 0
BBX 14 26 0 0
BITMAP
0FE0
0FE0
0000
0180
0180
0180
0000
0000
0380
0380
0280
06C0
06C0
0CC0
0C60
0C60
1860
1830
3FF0
3FF0
3018
6018
6018
600C
C00C
C00C
ENDCHAR
STARTCHAR 01E1
ENCODING 481
SWIDTH 520 0
DWIDTH 13 0
BBX 10 22 1 0
BITMAP
3F80
3F80
0000
0000
0600
0600
0600
0000
1F00
7F80
21C0
00C0
00C0
1FC0
7FC0
F0C0
E0C0
C0C0
C1C0
E1C0
7EC0
3CC0
ENDCHAR
STARTCHAR 01E2
ENCODING 482
SWIDTH 840 0
DWIDTH 21 0
BBX 20 22 0 0
BITMAP
00FE00
00FE00
000000
000000
00FFF0
01FFF0
019800
039800
031800
071800
061800
061FE0
0C1FE0
0C1800
1FF800
1FF800
301800
301800
701800
601800
601FF0
C01FF0
ENDCHAR
STARTCHAR 01E3
ENCODING 483
SWIDTH 800 0
DWIDTH 20 0
BBX 18 18 1 0
BITMAP
03F800
03F800
000000
000000
1F1E00
7FBF80
01E180
00C1C0
00C0C0
1FFFC0
7FFFC0
E0C000
E0C000
C0C000
C1E000
E37000
7F3F80
3C1F80
ENDCHAR
STARTCHAR 01E4
ENCODING 484
SWIDTH 680 0
DWIDTH 17 0
BBX 15 18 1 0
BITMAP
07F0
1FFC
3C08
7000
6000
6000
E000
C000
C0FC
C0FC
C00C
C00C
E0FE
60FE
700C
380C
1FFC
07F0
ENDCHAR
STARTCHAR 01E5
ENCODING 485
SWIDTH 600 0
DWIDTH 15 0
BBX 13 20 1 -6
BITMAP
1E60
3FE0
70E0
60E0
E060
C060
C060
C060
C060
E060
E0E0
70E0
3FE0
1E60
0060
07F8
07F8
40E0
7FC0
3F80
ENDCHAR
STARTCHAR 01E6
ENCODING 486
SWIDTH 680 0
DWIDTH 17 0
BBX 14 25 1 0
BITMAP
0C10
0630
0360
03C0
0180
0000
0000
07F0
1FFC
3C08
7000
6000
6000
E000
C000
C0FC
C0FC
C00C
C00C
E00C
600C
700C
380C
1FFC
07F8
ENDCHAR
STARTCHAR 01E7
ENCODING 487
SWIDTH 560 0
DWIDTH 14 0
BBX 11 25 1 -6
BITMAP
31C0
1B80
0F00
0E00
0000
1E60
3FE0
70E0
60E0
E060
C060
C060
C060
C060
E060
E0E0
70E0
3FE0
1E60
0060
0060
00E0
40E0
7FC0
3F00
ENDCHAR
STARTCHAR 01E8
ENCODING 488
SWIDTH 560 0
DWIDTH 14 0
BBX 12 24 2 0
BITMAP
30C0
1980
0F00
0E00
0000
0000
C070
C0E0
C1C0
C180
C300
C700
CE00
DC00
DC00
FE00
E600
C700
C380
C180
C1C0
C0E0
C060
C070
ENDCHAR
STARTCHAR 01E9
ENCODING 489
SWIDTH 520 0
DWIDTH 13 0
BBX 13 26 -1 0
BITMAP
8300
E600
7E00
3C00
1800
0000
0000
1800
1800
1800
1800
1800
1838
1830
1860
18C0
19C0
1B80
1B80
1F80
1DC0
18E0
1860
1870
1838
1818
ENDCHAR
STARTCHAR 01EA
ENCODING 490
SWIDTH 720 0
DWIDTH 18 0
BBX 15 24 1 -6
BITMAP
07E0
1FF0
3838
700C
600C
E006
C006
C006
C006
C006
C006
C006
E00E
600C
701C
3838
1FF0
07E0
0180
0180
0300
0300
03C0
01C0
ENDCHAR
STARTCHAR 01EB
ENCODING 491
SWIDTH 560 0
DWIDTH 14 0
BBX 12 20 1 -6
BITMAP
1F00
3FC0
70E0
6060
E070
C030
C030
C030
C030
E070
6060
70E0
3FC0
1F80
0600
0600
0C00
0C00
0F00
0700
ENDCHAR
STARTCHAR 01EC
ENCODING 492
SWIDTH 720 0
DWIDTH 18 0
BBX 15 28 1 -6
BITMAP
0FE0
0FE0
0000
0000
07E0
1FF0
3838
700C
600C
E006
C006
C006
C006
C006
C006
C006
E00E
600C
701C
3838
1FF0
07E0
00C0
0080
0180
0180
01E0
00E0
ENDCHAR
STARTCHAR 01ED
ENCODING 493
SWIDTH 560 0
DWIDTH 14 0
BBX 12 24 1 -6
BITMAP
3F80
3F80
0000
0000
1F00
3FC0
70E0
6060
E070
C030
C030
C030
C030
E070
6060
70E0
3FC0
1F80
0600
0400
0C00
0C00
0F00
0700
ENDCHAR
STARTCHAR 01EE
ENCODING 494
SWIDTH 560 0
DWIDTH 14 0
BBX 12 25 0 0
BITMAP
3040
18C0
0F80
0F00
0600
0000
0000
7FE0
7FE0
00C0
0180
0300
0600
0C00
1F80
1FE0
00E0
0070
0030
0030
0030
0070
C0E0
FFC0
3F80
ENDCHAR
STARTCHAR 01EF
ENCODING 495
SWIDTH 480 0
DWIDTH 12 0
BBX 11 25 0 -6
BITMAP
31C0
1B80
0F00
0000
0000
7FE0
7FE0
00C0
0180
0380
0700
0E00
0C00
1F00
1FC0
01C0
00E0
0060
0060
0060
0060
00E0
C1C0
FF80
7F00
ENDCHAR
STARTCHAR 01F0
ENCODING 496
SWIDTH 240 0
DWIDTH 6 0
BBX 9 25 -2 -6
BITMAP
6180
3700
1E00
0000
0000
0C00
0C00
0C00
0C00
0C00
0C00
0C00
0C00
0C00
0C00
0C00
0C00
0C00
0C00
0C00
0C00
0C00
0C00
FC00
F800
ENDCHAR
STARTCHAR 01F1
ENCODING 497
SWIDTH 1200 0
DWIDTH 30 0
BBX 27 18 2 0
BITMAP
FF00FFE0
FFC0FFE0
C0E000E0
C07001C0
C0300180
C0380380
C0180300
C0180700
C0180600
C0180C00
C0181C00
C0181800
C0383800
C0303000
C0706000
C0E0E000
FFC0FFE0
FF00FFE0
ENDCHAR
STARTCHAR 01F2
ENCODING 498
SWIDTH 1120 0
DWIDTH 28 0
BBX 25 18 2 0
BITMAP
FF000000
FFC00000
C0E00000
C0700000
C030FF80
C038FF80
C0180380
C0180300
C0180600
C0180E00
C0180C00
C0181800
C0383800
C0303000
C0706000
C0E06000
FFC0FF80
FF00FF80
ENDCHAR
STARTCHAR 01F3
ENCODING 499
SWIDTH 1000 0
DWIDTH 25 0
BBX 23 19 1 0
BITMAP
006000
006000
006000
006000
006000
1E63FE
3FE3FE
70E00E
E0E01C
E06018
C06038
C06030
C06060
C060E0
E060C0
E0E180
70E380
3FE3FE
1E63FE
ENDCHAR
STARTCHAR 01F4
ENCODING 500
SWIDTH 680 0
DWIDTH 17 0
BBX 14 25 1 0
BITMAP
0060
00E0
01C0
0180
0300
0000
0000
07F0
1FFC
3C08
7000
6000
6000
E000
C000
C0FC
C0FC
C00C
C00C
E00C
600C
700C
380C
1FFC
07F8
ENDCHAR
STARTCHAR 01F5
ENCODING 501
SWIDTH 560 0
DWIDTH 14 0
BBX 11 25 1 -6
BITMAP
0380
0700
0600
0C00
0000
1E60
3FE0
70E0
60E0
E060
C060
C060
C060
C060
E060
E0E0
70E0
3FE0
1E60
0060
0060
00E0
40E0
7FC0
3F00
ENDCHAR
STARTCHAR 01F6
ENCODING 502
SWIDTH 880 0
DWIDTH 22 0
BBX 18 18 2 0
BITMAP
C06000
C06000
C06000
C06000
C060C0
C060C0
C060C0
FFE0C0
FFE0C0
C060C0
C060C0
C060C0
C060C0
C060C0
C060C0
C071C0
C03F80
C01F00
ENDCHAR
STARTCHAR 01F7
ENCODING 503
SWIDTH 600 0
DWIDTH 15 0
BBX 12 24 2 -6
BITMAP
CF80
DFE0
F0E0
E070
E030
C030
C030
C030
C070
C060
C060
C0E0
C1C0
C380
C700
CE00
FC00
F000
C000
C000
C000
C000
C000
C000
ENDCHAR
STARTCHAR 01F8
ENCODING 504
SWIDTH 720 0
DWIDTH 18 0
BBX 13 24 2 0
BITMAP
1C00
0E00
0600
0300
0000
0000
E018
F018
F018
D818
D818
CC18
CC18
C618
C618
C318
C318
C198
C1D8
C0D8
C078
C078
C038
C038
ENDCHAR
STARTCHAR 01F9
ENCODING 505
SWIDTH 600 0
DWIDTH 15 0
BBX 11 19 2 0
BITMAP
3800
1800
0C00
0600
0000
CF80
DFC0
F0E0
E0E0
E060
C060
C060
C060
C060
C060
C060
C060
C060
C060
ENDCHAR
STARTCHAR 01FA
ENCODING 506
SWIDTH 600 0
DWIDTH 15 0
BBX 15 25 0 0
BITMAP
00E0
00C0
0180
0300
0380
07C0
0440
0440
06C0
0380
0780
06C0
06C0
0CE0
0C60
0C60
1830
1830
3FF0
3FF8
3018
601C
600C
E00C
C00E
ENDCHAR
STARTCHAR 01FB
ENCODING 507
SWIDTH 520 0
DWIDTH 13 0
BBX 10 25 1 0
BITMAP
0380
0700
0C00
0000
0E00
1B00
1100
1300
1E00
0000
0000
1F00
7F80
21C0
00C0
00C0
1FC0
7FC0
F0C0
E0C0
C0C0
C1C0
E1C0
7EC0
3CC0
ENDCHAR
STARTCHAR 01FC
ENCODING 508
SWIDTH 840 0
DWIDTH 21 0
BBX 19 24 1 0
BITMAP
001C00
001800
003000
006000
000000
000000
01FFE0
01FFE0
033000
033000
063000
063000
0E3000
0C3FE0
0C3FE0
183000
1FF000
3FF000
303000
703000
603000
E03000
C03FE0
C03FE0
ENDCHAR
STARTCHAR 01FD
ENCODING 509
SWIDTH 800 0
DWIDTH 20 0
BBX 18 19 1 0
BITMAP
007000
006000
00C000
018000
000000
1F1E00
7FBF80
01E180
00C1C0
00C0C0
1FFFC0
7FFFC0
E0C000
E0C000
C0C000
C1E000
E37000
7F3F80
3C1F80
ENDCHAR
STARTCHAR 01FE
ENCODING 510
SWIDTH 720 0
DWIDTH 18 0
BBX 15 26 1 -1
BITMAP
00E0
00C0
01C0
0180
0300
0000
0000
0000
07EC
1FFC
3838
703C
607C
E066
C0C6
C1C6
C186
C306
C706
C606
EC0E
6C0C
781C
3838
7FF0
67E0
ENDCHAR
STARTCHAR 01FF
ENCODING 511
SWIDTH 560 0
DWIDTH 14 0
BBX 12 21 1 -1
BITMAP
0180
0380
0700
0600
0C00
0000
0000
1F70
3FE0
70E0
61E0
E1F0
C330
C630
C630
CC30
F870
7860
70E0
7FC0
7F80
ENDCHAR
STARTCHAR 0200
ENCODING 512
SWIDTH 600 0
DWIDTH 15 0
BBX 15 24 0 0
BITMAP
3B80
1980
0CC0
0460
0000
0000
0380
0380
02C0
06C0
06C0
0660
0C60
0C60
1830
1830
1FF0
3FF8
3018
3018
600C
600C
600E
C006
ENDCHAR
STARTCHAR 0201
ENCODING 513
SWIDTH 520 0
DWIDTH 13 0
BBX 10 19 1 0
BITMAP
EE00
6600
3300
1180
0000
1F00
7F80
21C0
00C0
00C0
1FC0
7FC0
F0C0
E0C0
C0C0
C1C0
E1C0
7EC0
3C40
ENDCHAR
STARTCHAR 0202
ENCODING 514
SWIDTH 600 0
DWIDTH 15 0
BBX 15 24 0 0
BITMAP
0380
0FC0
0C60
0820
0000
0000
0380
0380
0780
06C0
06C0
0CC0
0C60
0C60
1860
1830
3FF0
3FF8
3018
7018
601C
600C
E00C
C00E
ENDCHAR
STARTCHAR 0203
ENCODING 515
SWIDTH 520 0
DWIDTH 13 0
BBX 10 19 1 0
BITMAP
0F00
3F80
3180
0000
0000
1F00
7F80
21C0
00C0
00C0
1FC0
7FC0
F0C0
E0C0
C0C0
C1C0
E1C0
7EC0
3C40
ENDCHAR
STARTCHAR 0204
ENCODING 516
SWIDTH 520 0
DWIDTH 13 0
BBX 10 24 2 0
BITMAP
CC00
E600
6600
3300
0000
0000
FFC0
FFC0
C000
C000
C000
C000
C000
FF80
FF80
C000
C000
C000
C000
C000
C000
C000
FFC0
FFC0
ENDCHAR
STARTCHAR 0205
ENCODING 517
SWIDTH 520 0
DWIDTH 13 0
BBX 11 19 1 0
BITMAP
EE00
6600
3300
1180
0000
1F00
3F80
70C0
60E0
C060
FFE0
FFE0
C000
C000
E000
6000
7000
3FC0
0FC0
ENDCHAR
STARTCHAR 0206
ENCODING 518
SWIDTH 520 0
DWIDTH 13 0
BBX 10 24 2 0
BITMAP
1E00
3F00
6100
6100
0000
0000
FFC0
FFC0
C000
C000
C000
C000
C000
FF80
FF80
C000
C000
C000
C000
C000
C000
C000
FFC0
FFC0
ENDCHAR
STARTCHAR 0207
ENCODING 519
SWIDTH 520 0
DWIDTH 13 0
BBX 11 19 1 0
BITMAP
0F00
3F80
3080
0000
0000
1F00
3F80
70C0
60E0
C060
FFE0
FFE0
C000
C000
E000
6000
7000
3FC0
0FC0
ENDCHAR
STARTCHAR 0208
ENCODING 520
SWIDTH 320 0
DWIDTH 8 0
BBX 8 24 -1 0
BITMAP
CE
66
62
33
00
00
3F
1E
0C
0C
0C
0C
0C
0C
0C
0C
0C
0C
0C
0C
0C
0C
1E
3F
ENDCHAR
STARTCHAR 0209
ENCODING 521
SWIDTH 240 0
DWIDTH 6 0
BBX 8 19 -2 0
BITMAP
CE
66
63
31
00
0C
0C
0C
0C
0C
0C
0C
0C
0C
0C
0C
0C
0C
0C
ENDCHAR
STARTCHAR 020A
ENCODING 522
SWIDTH 360 0
DWIDTH 9 0
BBX 8 24 0 0
BITMAP
1C
7E
43
C3
00
00
7E
3C
18
18
18
18
18
18
18
18
18
18
18
18
18
18
3C
7E
ENDCHAR
STARTCHAR 020B
ENCODING 523
SWIDTH 280 0
DWIDTH 7 0
BBX 7 19 0 0
BITMAP
78
FE
86
00
00
30
30
30
30
30
30
30
30
30
30
30
30
30
30
ENDCHAR
STARTCHAR 020C
ENCODING 524
SWIDTH 720 0
DWIDTH 18 0
BBX 15 25 1 0
BITMAP
3980
19C0
0CC0
0660
0000
0000
0000
07E0
1FF0
3838
700C
600C
E006
C006
C006
C006
C006
C006
C006
E00E
600C
701C
3838
1FF0
07E0
ENDCHAR
STARTCHAR 020D
ENCODING 525
SWIDTH 560 0
DWIDTH 14 0
BBX 12 19 1 0
BITMAP
6600
7300
3380
1980
0000
1F00
3FC0
70E0
6060
E070
C030
C030
C030
C030
E070
6060
70E0
3FC0
1F80
ENDCHAR
STARTCHAR 020E
ENCODING 526
SWIDTH 720 0
DWIDTH 18 0
BBX 15 24 1 0
BITMAP
03C0
07E0
0C20
0820
0000
0000
07E0
1FF0
3838
700C
600C
E006
C006
C006
C006
C006
C006
C006
E00E
600C
701C
3838
1FF0
07E0
ENDCHAR
STARTCHAR 020F
ENCODING 527
SWIDTH 560 0
DWIDTH 14 0
BBX 12 19 1 0
BITMAP
0F00
1F80
30C0
0000
0000
1F00
3FC0
70E0
6060
E070
C030
C030
C030
C030
E070
6060
70E0
3FC0
1F80
ENDCHAR
STARTCHAR 0210
ENCODING 528
SWIDTH 600 0
DWIDTH 15 0
BBX 12 24 2 0
BITMAP
CE00
6600
6300
3100
0000
0000
FF00
FFC0
C0C0
C0E0
C060
C060
C0E0
C1C0
FF80
FF00
C300
C380
C180
C1C0
C0C0
C0E0
C060
C070
ENDCHAR
STARTCHAR 0211
ENCODING 529
SWIDTH 400 0
DWIDTH 10 0
BBX 8 19 1 0
BITMAP
CC
E6
66
33
00
67
6F
78
70
70
60
60
60
60
60
60
60
60
60
ENDCHAR
STARTCHAR 0212
ENCODING 530
SWIDTH 600 0
DWIDTH 15 0
BBX 12 24 2 0
BITMAP
1E00
3F00
2180
6080
0000
0000
FF00
FFC0
C0C0
C0E0
C060
C060
C0E0
C1C0
FF80
FF00
C300
C380
C180
C1C0
C0C0
C0E0
C060
C070
ENDCHAR
STARTCHAR 0213
ENCODING 531
SWIDTH 400 0
DWIDTH 10 0
BBX 7 19 2 0
BITMAP
3C
7E
C2
00
00
CE
DE
F0
E0
E0
C0
C0
C0
C0
C0
C0
C0
C0
C0
ENDCHAR
STARTCHAR 0214
ENCODING 532
SWIDTH 680 0
DWIDTH 17 0
BBX 13 24 2 0
BITMAP
7700
3300
1980
08C0
0000
0000
C018
C018
C018
C018
C018
C018
C018
C018
C018
C018
C018
C018
C018
E038
6030
7070
3FE0
0F80
ENDCHAR
STARTCHAR 0215
ENCODING 533
SWIDTH 600 0
DWIDTH 15 0
BBX 11 19 2 0
BITMAP
EE00
6600
3300
1180
0000
C060
C060
C060
C060
C060
C060
C060
C060
C060
C0E0
C0E0
E1E0
7F60
3E60
ENDCHAR
STARTCHAR 0216
ENCODING 534
SWIDTH 680 0
DWIDTH 17 0
BBX 13 24 2 0
BITMAP
0700
0FC0
18C0
1040
0000
0000
C018
C018
C018
C018
C018
C018
C018
C018
C018
C018
C018
C018
C018
E038
6030
7070
3FE0
0F80
ENDCHAR
STARTCHAR 0217
ENCODING 535
SWIDTH 600 0
DWIDTH 15 0
BBX 11 19 2 0
BITMAP
1F00
3F80
3080
0000
0000
C060
C060
C060
C060
C060
C060
C060
C060
C060
C0E0
C0E0
E1E0
7F60
3E60
ENDCHAR
STARTCHAR 0218
ENCODING 536
SWIDTH 520 0
DWIDTH 13 0
BBX 11 24 1 -6
BITMAP
1F80
7FC0
E040
C000
C000
C000
E000
7800
3E00
0F80
03C0
00E0
0060
0060
00E0
80C0
FFC0
7F00
0000
0000
0C00
0C00
1800
1800
ENDCHAR
STARTCHAR 0219
ENCODING 537
SWIDTH 440 0
DWIDTH 11 0
BBX 9 20 1 -6
BITMAP
3F00
7F00
E100
C000
E000
7000
3C00
0F00
0380
0180
0180
8380
FF00
7E00
0000
0000
0C00
1800
1800
1000
ENDCHAR
STARTCHAR 021A
ENCODING 538
SWIDTH 600 0
DWIDTH 15 0
BBX 13 24 1 -6
BITMAP
FFF8
FFF8
0600
0600
0600
0600
0600
0600
0600
0600
0600
0600
0600
0600
0600
0600
0600
0600
0000
0000
0600
0600
0400
0C00
ENDCHAR
STARTCHAR 021B
ENCODING 539
SWIDTH 400 0
DWIDTH 10 0
BBX 8 23 1 -6
BITMAP
10
30
30
7F
FF
30
30
30
30
30
30
30
30
30
38
3F
1F
00
00
0C
0C
18
18
ENDCHAR
STARTCHAR 021C
ENCODING 540
SWIDTH 560 0
DWIDTH 14 0
BBX 12 23 1 -5
BITMAP
1F80
7FC0
E0E0
0060
0060
0060
00E0
01C0
0780
1F80
18E0
0060
0030
0030
0030
0070
0070
00E0
01C0
0780
3F00
F800
C000
ENDCHAR
STARTCHAR 021D
ENCODING 541
SWIDTH 520 0
DWIDTH 13 0
BBX 11 20 1 -6
BITMAP
3F00
FF80
41C0
00C0
00C0
00C0
01C0
0780
3F80
19C0
00E0
0060
0060
0060
00E0
01C0
0780
1F00
FC00
E000
ENDCHAR
STARTCHAR 021E
ENCODING 542
SWIDTH 680 0
DWIDTH 17 0
BBX 13 24 2 0
BITMAP
18C0
1DC0
0F80
0700
0000
0000
C018
C018
C018
C018
C018
C018
C018
FFF8
FFF8
C018
C018
C018
C018
C018
C018
C018
C018
C018
ENDCHAR
STARTCHAR 021F
ENCODING 543
SWIDTH 600 0
DWIDTH 15 0
BBX 14 26 -1 0
BITMAP
C100
6700
7E00
3C00
1800
0000
0000
1800
1800
1800
1800
1800
19F0
1BF8
1E1C
1C1C
1C0C
180C
180C
180C
180C
180C
180C
180C
180C
180C
ENDCHAR
STARTCHAR 0220
ENCODING 544
SWIDTH 680 0
DWIDTH 17 0
BBX 13 24 2 -6
BITMAP
C7C0
DFE0
F070
E038
E018
C018
C018
C018
C018
C018
C018
C018
C018
C018
C018
C018
C018
C018
0018
0018
0018
0018
0018
0018
ENDCHAR
STARTCHAR 0221
ENCODING 545
SWIDTH 840 0
DWIDTH 21 0
BBX 19 22 1 -3
BITMAP
006000
006000
006000
006000
006000
1E6000
3FE000
70E000
E0E000
E06000
C06000
C06000
C06000
C063C0
E06FE0
E0FC60
70F8E0
3FBFC0
1F3F80
003000
003000
003000
ENDCHAR
STARTCHAR 0222
ENCODING 546
SWIDTH 640 0
DWIDTH 16 0
BBX 13 18 1 0
BITMAP
6030
6030
6030
6030
7070
30E0
1FC0
3FE0
7070
E038
C018
C018
C018
C018
E038
7070
3FE0
0FC0
ENDCHAR
STARTCHAR 0223
ENCODING 547
SWIDTH 560 0
DWIDTH 14 0
BBX 12 19 1 0
BITMAP
6060
6060
6060
6060
60E0
70E0
3FC0
3F80
70E0
6060
E070
C030
C030
C030
C070
6060
70E0
3FC0
1F80
ENDCHAR
STARTCHAR 0224
ENCODING 548
SWIDTH 560 0
DWIDTH 14 0
BBX 13 23 0 -5
BITMAP
7FF0
7FF0
0060
00E0
00C0
01C0
0180
0380
0700
0600
0E00
0C00
1C00
3800
3000
7000
FFF8
FFF8
0018
0018
0018
0078
0070
ENDCHAR
STARTCHAR 0225
ENCODING 549
SWIDTH 480 0
DWIDTH 12 0
BBX 10 19 0 -5
BITMAP
7FC0
7FC0
01C0
0380
0700
0700
0E00
0C00
1C00
3800
3000
6000
FFC0
FFC0
00C0
00C0
00C0
03C0
0380
ENDCHAR
STARTCHAR 0226
ENCODING 550
SWIDTH 600 0
DWIDTH 15 0
BBX 14 24 0 0
BITMAP
0300
0300
0300
0000
0000
0000
0300
0380
0780
0780
06C0
0CC0
0CC0
0C60
1860
1860
3FF0
3FF0
3038
7018
6018
601C
E00C
C00C
ENDCHAR
STARTCHAR 0227
ENCODING 551
SWIDTH 520 0
DWIDTH 13 0
BBX 10 19 1 0
BITMAP
0600
0600
0600
0000
0000
1F00
7F80
21C0
00C0
00C0
1FC0
7FC0
F0C0
E0C0
C0C0
C1C0
E1C0
7EC0
3C40
ENDCHAR
STARTCHAR 0228
ENCODING 552
SWIDTH 520 0
DWIDTH 13 0
BBX 10 24 2 -6
BITMAP
FFC0
FFC0
C000
C000
C000
C000
C000
FF80
FF80
C000
C000
C000
C000
C000
C000
C000
FFC0
FFC0
0400
0C00
0700
0300
0700
1E00
ENDCHAR
STARTCHAR 0229
ENCODING 553
SWIDTH 520 0
DWIDTH 13 0
BBX 11 20 1 -6
BITMAP
1F00
3F80
70C0
6060
E060
C060
FFE0
FFE0
C000
C000
6000
7020
3FE0
0FC0
0600
0700
0180
0180
0F80
0F00
ENDCHAR
STARTCHAR 022A
ENCODING 554
SWIDTH 720 0
DWIDTH 18 0
BBX 15 26 1 0
BITMAP
07F0
07F0
0000
0630
0630
0630
0000
0000
07E0
1FF0
3838
700C
600C
E006
C006
C006
C006
C006
C006
C006
E00E
600C
701C
3838
1FF0
07E0
ENDCHAR
STARTCHAR 022B
ENCODING 555
SWIDTH 560 0
DWIDTH 14 0
BBX 12 22 1 0
BITMAP
1FC0
1FC0
0000
0000
18C0
18C0
18C0
0000
1F00
3FC0
70E0
6060
E070
C030
C030
C030
C030
E070
6060
70E0
3FC0
1F80
ENDCHAR
STARTCHAR 022C
ENCODING 556
SWIDTH 720 0
DWIDTH 18 0
BBX 15 26 1 0
BITMAP
07F0
07F0
0000
0790
07F0
0460
0000
0000
07E0
1FF0
3838
700C
600C
E006
C006
C006
C006
C006
C006
C006
E00E
600C
701C
3838
1FF0
07E0
ENDCHAR
STARTCHAR 022D
ENCODING 557
SWIDTH 560 0
DWIDTH 14 0
BBX 12 22 1 0
BITMAP
1FC0
1FC0
0000
0000
1FC0
3FC0
0000
0000
1F00
3FC0
70E0
6060
E070
C030
C030
C030
C030
E070
6060
70E0
3FC0
1F80
ENDCHAR
STARTCHAR 022E
ENCODING 558
SWIDTH 720 0
DWIDTH 18 0
BBX 15 24 1 0
BITMAP
0180
0180
0180
0000
0000
0000
07E0
1FF0
3838
700C
600C
E006
C006
C006
C006
C006
C006
C006
E00E
600C
701C
3838
1FF0
07E0
ENDCHAR
STARTCHAR 022F
ENCODING 559
SWIDTH 560 0
DWIDTH 14 0
BBX 12 19 1 0
BITMAP
0600
0600
0600
0000
0000
1F00
3FC0
70E0
6060
E070
C030
C030
C030
C030
E070
6060
70E0
3FC0
1F80
ENDCHAR
STARTCHAR 0230
ENCODING 560
SWIDTH 720 0
DWIDTH 18 0
BBX 15 26 1 0
BITMAP
07F0
07F0
0000
0180
0180
0180
0000
0000
07E0
1FF0
3838
700C
600C
E006
C006
C006
C006
C006
C006
C006
E00E
600C
701C
3838
1FF0
07E0
ENDCHAR
STARTCHAR 0231
ENCODING 561
SWIDTH 560 0
DWIDTH 14 0
BBX 12 22 1 0
BITMAP
1FC0
1FC0
0000
0000
0600
0600
0600
0000
1F00
3FC0
70E0
6060
E070
C030
C030
C030
C030
E070
6060
70E0
3FC0
1F80
ENDCHAR
STARTCHAR 0232
ENCODING 562
SWIDTH 520 0
DWIDTH 13 0
BBX 13 22 0 0
BITMAP
1FC0
1FC0
0000
0000
E018
6038
6030
3070
3060
18E0
18C0
0DC0
0D80
0780
0700
0300
0300
0300
0300
0300
0300
0300
ENDCHAR
STARTCHAR 0233
ENCODING 563
SWIDTH 520 0
DWIDTH 13 0
BBX 11 24 1 -6
BITMAP
3F80
3F80
0000
0000
C060
C060
60E0
60C0
60C0
31C0
3180
3180
1B80
1B00
1B00
0F00
0E00
0E00
0E00
0C00
0C00
1800
F800
F000
ENDCHAR
STARTCHAR 0234
ENCODING 564
SWIDTH 400 0
DWIDTH 10 0
BBX 9 19 0 0
BITMAP
3000
3000
3000
3000
3000
3000
3000
3000
3000
3000
3000
3000
3000
3F00
3F80
3180
7180
7F80
CF00
ENDCHAR
STARTCHAR 0235
ENCODING 565
SWIDTH 720 0
DWIDTH 18 0
BBX 15 15 2 -1
BITMAP
CF80
DFC0
F0E0
E0E0
E060
C060
C060
C060
C07C
C07E
C066
C0E6
C1BE
C1BC
0080
ENDCHAR
STARTCHAR 0236
ENCODING 566
SWIDTH 440 0
DWIDTH 11 0
BBX 9 17 1 0
BITMAP
3000
3000
3000
FF00
FF00
3000
3000
3000
3000
3000
3000
3F00
3F80
7180
7180
DF80
CF00
ENDCHAR
STARTCHAR 0237
ENCODING 567
SWIDTH 240 0
DWIDTH 6 0
BBX 6 20 -2 -6
BITMAP
0C
0C
0C
0C
0C
0C
0C
0C
0C
0C
0C
0C
0C
0C
0C
0C
0C
0C
FC
F8
ENDCHAR
STARTCHAR 0238
ENCODING 568
SWIDTH 920 0
DWIDTH 23 0
BBX 20 19 1 0
BITMAP
006000
006000
006000
006000
006000
1E6780
3FEFE0
70F860
E0F070
E06030
C06030
C06030
C06030
C06030
E07030
E0F070
71F860
3F9FE0
1F0F80
ENDCHAR
STARTCHAR 0239
ENCODING 569
SWIDTH 920 0
DWIDTH 23 0
BBX 20 20 1 -6
BITMAP
1F0F80
3F9FE0
71F860
60F070
E07030
C06030
C06030
C06030
C06030
E06030
E0F070
70F860
3FEFE0
1E6780
006000
006000
006000
006000
006000
006000
ENDCHAR
STARTCHAR 023A
ENCODING 570
SWIDTH 640 0
DWIDTH 16 0
BBX 15 21 0 -2
BITMAP
0010
03B0
03B0
02E0
06E0
06C0
06E0
0CE0
0CE0
19B0
19B0
1FF0
3FF8
3318
3218
660C
660C
640E
CC06
0C00
0800
ENDCHAR
STARTCHAR 023B
ENCODING 571
SWIDTH 600 0
DWIDTH 15 0
BBX 12 21 1 -2
BITMAP
0010
07F0
1FF0
3830
7060
6060
E040
E0C0
C0C0
C180
C180
C100
C300
E300
6200
7600
3E00
1FF0
0FE0
0C00
0800
ENDCHAR
STARTCHAR 023C
ENCODING 572
SWIDTH 480 0
DWIDTH 12 0
BBX 10 24 1 -5
BITMAP
0040
00C0
00C0
0080
0180
1F80
3F80
7300
6200
E600
C600
C400
CC00
CC00
E800
7800
7800
3F80
3F80
3000
2000
6000
6000
4000
ENDCHAR
STARTCHAR 023D
ENCODING 573
SWIDTH 520 0
DWIDTH 13 0
BBX 12 18 1 0
BITMAP
3000
3000
3000
3000
3000
3000
3000
3000
FF80
FF80
3000
3000
3000
3000
3000
3000
3FF0
3FF0
ENDCHAR
STARTCHAR 023E
ENCODING 574
SWIDTH 600 0
DWIDTH 15 0
BBX 13 21 1 -2
BITMAP
0018
FFF8
FFF8
0660
0660
06C0
06C0
0780
0780
0700
0700
0600
0600
0E00
0E00
0E00
1E00
1600
3600
3000
6000
ENDCHAR
STARTCHAR 023F
ENCODING 575
SWIDTH 440 0
DWIDTH 11 0
BBX 9 20 1 -6
BITMAP
3F00
7F00
E100
C000
E000
7000
3C00
0F00
0380
0180
0180
8380
FF00
7E00
3800
1800
1800
1C00
0F80
0780
ENDCHAR
STARTCHAR 0240
ENCODING 576
SWIDTH 440 0
DWIDTH 11 0
BBX 11 20 0 -6
BITMAP
7FC0
7FC0
01C0
0380
0300
0700
0E00
0C00
1C00
3800
3000
7000
F000
F800
1C00
0C00
0C00
0600
07E0
03E0
ENDCHAR
STARTCHAR 0241
ENCODING 577
SWIDTH 440 0
DWIDTH 11 0
BBX 10 18 0 0
BITMAP
3E00
FF80
4180
00C0
00C0
00C0
01C0
0180
0380
0F00
1E00
1800
1800
1800
1800
1800
1800
1800
ENDCHAR
STARTCHAR 0242
ENCODING 578
SWIDTH 400 0
DWIDTH 10 0
BBX 9 14 0 0
BITMAP
3E00
FF00
4380
0180
0180
0180
0180
0380
0300
0700
1E00
1800
1800
1800
ENDCHAR
STARTCHAR 0243
ENCODING 579
SWIDTH 640 0
DWIDTH 16 0
BBX 14 18 1 0
BITMAP
3FC0
3FF0
3038
3018
3018
3018
3030
3FE0
3FE0
3038
301C
300C
FF0C
FF0C
301C
3038
3FF8
3FE0
ENDCHAR
STARTCHAR 0244
ENCODING 580
SWIDTH 760 0
DWIDTH 19 0
BBX 17 18 1 0
BITMAP
300600
300600
300600
300600
300600
300600
300600
FFFF80
FFFF80
300600
300600
300600
300600
300E00
380C00
1C1C00
0FF800
07E000
ENDCHAR
STARTCHAR 0245
ENCODING 581
SWIDTH 560 0
DWIDTH 14 0
BBX 14 18 0 0
BITMAP
0380
0780
0780
07C0
0EC0
0CC0
0CE0
1C60
1860
1870
3830
3030
3038
7018
6018
601C
E00C
E00C
ENDCHAR
STARTCHAR 0246
ENCODING 582
SWIDTH 560 0
DWIDTH 14 0
BBX 10 21 2 -2
BITMAP
0180
FFC0
FFC0
C100
C300
C300
C200
C200
FF80
FF80
C400
C400
CC00
CC00
CC00
C800
D800
FFC0
FFC0
1000
3000
ENDCHAR
STARTCHAR 0247
ENCODING 583
SWIDTH 560 0
DWIDTH 14 0
BBX 11 24 1 -5
BITMAP
0060
0040
00C0
00C0
0180
1F80
3F80
73C0
63E0
C260
FFE0
FFE0
CC00
CC00
EC00
6800
7800
3FC0
3FC0
3000
3000
6000
6000
4000
ENDCHAR
STARTCHAR 0248
ENCODING 584
SWIDTH 280 0
DWIDTH 7 0
BBX 8 23 -2 -5
BITMAP
0C
0C
0C
0C
0C
0C
0C
0C
3F
3F
0C
0C
0C
0C
0C
0C
0C
0C
0C
0C
1C
F8
F0
ENDCHAR
STARTCHAR 0249
ENCODING 585
SWIDTH 280 0
DWIDTH 7 0
BBX 8 25 -2 -6
BITMAP
0C
0C
0C
00
00
0C
0C
0C
0C
0C
0C
3F
3F
0C
0C
0C
0C
0C
0C
0C
0C
0C
1C
F8
F0
ENDCHAR
STARTCHAR 024A
ENCODING 586
SWIDTH 720 0
DWIDTH 18 0
BBX 17 24 1 -6
BITMAP
0FCC00
1FEC00
383C00
701C00
600C00
E00C00
C00C00
C00C00
C00C00
C00C00
C00C00
C00C00
E00C00
600C00
701C00
383C00
1FEC00
0FCC00
000C00
000C00
000C00
000E00
000F80
000380
ENDCHAR
STARTCHAR 024B
ENCODING 587
SWIDTH 560 0
DWIDTH 14 0
BBX 14 20 1 -6
BITMAP
1E60
3FE0
70E0
E0E0
E060
C060
C060
C060
C060
E060
E0E0
70E0
3FE0
1E60
0060
0060
0060
0060
007C
003C
ENDCHAR
STARTCHAR 024C
ENCODING 588
SWIDTH 640 0
DWIDTH 16 0
BBX 14 18 1 0
BITMAP
3FC0
3FF0
3030
3038
3018
3018
3038
3070
FFE0
FFC0
30C0
30E0
3060
3070
3030
3038
3018
301C
ENDCHAR
STARTCHAR 024D
ENCODING 589
SWIDTH 400 0
DWIDTH 10 0
BBX 9 14 1 0
BITMAP
3380
3780
3C00
3800
3000
3000
FE00
FE00
3000
3000
3000
3000
3000
3000
ENDCHAR
STARTCHAR 024E
ENCODING 590
SWIDTH 600 0
DWIDTH 15 0
BBX 13 18 1 0
BITMAP
C038
6030
6070
FFF8
FFF8
38C0
19C0
1D80
0F80
0F00
0600
0600
0600
0600
0600
0600
0600
0600
ENDCHAR
STARTCHAR 024F
ENCODING 591
SWIDTH 560 0
DWIDTH 14 0
BBX 12 20 1 -6
BITMAP
C030
E070
6060
6060
70E0
FFF0
FFF0
39C0
1980
1980
0F80
0F00
0F00
0600
0600
0E00
0C00
1C00
F800
F000
ENDCHAR
STARTCHAR 0250
ENCODING 592
SWIDTH 520 0
DWIDTH 13 0
BBX 10 14 2 0
BITMAP
CF00
DFC0
F0C0
E0C0
C0C0
C1C0
FF80
FF00
C000
C000
C000
E100
7F80
3E00
ENDCHAR
STARTCHAR 0251
ENCODING 593
SWIDTH 560 0
DWIDTH 14 0
BBX 11 14 1 0
BITMAP
1E60
3FE0
70E0
E0E0
E060
C060
C060
C060
C060
E060
E0E0
70E0
3FE0
1E60
ENDCHAR
STARTCHAR 0252
ENCODING 594
SWIDTH 600 0
DWIDTH 15 0
BBX 11 14 2 0
BITMAP
CF00
DFC0
F0C0
E0E0
C060
C060
C060
C060
C060
C060
E0E0
F0C0
DFC0
CF00
ENDCHAR
STARTCHAR 0253
ENCODING 595
SWIDTH 600 0
DWIDTH 15 0
BBX 11 19 2 0
BITMAP
7800
F800
C000
C000
C000
CF00
DFC0
F0C0
E0E0
C060
C060
C060
C060
C060
C060
E0E0
F0C0
DFC0
CF00
ENDCHAR
STARTCHAR 0254
ENCODING 596
SWIDTH 480 0
DWIDTH 12 0
BBX 9 14 1 0
BITMAP
FC00
FF00
8700
0380
0180
0180
0180
0180
0180
0180
0380
0700
FE00
FC00
ENDCHAR
STARTCHAR 0255
ENCODING 597
SWIDTH 480 0
DWIDTH 12 0
BBX 10 15 1 -1
BITMAP
1F80
3F80
7000
6000
E000
C000
C000
C700
DFC0
F8C0
70C0
70C0
FFC0
DF00
8000
ENDCHAR
STARTCHAR 0256
ENCODING 598
SWIDTH 560 0
DWIDTH 14 0
BBX 14 25 1 -6
BITMAP
0060
0060
0060
0060
0060
1E60
3FE0
70E0
E0E0
E060
C060
C060
C060
C060
E060
E0E0
70E0
3FE0
1E60
0060
0060
0060
0060
003C
003C
ENDCHAR
STARTCHAR 0257
ENCODING 599
SWIDTH 560 0
DWIDTH 14 0
BBX 14 19 1 0
BITMAP
003C
007C
0060
0060
0060
1E60
3FE0
70E0
E0E0
E060
C060
C060
C060
C060
E060
E0E0
70E0
3FE0
1E60
ENDCHAR
STARTCHAR 0258
ENCODING 600
SWIDTH 520 0
DWIDTH 13 0
BBX 11 14 1 0
BITMAP
1F00
3F80
61C0
E0C0
C060
FFE0
FFE0
0060
0060
00E0
00C0
01C0
7F80
7E00
ENDCHAR
STARTCHAR 0259
ENCODING 601
SWIDTH 520 0
DWIDTH 13 0
BBX 11 14 1 0
BITMAP
3E00
7F80
01C0
00C0
0060
0060
FFE0
FFE0
C060
C0E0
E0C0
61C0
3F80
1F00
ENDCHAR
STARTCHAR 025A
ENCODING 602
SWIDTH 760 0
DWIDTH 19 0
BBX 18 14 1 0
BITMAP
3F0000
7F8000
41C000
00E000
007C00
01FC00
0FEE00
FE67C0
606380
606000
60E000
70C000
3F8000
1F0000
ENDCHAR
STARTCHAR 025B
ENCODING 603
SWIDTH 440 0
DWIDTH 11 0
BBX 10 14 1 0
BITMAP
1F00
7F80
7080
6000
6000
7000
3F00
3F00
E000
C000
C000
E040
7FC0
3F80
ENDCHAR
STARTCHAR 025C
ENCODING 604
SWIDTH 440 0
DWIDTH 11 0
BBX 10 14 0 0
BITMAP
3F00
7F80
41C0
00C0
00C0
01C0
1F00
1F80
01C0
00C0
00C0
81C0
FF80
7F00
ENDCHAR
STARTCHAR 025D
ENCODING 605
SWIDTH 640 0
DWIDTH 16 0
BBX 16 14 0 0
BITMAP
3F00
7F80
41F0
00F0
00D8
019F
1E0F
1F80
01C0
00C0
00C0
81C0
FF80
7F00
ENDCHAR
STARTCHAR 025E
ENCODING 606
SWIDTH 560 0
DWIDTH 14 0
BBX 12 14 1 0
BITMAP
0F80
3FC0
70E0
6060
E060
C0E0
C780
C7E0
C070
E030
6030
7070
3FE0
0F80
ENDCHAR
STARTCHAR 025F
ENCODING 607
SWIDTH 280 0
DWIDTH 7 0
BBX 8 20 -2 -6
BITMAP
0C
0C
0C
0C
0C
0C
3F
3F
0C
0C
0C
0C
0C
0C
0C
0C
0C
1C
F8
F0
ENDCHAR
STARTCHAR 0260
ENCODING 608
SWIDTH 560 0
DWIDTH 14 0
BBX 14 25 1 -6
BITMAP
003C
007C
0060
0060
0060
1E60
3FE0
70E0
60E0
E060
C060
C060
C060
C060
E060
E0E0
70E0
3FE0
1E60
0060
0060
00E0
40E0
7FC0
3F00
ENDCHAR
STARTCHAR 0261
ENCODING 609
SWIDTH 560 0
DWIDTH 14 0
BBX 11 20 1 -6
BITMAP
1E60
3FE0
70E0
60E0
E060
C060
C060
C060
C060
E060
E0E0
70E0
3FE0
1E60
0060
0060
00E0
40E0
7FC0
3F00
ENDCHAR
STARTCHAR 0262
ENCODING 610
SWIDTH 560 0
DWIDTH 14 0
BBX 11 14 1 0
BITMAP
0FC0
3FE0
7040
6000
E000
C000
C3E0
C3E0
C060
E060
6060
7060
3FE0
1FC0
ENDCHAR
STARTCHAR 0263
ENCODING 611
SWIDTH 480 0
DWIDTH 12 0
BBX 12 20 0 -6
BITMAP
C030
E070
6060
7060
30C0
30C0
1980
1980
1980
0F00
0F00
0600
0F00
0F00
1F80
1980
1980
1980
1F80
0F00
ENDCHAR
STARTCHAR 0264
ENCODING 612
SWIDTH 480 0
DWIDTH 12 0
BBX 12 14 0 0
BITMAP
C030
E070
70C0
39C0
1980
0F00
0F00
0600
0F00
1F80
1980
1980
1F80
0F00
ENDCHAR
STARTCHAR 0265
ENCODING 613
SWIDTH 600 0
DWIDTH 15 0
BBX 11 20 2 -6
BITMAP
C060
C060
C060
C060
C060
C060
C060
C060
C060
C0E0
C0E0
E1E0
7F60
3E60
0060
0060
0060
0060
0060
0060
ENDCHAR
STARTCHAR 0266
ENCODING 614
SWIDTH 600 0
DWIDTH 15 0
BBX 11 19 2 0
BITMAP
7800
F800
C000
C000
C000
CF80
DFC0
F0E0
E0E0
E060
C060
C060
C060
C060
C060
C060
C060
C060
C060
ENDCHAR
STARTCHAR 0267
ENCODING 615
SWIDTH 600 0
DWIDTH 15 0
BBX 11 25 2 -6
BITMAP
7800
F800
C000
C000
C000
CF80
DFC0
F0E0
E0E0
E060
C060
C060
C060
C060
C060
C060
C060
C060
C060
0060
0060
0060
0060
03E0
03C0
ENDCHAR
STARTCHAR 0268
ENCODING 616
SWIDTH 320 0
DWIDTH 8 0
BBX 6 19 1 0
BITMAP
30
30
30
00
00
30
30
30
30
30
30
FC
FC
30
30
30
30
30
30
ENDCHAR
STARTCHAR 0269
ENCODING 617
SWIDTH 360 0
DWIDTH 9 0
BBX 6 14 2 0
BITMAP
C0
C0
C0
C0
C0
C0
C0
C0
C0
C0
C0
E0
7C
3C
ENDCHAR
STARTCHAR 026A
ENCODING 618
SWIDTH 320 0
DWIDTH 8 0
BBX 6 14 1 0
BITMAP
FC
78
30
30
30
30
30
30
30
30
30
30
78
FC
ENDCHAR
STARTCHAR 026B
ENCODING 619
SWIDTH 360 0
DWIDTH 9 0
BBX 9 19 0 0
BITMAP
1800
1800
1800
1800
1800
1800
1800
7980
F900
9F00
9E00
1800
1800
1800
1800
1800
1800
1800
1800
ENDCHAR
STARTCHAR 026C
ENCODING 620
SWIDTH 360 0
DWIDTH 9 0
BBX 9 19 0 0
BITMAP
0C00
0C00
0C00
0C00
0C00
0C00
7C00
FC00
CC00
FF80
7F80
0C00
0C00
0C00
0C00
0C00
0C00
0C00
0C00
ENDCHAR
STARTCHAR 026D
ENCODING 621
SWIDTH 240 0
DWIDTH 6 0
BBX 6 25 2 -6
BITMAP
C0
C0
C0
C0
C0
C0
C0
C0
C0
C0
C0
C0
C0
C0
C0
C0
C0
C0
C0
C0
C0
C0
E0
7C
3C
ENDCHAR
STARTCHAR 026E
ENCODING 622
SWIDTH 640 0
DWIDTH 16 0
BBX 13 25 2 -6
BITMAP
C000
C000
C000
C000
C000
FFF0
FFF0
C070
C0E0
C0C0
C180
C300
C700
C7C0
C7E0
C070
C038
C018
C018
0018
0018
0030
2070
3FE0
1F80
ENDCHAR
STARTCHAR 026F
ENCODING 623
SWIDTH 880 0
DWIDTH 22 0
BBX 18 14 2 0
BITMAP
C0C0C0
C0C0C0
C0C0C0
C0C0C0
C0C0C0
C0C0C0
C0C0C0
C0C0C0
C0C0C0
C0C0C0
C1C1C0
E1E1C0
7F7FC0
3C3CC0
ENDCHAR
STARTCHAR 0270
ENCODING 624
SWIDTH 880 0
DWIDTH 22 0
BBX 18 20 2 -6
BITMAP
C0C0C0
C0C0C0
C0C0C0
C0C0C0
C0C0C0
C0C0C0
C0C0C0
C0C0C0
C0C0C0
C0C0C0
C1C1C0
E1E1C0
7F7FC0
3C3CC0
0000C0
0000C0
0000C0
0000C0
0000C0
0000C0
ENDCHAR
STARTCHAR 0271
ENCODING 625
SWIDTH 880 0
DWIDTH 22 0
BBX 18 20 2 -6
BITMAP
CF0F00
DFBF80
F1E1C0
E0E0C0
C0C0C0
C0C0C0
C0C0C0
C0C0C0
C0C0C0
C0C0C0
C0C0C0
C0C0C0
C0C0C0
C0C0C0
0000C0
0000C0
0000C0
0000C0
0003C0
000380
ENDCHAR
STARTCHAR 0272
ENCODING 626
SWIDTH 600 0
DWIDTH 15 0
BBX 14 20 -1 -6
BITMAP
19F0
1BF8
1E1C
1C1C
1C0C
180C
180C
180C
180C
180C
180C
180C
180C
180C
1800
1800
1800
1800
F800
F000
ENDCHAR
STARTCHAR 0273
ENCODING 627
SWIDTH 600 0
DWIDTH 15 0
BBX 14 20 2 -6
BITMAP
CF80
DFC0
F0E0
E0E0
E060
C060
C060
C060
C060
C060
C060
C060
C060
C060
0060
0060
0060
0060
007C
003C
ENDCHAR
STARTCHAR 0274
ENCODING 628
SWIDTH 600 0
DWIDTH 15 0
BBX 11 14 2 0
BITMAP
E060
F060
F060
D860
D860
CC60
CE60
C660
C760
C360
C3E0
C1E0
C0E0
C0E0
ENDCHAR
STARTCHAR 0275
ENCODING 629
SWIDTH 560 0
DWIDTH 14 0
BBX 12 14 1 0
BITMAP
1F00
3FC0
70E0
6060
C030
C030
FFF0
FFF0
C030
C030
6060
70E0
3FC0
1F80
ENDCHAR
STARTCHAR 0276
ENCODING 630
SWIDTH 800 0
DWIDTH 20 0
BBX 18 14 1 0
BITMAP
1F7FC0
3FFFC0
71E000
60E000
E06000
C06000
C07F80
C07F80
C06000
E06000
60E000
71E000
3FFFC0
1F7FC0
ENDCHAR
STARTCHAR 0277
ENCODING 631
SWIDTH 720 0
DWIDTH 18 0
BBX 16 14 1 0
BITMAP
07E0
1FF8
381C
700E
6006
E006
C187
C187
C187
C187
E186
63C6
7EFE
3C78
ENDCHAR
STARTCHAR 0278
ENCODING 632
SWIDTH 680 0
DWIDTH 17 0
BBX 15 25 1 -6
BITMAP
0300
0300
0300
0300
0300
0780
1FF0
3B78
631C
E30C
C306
C306
C306
C306
E30E
630C
731C
3FF8
1FE0
0300
0300
0300
0300
0300
0300
ENDCHAR
STARTCHAR 0279
ENCODING 633
SWIDTH 400 0
DWIDTH 10 0
BBX 7 14 1 0
BITMAP
06
06
06
06
06
06
06
06
06
06
0E
1E
F6
E6
ENDCHAR
STARTCHAR 027A
ENCODING 634
SWIDTH 400 0
DWIDTH 10 0
BBX 7 19 1 0
BITMAP
06
06
06
06
06
06
06
06
06
06
06
06
06
06
06
0E
1E
F6
E6
ENDCHAR
STARTCHAR 027B
ENCODING 635
SWIDTH 400 0
DWIDTH 10 0
BBX 10 20 1 -6
BITMAP
0600
0600
0600
0600
0600
0600
0600
0600
0600
0600
0E00
1E00
F600
E600
0600
0600
0600
0700
07C0
03C0
ENDCHAR
STARTCHAR 027C
ENCODING 636
SWIDTH 400 0
DWIDTH 10 0
BBX 7 20 2 -6
BITMAP
CE
DE
F0
E0
E0
C0
C0
C0
C0
C0
C0
C0
C0
C0
C0
C0
C0
C0
C0
C0
ENDCHAR
STARTCHAR 027D
ENCODING 637
SWIDTH 400 0
DWIDTH 10 0
BBX 8 20 2 -6
BITMAP
CF
DE
F0
E0
E0
C0
C0
C0
C0
C0
C0
C0
C0
C0
C0
C0
C0
E0
7C
3C
ENDCHAR
STARTCHAR 027E
ENCODING 638
SWIDTH 320 0
DWIDTH 8 0
BBX 6 14 2 0
BITMAP
3C
7C
E0
C0
C0
C0
C0
C0
C0
C0
C0
C0
C0
C0
ENDCHAR
STARTCHAR 027F
ENCODING 639
SWIDTH 320 0
DWIDTH 8 0
BBX 6 20 0 -6
BITMAP
F8
FC
0C
0C
0C
0C
0C
0C
0C
0C
0C
0C
0C
0C
0C
0C
0C
0C
0C
0C
ENDCHAR
STARTCHAR 0280
ENCODING 640
SWIDTH 520 0
DWIDTH 13 0
BBX 11 14 2 0
BITMAP
FF00
FF80
C1C0
C0C0
C0C0
C0C0
C1C0
FF80
FE00
C300
C380
C180
C1C0
C0E0
ENDCHAR
STARTCHAR 0281
ENCODING 641
SWIDTH 520 0
DWIDTH 13 0
BBX 11 14 2 0
BITMAP
C0E0
C0C0
C180
C380
C300
C700
FF00
FF80
C1C0
C0C0
C0C0
C1C0
FF80
FF00
ENDCHAR
STARTCHAR 0282
ENCODING 642
SWIDTH 440 0
DWIDTH 11 0
BBX 9 20 1 -6
BITMAP
3F00
7F00
E100
C000
E000
7000
3C00
0F00
0380
0180
0180
8380
FF00
FE00
C000
C000
C000
E000
7800
7800
ENDCHAR
STARTCHAR 0283
ENCODING 643
SWIDTH 240 0
DWIDTH 6 0
BBX 8 25 -1 -6
BITMAP
0F
1F
1C
18
18
18
18
18
18
18
18
18
18
18
18
18
18
18
18
18
18
18
18
F8
F0
ENDCHAR
STARTCHAR 0284
ENCODING 644
SWIDTH 240 0
DWIDTH 6 0
BBX 8 25 -1 -6
BITMAP
0F
1F
18
18
18
18
18
18
18
18
18
7E
7E
18
18
18
18
18
18
18
18
18
38
F0
F0
ENDCHAR
STARTCHAR 0285
ENCODING 645
SWIDTH 240 0
DWIDTH 6 0
BBX 8 20 -1 -6
BITMAP
F0
F8
18
18
18
18
18
18
18
18
18
18
18
18
18
18
18
1C
0F
0F
ENDCHAR
STARTCHAR 0286
ENCODING 646
SWIDTH 280 0
DWIDTH 7 0
BBX 10 25 -2 -6
BITMAP
03C0
07C0
0600
0600
0600
0600
0600
0600
0600
0600
0600
0600
0600
0600
0600
0600
0600
0600
0600
7F80
FF80
C600
CE00
FC00
7C00
ENDCHAR
STARTCHAR 0287
ENCODING 647
SWIDTH 400 0
DWIDTH 10 0
BBX 8 17 1 -3
BITMAP
F0
F8
1C
0C
0C
0C
0C
0C
0C
0C
0C
0C
FF
FF
0C
0C
08
ENDCHAR
STARTCHAR 0288
ENCODING 648
SWIDTH 400 0
DWIDTH 10 0
BBX 8 23 1 -6
BITMAP
30
30
30
FF
FF
30
30
30
30
30
30
30
30
30
30
30
30
30
30
30
38
3F
1F
ENDCHAR
STARTCHAR 0289
ENCODING 649
SWIDTH 640 0
DWIDTH 16 0
BBX 14 14 1 0
BITMAP
3030
3030
3030
3030
3030
FFFC
FFFC
3030
3030
3030
3070
3870
1FF0
0F30
ENDCHAR
STARTCHAR 028A
ENCODING 650
SWIDTH 600 0
DWIDTH 15 0
BBX 13 14 1 0
BITMAP
FDF8
FDF8
18C0
3060
7070
6030
6030
6030
6030
6030
7070
3060
1FC0
0F80
ENDCHAR
STARTCHAR 028B
ENCODING 651
SWIDTH 600 0
DWIDTH 15 0
BBX 11 14 2 0
BITMAP
C3C0
C3C0
C0E0
C060
C060
C060
C060
C060
C060
C060
E0E0
60C0
7FC0
1F00
ENDCHAR
STARTCHAR 028C
ENCODING 652
SWIDTH 480 0
DWIDTH 12 0
BBX 12 14 0 0
BITMAP
0600
0F00
0F00
0F00
1980
1980
1980
30C0
30C0
30E0
6060
6060
E070
E030
ENDCHAR
STARTCHAR 028D
ENCODING 653
SWIDTH 760 0
DWIDTH 19 0
BBX 18 14 0 0
BITMAP
0C0E00
1E0E00
1E0A00
1E1B00
1A1B00
331B00
331B00
333180
313180
71B180
61A180
61E0C0
60E0C0
E0E0C0
ENDCHAR
STARTCHAR 028E
ENCODING 654
SWIDTH 480 0
DWIDTH 12 0
BBX 12 20 0 0
BITMAP
00F0
01F0
0380
0300
0300
0600
0600
0700
0F00
0F00
1D80
1980
19C0
38C0
30C0
30E0
7060
6060
6070
E030
ENDCHAR
STARTCHAR 028F
ENCODING 655
SWIDTH 480 0
DWIDTH 12 0
BBX 10 14 1 0
BITMAP
C0C0
E0C0
6180
7180
3300
3B00
1E00
0E00
0C00
0C00
0C00
0C00
0C00
0C00
ENDCHAR
STARTCHAR 0290
ENCODING 656
SWIDTH 440 0
DWIDTH 11 0
BBX 13 20 0 -6
BITMAP
7FC0
7FC0
01C0
0380
0300
0700
0E00
0C00
1C00
3800
3000
6000
FFC0
FFC0
00C0
00C0
00C0
00C0
00F8
0078
ENDCHAR
STARTCHAR 0291
ENCODING 657
SWIDTH 520 0
DWIDTH 13 0
BBX 12 16 0 -2
BITMAP
7FC0
7FC0
01C0
0380
0300
0700
0E00
0C00
1CE0
39F0
3330
7630
FFF0
FFE0
0C00
0C00
ENDCHAR
STARTCHAR 0292
ENCODING 658
SWIDTH 480 0
DWIDTH 12 0
BBX 11 20 0 -6
BITMAP
7FE0
7FE0
00C0
0180
0380
0700
0E00
0C00
1F00
1FC0
01C0
00E0
0060
0060
0060
0060
00E0
C1C0
FF80
7F00
ENDCHAR
STARTCHAR 0293
ENCODING 659
SWIDTH 480 0
DWIDTH 12 0
BBX 12 20 0 -6
BITMAP
7FE0
7FE0
00C0
0180
0380
0700
0600
0C00
1F00
1FC0
01C0
00E0
0060
3C60
7F60
E3E0
C0E0
E1F0
7FB0
3E10
ENDCHAR
STARTCHAR 0294
ENCODING 660
SWIDTH 400 0
DWIDTH 10 0
BBX 9 19 0 0
BITMAP
3E00
FF00
4380
0180
0180
0180
0180
0380
0300
0E00
1C00
1800
1800
1800
1800
1800
1800
1800
1800
ENDCHAR
STARTCHAR 0295
ENCODING 661
SWIDTH 400 0
DWIDTH 10 0
BBX 9 19 1 0
BITMAP
3E00
7F80
E100
C000
C000
C000
E000
6000
7000
3800
1C00
0C00
0C00
0C00
0C00
0C00
0C00
0C00
0C00
ENDCHAR
STARTCHAR 0296
ENCODING 662
SWIDTH 400 0
DWIDTH 10 0
BBX 9 19 0 0
BITMAP
1800
1800
1800
1800
1800
1800
1800
1800
1C00
0E00
0700
0380
0180
0180
0180
0180
4380
FF00
3E00
ENDCHAR
STARTCHAR 0297
ENCODING 663
SWIDTH 440 0
DWIDTH 11 0
BBX 9 20 1 -6
BITMAP
0F80
3F80
7000
6000
6000
E000
C000
C000
C000
C000
C000
C000
C000
C000
E000
6000
6000
7000
3F80
1F80
ENDCHAR
STARTCHAR 0298
ENCODING 664
SWIDTH 720 0
DWIDTH 18 0
BBX 15 18 1 0
BITMAP
07E0
1FF0
3838
700C
600C
E006
C006
C386
C386
C386
C006
C006
E00E
600C
701C
3838
1FF0
07E0
ENDCHAR
STARTCHAR 0299
ENCODING 665
SWIDTH 560 0
DWIDTH 14 0
BBX 11 14 2 0
BITMAP
FF00
FFC0
C1C0
C0C0
C0C0
C1C0
FF00
FF80
C0E0
C060
C060
C0E0
FFC0
FF80
ENDCHAR
STARTCHAR 029A
ENCODING 666
SWIDTH 560 0
DWIDTH 14 0
BBX 12 14 1 0
BITMAP
3F00
7FC0
E0E0
C060
C070
6030
3E30
7E30
E030
C070
C060
E0E0
7FC0
3F00
ENDCHAR
STARTCHAR 029B
ENCODING 667
SWIDTH 520 0
DWIDTH 13 0
BBX 13 19 1 0
BITMAP
0078
00F8
00C0
00C0
00C0
1FC0
3FC0
7000
6000
E000
C000
C3C0
C3C0
C0C0
E0C0
E0C0
70C0
3FC0
1F80
ENDCHAR
STARTCHAR 029C
ENCODING 668
SWIDTH 600 0
DWIDTH 15 0
BBX 11 14 2 0
BITMAP
C060
C060
C060
C060
C060
C060
FFE0
FFE0
C060
C060
C060
C060
C060
C060
ENDCHAR
STARTCHAR 029D
ENCODING 669
SWIDTH 280 0
DWIDTH 7 0
BBX 8 25 -2 -6
BITMAP
0C
0C
0C
00
00
0C
0C
0C
0C
0C
0C
0C
0C
0C
0C
0C
0C
0C
0C
7F
FF
CC
CC
FC
78
ENDCHAR
STARTCHAR 029E
ENCODING 670
SWIDTH 520 0
DWIDTH 13 0
BBX 10 20 1 -6
BITMAP
E0C0
60C0
70C0
30C0
18C0
1CC0
0DC0
07C0
06C0
0CC0
18C0
38C0
70C0
E0C0
00C0
00C0
00C0
00C0
00C0
00C0
ENDCHAR
STARTCHAR 029F
ENCODING 671
SWIDTH 440 0
DWIDTH 11 0
BBX 8 14 2 0
BITMAP
C0
C0
C0
C0
C0
C0
C0
C0
C0
C0
C0
C0
FF
FF
ENDCHAR
STARTCHAR 02A0
ENCODING 672
SWIDTH 560 0
DWIDTH 14 0
BBX 14 25 1 -6
BITMAP
003C
007C
0070
0060
0060
1E60
3FE0
70E0
E0E0
E060
C060
C060
C060
C060
E060
E0E0
70E0
3FE0
1E60
0060
0060
0060
0060
0060
0060
ENDCHAR
STARTCHAR 02A1
ENCODING 673
SWIDTH 400 0
DWIDTH 10 0
BBX 9 19 0 0
BITMAP
3E00
FF00
4380
0180
0180
0180
0180
0380
0700
0E00
1C00
1800
1800
7F00
7F00
1800
1800
1800
1800
ENDCHAR
STARTCHAR 02A2
ENCODING 674
SWIDTH 440 0
DWIDTH 11 0
BBX 10 19 1 0
BITMAP
1F00
7FC0
E080
C000
C000
C000
E000
6000
7000
3800
1C00
0C00
0C00
3F80
3F80
0C00
0C00
0C00
0C00
ENDCHAR
STARTCHAR 02A3
ENCODING 675
SWIDTH 920 0
DWIDTH 23 0
BBX 21 19 1 0
BITMAP
006000
006000
006000
006000
006000
1E7FF8
3FFFF8
70E030
E0E070
E060E0
C060C0
C061C0
C06380
C06300
C06700
E0E600
70EC00
3FFFF8
1E7FF8
ENDCHAR
STARTCHAR 02A4
ENCODING 676
SWIDTH 920 0
DWIDTH 23 0
BBX 21 25 1 -6
BITMAP
006000
006000
006000
006000
006000
1E7FF8
3FFFF8
70E070
E0E060
E060C0
C061C0
C06380
C06700
C067C0
E067F0
E0E070
70E038
3FE018
1E6018
000018
000018
000038
003070
003FE0
001FC0
ENDCHAR
STARTCHAR 02A5
ENCODING 677
SWIDTH 1000 0
DWIDTH 25 0
BBX 23 21 1 -2
BITMAP
006000
006000
006000
006000
006000
1E7FF0
3FFFF0
70E070
E0E060
E060E0
C060C0
C06180
C06380
C0633C
C0667E
E0EEE6
70ECC6
3FFFFE
1E7FFC
000100
000100
ENDCHAR
STARTCHAR 02A6
ENCODING 678
SWIDTH 760 0
DWIDTH 19 0
BBX 17 17 1 0
BITMAP
100000
300000
300000
FFFF00
FFFF00
30C000
30C000
30C000
30F000
307C00
301F00
300780
300180
300180
380380
1FFF00
0FFE00
ENDCHAR
STARTCHAR 02A7
ENCODING 679
SWIDTH 520 0
DWIDTH 13 0
BBX 13 25 1 -6
BITMAP
0078
00F8
00C0
10C0
30C0
7FC0
FFC0
30C0
30C0
30C0
30C0
30C0
30C0
30C0
30C0
30C0
38C0
1FC0
0FC0
00C0
00C0
00C0
01C0
07C0
0780
ENDCHAR
STARTCHAR 02A8
ENCODING 680
SWIDTH 840 0
DWIDTH 21 0
BBX 19 17 1 0
BITMAP
300000
300000
300000
FF0FC0
FF1FC0
303800
307000
306000
306000
306000
306380
307FC0
3078E0
307060
30F8E0
3F9FC0
1F0F80
ENDCHAR
STARTCHAR 02A9
ENCODING 681
SWIDTH 840 0
DWIDTH 21 0
BBX 18 25 1 -6
BITMAP
0F0000
1F0000
380000
300000
300000
7F9F00
FFBF80
31E1C0
31C1C0
3180C0
3180C0
3180C0
3180C0
3180C0
3180C0
3180C0
3180C0
3180C0
3180C0
0000C0
0000C0
0000C0
0001C0
000780
000700
ENDCHAR
STARTCHAR 02AA
ENCODING 682
SWIDTH 640 0
DWIDTH 16 0
BBX 13 19 2 0
BITMAP
C000
C000
C000
C000
C000
C3F0
CFF0
CC10
CC00
CC00
CF00
C7C0
C0F0
C038
C018
C018
F038
FFF0
DFC0
ENDCHAR
STARTCHAR 02AB
ENCODING 683
SWIDTH 600 0
DWIDTH 15 0
BBX 12 19 2 0
BITMAP
C000
C000
C000
C000
C000
FFF0
FFF0
C060
C0C0
C1C0
C180
C300
C700
C600
CE00
CC00
D800
FFF0
FFF0
ENDCHAR
STARTCHAR 02AC
ENCODING 684
SWIDTH 480 0
DWIDTH 12 0
BBX 12 18 0 0
BITMAP
C630
C630
4F20
6F60
6960
7960
39C0
30C0
0000
0000
C630
4620
4F20
6960
6960
39C0
39C0
30C0
ENDCHAR
STARTCHAR 02AD
ENCODING 685
SWIDTH 560 0
DWIDTH 14 0
BBX 10 18 2 0
BITMAP
FFC0
FFC0
C0C0
C0C0
C0C0
C0C0
0000
0000
0000
0000
0000
0000
FFC0
FFC0
C0C0
C0C0
C0C0
C0C0
ENDCHAR
STARTCHAR 02AE
ENCODING 686
SWIDTH 600 0
DWIDTH 15 0
BBX 14 20 -1 -6
BITMAP
F00C
F80C
180C
180C
180C
180C
180C
180C
180C
181C
181C
1C3C
0FEC
07CC
000C
000C
000C
000C
000C
000C
ENDCHAR
STARTCHAR 02AF
ENCODING 687
SWIDTH 600 0
DWIDTH 15 0
BBX 16 20 -1 -6
BITMAP
F00C
F80C
180C
180C
180C
180C
180C
180C
180C
181C
181C
1C3C
0FEC
07CC
000C
000C
000C
000C
000F
0007
ENDCHAR
STARTCHAR 02B0
ENCODING 688
SWIDTH 400 0
DWIDTH 10 0
BBX 7 12 2 7
BITMAP
80
80
80
BC
C6
82
82
82
82
82
82
82
ENDCHAR
STARTCHAR 02B1
ENCODING 689
SWIDTH 400 0
DWIDTH 10 0
BBX 7 12 2 8
BITMAP
E0
80
80
BC
C6
82
82
82
82
82
82
82
ENDCHAR
STARTCHAR 02B2
ENCODING 690
SWIDTH 160 0
DWIDTH 4 0
BBX 3 15 0 5
BITMAP
20
00
00
20
20
20
20
20
20
20
20
20
20
60
C0
ENDCHAR
STARTCHAR 02B3
ENCODING 691
SWIDTH 280 0
DWIDTH 7 0
BBX 4 9 2 7
BITMAP
B0
C0
C0
80
80
80
80
80
80
ENDCHAR
STARTCHAR 02B4
ENCODING 692
SWIDTH 240 0
DWIDTH 6 0
BBX 5 9 0 7
BITMAP
08
08
08
08
08
08
18
38
E8
ENDCHAR
STARTCHAR 02B5
ENCODING 693
SWIDTH 240 0
DWIDTH 6 0
BBX 7 12 0 4
BITMAP
08
08
08
08
08
08
18
38
E8
08
08
0E
ENDCHAR
STARTCHAR 02B6
ENCODING 694
SWIDTH 360 0
DWIDTH 9 0
BBX 6 9 2 7
BITMAP
84
8C
88
98
F8
8C
84
8C
F8
ENDCHAR
STARTCHAR 02B7
ENCODING 695
SWIDTH 480 0
DWIDTH 12 0
BBX 12 9 0 7
BITMAP
C630
4630
4720
4D20
6960
2960
29C0
30C0
30C0
ENDCHAR
STARTCHAR 02B8
ENCODING 696
SWIDTH 320 0
DWIDTH 8 0
BBX 7 12 0 4
BITMAP
C2
C2
46
64
24
2C
38
18
18
10
30
E0
ENDCHAR
STARTCHAR 02B9
ENCODING 697
SWIDTH 160 0
DWIDTH 4 0
BBX 4 6 0 12
BITMAP
70
70
60
60
60
C0
ENDCHAR
STARTCHAR 02BA
ENCODING 698
SWIDTH 360 0
DWIDTH 9 0
BBX 8 6 0 12
BITMAP
73
73
67
66
46
C4
ENDCHAR
STARTCHAR 02BB
ENCODING 699
SWIDTH 160 0
DWIDTH 4 0
BBX 4 6 0 12
BITMAP
30
30
60
60
60
E0
ENDCHAR
STARTCHAR 02BC
ENCODING 700
SWIDTH 160 0
DWIDTH 4 0
BBX 4 6 0 12
BITMAP
70
70
60
60
60
C0
ENDCHAR
STARTCHAR 02BD
ENCODING 701
SWIDTH 160 0
DWIDTH 4 0
BBX 4 6 0 12
BITMAP
E0
60
60
60
30
30
ENDCHAR
STARTCHAR 02BE
ENCODING 702
SWIDTH 160 0
DWIDTH 4 0
BBX 3 6 0 15
BITMAP
C0
E0
20
20
E0
C0
ENDCHAR
STARTCHAR 02BF
ENCODING 703
SWIDTH 160 0
DWIDTH 4 0
BBX 2 6 1 15
BITMAP
40
C0
80
80
C0
40
ENDCHAR
STARTCHAR 02C0
ENCODING 704
SWIDTH 320 0
DWIDTH 8 0
BBX 7 9 0 11
BITMAP
38
FE
06
06
06
0E
38
30
30
ENDCHAR
STARTCHAR 02C1
ENCODING 705
SWIDTH 320 0
DWIDTH 8 0
BBX 6 9 1 11
BITMAP
38
7C
E0
C0
C0
60
38
18
18
ENDCHAR
STARTCHAR 02C2
ENCODING 706
SWIDTH 320 0
DWIDTH 8 0
BBX 6 6 1 14
BITMAP
0C
30
40
C0
30
0C
ENDCHAR
STARTCHAR 02C3
ENCODING 707
SWIDTH 320 0
DWIDTH 8 0
BBX 6 6 1 14
BITMAP
80
60
18
0C
70
80
ENDCHAR
STARTCHAR 02C4
ENCODING 708
SWIDTH 280 0
DWIDTH 7 0
BBX 5 6 1 14
BITMAP
20
60
50
90
88
88
ENDCHAR
STARTCHAR 02C5
ENCODING 709
SWIDTH 280 0
DWIDTH 7 0
BBX 5 6 1 14
BITMAP
88
88
50
50
30
20
ENDCHAR
STARTCHAR 02C6
ENCODING 710
SWIDTH 400 0
DWIDTH 10 0
BBX 8 4 1 16
BITMAP
18
3C
66
C3
ENDCHAR
STARTCHAR 02C7
ENCODING 711
SWIDTH 400 0
DWIDTH 10 0
BBX 8 4 1 16
BITMAP
C3
66
3C
18
ENDCHAR
STARTCHAR 02C8
ENCODING 712
SWIDTH 160 0
DWIDTH 4 0
BBX 2 4 1 15
BITMAP
C0
C0
C0
C0
ENDCHAR
STARTCHAR 02C9
ENCODING 713
SWIDTH 360 0
DWIDTH 9 0
BBX 7 2 1 16
BITMAP
FE
FE
ENDCHAR
STARTCHAR 02CA
ENCODING 714
SWIDTH 280 0
DWIDTH 7 0
BBX 5 4 1 16
BITMAP
38
70
60
C0
ENDCHAR
STARTCHAR 02CB
ENCODING 715
SWIDTH 280 0
DWIDTH 7 0
BBX 5 4 1 16
BITMAP
E0
60
30
18
ENDCHAR
STARTCHAR 02CC
ENCODING 716
SWIDTH 160 0
DWIDTH 4 0
BBX 2 4 1 -5
BITMAP
C0
C0
C0
C0
ENDCHAR
STARTCHAR 02CD
ENCODING 717
SWIDTH 360 0
DWIDTH 9 0
BBX 7 2 1 -4
BITMAP
FE
FE
ENDCHAR
STARTCHAR 02CE
ENCODING 718
SWIDTH 280 0
DWIDTH 7 0
BBX 5 4 1 -5
BITMAP
E0
60
30
18
ENDCHAR
STARTCHAR 02CF
ENCODING 719
SWIDTH 280 0
DWIDTH 7 0
BBX 5 4 1 -5
BITMAP
38
70
60
C0
ENDCHAR
STARTCHAR 02D0
ENCODING 720
SWIDTH 320 0
DWIDTH 8 0
BBX 4 14 2 0
BITMAP
F0
60
40
00
00
00
00
00
00
00
00
40
60
F0
ENDCHAR
STARTCHAR 02D1
ENCODING 721
SWIDTH 320 0
DWIDTH 8 0
BBX 4 3 2 10
BITMAP
F0
60
40
ENDCHAR
STARTCHAR 02D2
ENCODING 722
SWIDTH 200 0
DWIDTH 5 0
BBX 3 6 1 5
BITMAP
C0
E0
20
20
E0
C0
ENDCHAR
STARTCHAR 02D3
ENCODING 723
SWIDTH 160 0
DWIDTH 4 0
BBX 2 6 1 5
BITMAP
40
C0
80
80
C0
40
ENDCHAR
STARTCHAR 02D4
ENCODING 724
SWIDTH 280 0
DWIDTH 7 0
BBX 5 4 1 6
BITMAP
60
60
F8
F8
ENDCHAR
STARTCHAR 02D5
ENCODING 725
SWIDTH 280 0
DWIDTH 7 0
BBX 5 5 1 6
BITMAP
F8
F8
60
60
60
ENDCHAR
STARTCHAR 02D6
ENCODING 726
SWIDTH 280 0
DWIDTH 7 0
BBX 5 5 1 5
BITMAP
60
F8
F8
60
60
ENDCHAR
STARTCHAR 02D7
ENCODING 727
SWIDTH 280 0
DWIDTH 7 0
BBX 5 2 1 7
BITMAP
F8
F8
ENDCHAR
STARTCHAR 02D8
ENCODING 728
SWIDTH 360 0
DWIDTH 9 0
BBX 7 4 1 16
BITMAP
82
C2
FE
7C
ENDCHAR
STARTCHAR 02D9
ENCODING 729
SWIDTH 160 0
DWIDTH 4 0
BBX 2 3 1 16
BITMAP
C0
C0
C0
ENDCHAR
STARTCHAR 02DA
ENCODING 730
SWIDTH 280 0
DWIDTH 7 0
BBX 5 5 1 16
BITMAP
70
98
88
F8
70
ENDCHAR
STARTCHAR 02DB
ENCODING 731
SWIDTH 240 0
DWIDTH 6 0
BBX 4 6 1 -6
BITMAP
20
60
C0
C0
F0
70
ENDCHAR
STARTCHAR 02DC
ENCODING 732
SWIDTH 440 0
DWIDTH 11 0
BBX 9 3 1 16
BITMAP
7180
FF00
8F00
ENDCHAR
STARTCHAR 02DD
ENCODING 733
SWIDTH 440 0
DWIDTH 11 0
BBX 8 4 1 16
BITMAP
33
77
66
CC
ENDCHAR
STARTCHAR 02DE
ENCODING 734
SWIDTH 240 0
DWIDTH 6 0
BBX 9 5 -3 5
BITMAP
7800
F800
1800
0F80
0700
ENDCHAR
STARTCHAR 02DF
ENCODING 735
SWIDTH 280 0
DWIDTH 7 0
BBX 5 5 1 15
BITMAP
10
D8
70
70
D8
ENDCHAR
STARTCHAR 02E0
ENCODING 736
SWIDTH 280 0
DWIDTH 7 0
BBX 7 12 0 4
BITMAP
82
C6
44
4C
28
28
10
10
38
28
28
38
ENDCHAR
STARTCHAR 02E1
ENCODING 737
SWIDTH 160 0
DWIDTH 4 0
BBX 1 12 2 7
BITMAP
80
80
80
80
80
80
80
80
80
80
80
80
ENDCHAR
STARTCHAR 02E2
ENCODING 738
SWIDTH 280 0
DWIDTH 7 0
BBX 5 9 1 7
BITMAP
78
88
80
C0
70
18
08
18
F0
ENDCHAR
STARTCHAR 02E3
ENCODING 739
SWIDTH 320 0
DWIDTH 8 0
BBX 7 9 1 7
BITMAP
84
CC
68
38
30
38
48
CC
86
ENDCHAR
STARTCHAR 02E4
ENCODING 740
SWIDTH 280 0
DWIDTH 7 0
BBX 6 12 1 8
BITMAP
FC
80
80
80
C0
60
30
10
10
10
10
10
ENDCHAR
STARTCHAR 02E5
ENCODING 741
SWIDTH 400 0
DWIDTH 10 0
BBX 7 18 1 0
BITMAP
FE
FE
06
06
06
06
06
06
06
06
06
06
06
06
06
06
06
06
ENDCHAR
STARTCHAR 02E6
ENCODING 742
SWIDTH 400 0
DWIDTH 10 0
BBX 7 18 1 0
BITMAP
06
06
06
06
FE
FE
06
06
06
06
06
06
06
06
06
06
06
06
ENDCHAR
STARTCHAR 02E7
ENCODING 743
SWIDTH 400 0
DWIDTH 10 0
BBX 7 18 1 0
BITMAP
06
06
06
06
06
06
06
06
FE
FE
06
06
06
06
06
06
06
06
ENDCHAR
STARTCHAR 02E8
ENCODING 744
SWIDTH 400 0
DWIDTH 10 0
BBX 7 18 1 0
BITMAP
06
06
06
06
06
06
06
06
06
06
06
06
FE
FE
06
06
06
06
ENDCHAR
STARTCHAR 02E9
ENCODING 745
SWIDTH 400 0
DWIDTH 10 0
BBX 7 18 1 0
BITMAP
06
06
06
06
06
06
06
06
06
06
06
06
06
06
06
06
FE
FE
ENDCHAR
STARTCHAR 02EA
ENCODING 746
SWIDTH 400 0
DWIDTH 10 0
BBX 6 10 2 4
BITMAP
C0
C0
C0
C0
C0
C0
C0
C0
FC
FC
ENDCHAR
STARTCHAR 02EB
ENCODING 747
SWIDTH 400 0
DWIDTH 10 0
BBX 6 9 2 4
BITMAP
C0
C0
C0
FC
FC
C0
C0
C0
C0
ENDCHAR
STARTCHAR 02EC
ENCODING 748
SWIDTH 400 0
DWIDTH 10 0
BBX 8 4 1 -5
BITMAP
C3
66
3C
18
ENDCHAR
STARTCHAR 02ED
ENCODING 749
SWIDTH 480 0
DWIDTH 12 0
BBX 10 5 1 15
BITMAP
FFC0
FFC0
0000
FFC0
FFC0
ENDCHAR
STARTCHAR 02EE
ENCODING 750
SWIDTH 360 0
DWIDTH 9 0
BBX 8 6 0 12
BITMAP
73
73
67
66
46
C4
ENDCHAR
STARTCHAR 02EF
ENCODING 751
SWIDTH 400 0
DWIDTH 10 0
BBX 8 6 1 -6
BITMAP
C3
46
66
3C
38
18
ENDCHAR
STARTCHAR 02F0
ENCODING 752
SWIDTH 400 0
DWIDTH 10 0
BBX 8 6 1 -6
BITMAP
18
18
3C
6C
66
C3
ENDCHAR
STARTCHAR 02F1
ENCODING 753
SWIDTH 320 0
DWIDTH 8 0
BBX 6 6 1 -5
BITMAP
0C
78
E0
F0
3C
04
ENDCHAR
STARTCHAR 02F2
ENCODING 754
SWIDTH 320 0
DWIDTH 8 0
BBX 6 6 1 -5
BITMAP
C0
78
1C
3C
F0
80
ENDCHAR
STARTCHAR 02F3
ENCODING 755
SWIDTH 280 0
DWIDTH 7 0
BBX 5 6 1 -7
BITMAP
70
F8
88
88
F8
70
ENDCHAR
STARTCHAR 02F4
ENCODING 756
SWIDTH 280 0
DWIDTH 7 0
BBX 5 4 1 7
BITMAP
E0
60
30
18
ENDCHAR
STARTCHAR 02F5
ENCODING 757
SWIDTH 440 0
DWIDTH 11 0
BBX 8 4 1 7
BITMAP
EE
66
33
11
ENDCHAR
STARTCHAR 02F6
ENCODING 758
SWIDTH 440 0
DWIDTH 11 0
BBX 8 4 1 7
BITMAP
33
77
66
CC
ENDCHAR
STARTCHAR 02F7
ENCODING 759
SWIDTH 440 0
DWIDTH 11 0
BBX 9 3 1 -5
BITMAP
7180
FF00
8F00
ENDCHAR
STARTCHAR 02F8
ENCODING 760
SWIDTH 280 0
DWIDTH 7 0
BBX 3 14 2 5
BITMAP
E0
E0
E0
00
00
00
00
00
00
00
00
E0
E0
E0
ENDCHAR
STARTCHAR 02F9
ENCODING 761
SWIDTH 240 0
DWIDTH 6 0
BBX 4 8 1 10
BITMAP
F0
F0
80
80
80
80
80
80
ENDCHAR
STARTCHAR 02FA
ENCODING 762
SWIDTH 240 0
DWIDTH 6 0
BBX 4 8 1 10
BITMAP
F0
F0
10
10
10
10
10
10
ENDCHAR
STARTCHAR 02FB
ENCODING 763
SWIDTH 240 0
DWIDTH 6 0
BBX 4 7 1 0
BITMAP
80
80
80
80
80
F0
F0
ENDCHAR
STARTCHAR 02FC
ENCODING 764
SWIDTH 240 0
DWIDTH 6 0
BBX 4 7 1 0
BITMAP
10
10
10
10
10
F0
F0
ENDCHAR
STARTCHAR 02FD
ENCODING 765
SWIDTH 480 0
DWIDTH 12 0
BBX 10 4 1 -5
BITMAP
8040
8040
FFC0
FFC0
ENDCHAR
STARTCHAR 02FE
ENCODING 766
SWIDTH 480 0
DWIDTH 12 0
BBX 10 4 1 -5
BITMAP
8000
8000
FFC0
FFC0
ENDCHAR
STARTCHAR 02FF
ENCODING 767
SWIDTH 520 0
DWIDTH 13 0
BBX 11 8 1 -6
BITMAP
0400
1C00
7000
FFE0
FFE0
7000
1C00
0400
ENDCHAR
STARTCHAR 0300
ENCODING 768
SWIDTH 0 0
DWIDTH 0 0
BBX 4 4 -12 16
BITMAP
C0
E0
60
30
ENDCHAR
STARTCHAR 0301
ENCODING 769
SWIDTH 0 0
DWIDTH 0 0
BBX 5 4 -2 16
BITMAP
38
30
60
C0
ENDCHAR
STARTCHAR 0302
ENCODING 770
SWIDTH 0 0
DWIDTH 0 0
BBX 8 4 -4 16
BITMAP
18
3C
66
C3
ENDCHAR
STARTCHAR 0303
ENCODING 771
SWIDTH 0 0
DWIDTH 0 0
BBX 8 3 -4 16
BITMAP
71
FF
8E
ENDCHAR
STARTCHAR 0304
ENCODING 772
SWIDTH 0 0
DWIDTH 0 0
BBX 7 2 -3 16
BITMAP
FE
FE
ENDCHAR
STARTCHAR 0305
ENCODING 773
SWIDTH 0 0
DWIDTH 0 0
BBX 10 2 -5 20
BITMAP
FFC0
FFC0
ENDCHAR
STARTCHAR 0306
ENCODING 774
SWIDTH 0 0
DWIDTH 0 0
BBX 7 4 -4 16
BITMAP
82
C2
FE
7C
ENDCHAR
STARTCHAR 0307
ENCODING 775
SWIDTH 0 0
DWIDTH 0 0
BBX 2 3 -1 16
BITMAP
C0
C0
C0
ENDCHAR
STARTCHAR 0308
ENCODING 776
SWIDTH 0 0
DWIDTH 0 0
BBX 7 3 -3 16
BITMAP
C6
C6
C6
ENDCHAR
STARTCHAR 0309
ENCODING 777
SWIDTH 0 0
DWIDTH 0 0
BBX 4 7 -8 15
BITMAP
E0
F0
30
30
E0
C0
C0
ENDCHAR
STARTCHAR 030A
ENCODING 778
SWIDTH 0 0
DWIDTH 0 0
BBX 5 5 -2 16
BITMAP
70
98
88
F8
70
ENDCHAR
STARTCHAR 030B
ENCODING 779
SWIDTH 0 0
DWIDTH 0 0
BBX 8 4 -4 16
BITMAP
33
66
C6
8C
ENDCHAR
STARTCHAR 030C
ENCODING 780
SWIDTH 0 0
DWIDTH 0 0
BBX 8 4 -4 16
BITMAP
C3
66
3C
18
ENDCHAR
STARTCHAR 030D
ENCODING 781
SWIDTH 0 0
DWIDTH 0 0
BBX 2 4 -1 15
BITMAP
C0
C0
C0
C0
ENDCHAR
STARTCHAR 030E
ENCODING 782
SWIDTH 0 0
DWIDTH 0 0
BBX 6 4 -3 15
BITMAP
CC
CC
CC
CC
ENDCHAR
STARTCHAR 030F
ENCODING 783
SWIDTH 0 0
DWIDTH 0 0
BBX 8 4 -12 16
BITMAP
CC
66
63
31
ENDCHAR
STARTCHAR 0310
ENCODING 784
SWIDTH 0 0
DWIDTH 0 0
BBX 7 6 -3 16
BITMAP
30
30
30
86
FC
78
ENDCHAR
STARTCHAR 0311
ENCODING 785
SWIDTH 0 0
DWIDTH 0 0
BBX 7 4 -3 15
BITMAP
38
FC
C6
82
ENDCHAR
STARTCHAR 0312
ENCODING 786
SWIDTH 0 0
DWIDTH 0 0
BBX 4 6 -2 12
BITMAP
30
60
60
60
E0
E0
ENDCHAR
STARTCHAR 0313
ENCODING 787
SWIDTH 0 0
DWIDTH 0 0
BBX 4 6 -2 12
BITMAP
70
60
60
60
C0
C0
ENDCHAR
STARTCHAR 0314
ENCODING 788
SWIDTH 0 0
DWIDTH 0 0
BBX 4 6 -2 12
BITMAP
E0
E0
60
60
60
30
ENDCHAR
STARTCHAR 0315
ENCODING 789
SWIDTH 0 0
DWIDTH 0 0
BBX 4 6 -2 12
BITMAP
70
60
60
60
C0
C0
ENDCHAR
STARTCHAR 0316
ENCODING 790
SWIDTH 0 0
DWIDTH 0 0
BBX 5 4 -3 -5
BITMAP
E0
70
30
18
ENDCHAR
STARTCHAR 0317
ENCODING 791
SWIDTH 0 0
DWIDTH 0 0
BBX 4 4 -2 -5
BITMAP
30
60
E0
C0
ENDCHAR
STARTCHAR 0318
ENCODING 792
SWIDTH 0 0
DWIDTH 0 0
BBX 5 5 -2 -6
BITMAP
18
18
F8
F8
18
ENDCHAR
STARTCHAR 0319
ENCODING 793
SWIDTH 0 0
DWIDTH 0 0
BBX 4 5 -2 -6
BITMAP
C0
C0
F0
F0
C0
ENDCHAR
STARTCHAR 031A
ENCODING 794
SWIDTH 0 0
DWIDTH 0 0
BBX 9 6 -4 15
BITMAP
FF80
FF80
0180
0180
0180
0180
ENDCHAR
STARTCHAR 031B
ENCODING 795
SWIDTH 0 0
DWIDTH 0 0
BBX 5 5 -2 14
BITMAP
38
38
30
F0
C0
ENDCHAR
STARTCHAR 031C
ENCODING 796
SWIDTH 0 0
DWIDTH 0 0
BBX 2 6 -1 -6
BITMAP
40
C0
80
80
C0
40
ENDCHAR
STARTCHAR 031D
ENCODING 797
SWIDTH 0 0
DWIDTH 0 0
BBX 5 4 -2 -5
BITMAP
60
60
F8
F8
ENDCHAR
STARTCHAR 031E
ENCODING 798
SWIDTH 0 0
DWIDTH 0 0
BBX 5 5 -2 -6
BITMAP
F8
F8
60
60
60
ENDCHAR
STARTCHAR 031F
ENCODING 799
SWIDTH 0 0
DWIDTH 0 0
BBX 5 5 -2 -6
BITMAP
60
F8
F8
60
60
ENDCHAR
STARTCHAR 0320
ENCODING 800
SWIDTH 0 0
DWIDTH 0 0
BBX 5 2 -2 -4
BITMAP
F8
F8
ENDCHAR
STARTCHAR 0321
ENCODING 801
SWIDTH 0 0
DWIDTH 0 0
BBX 5 7 -5 -6
BITMAP
18
18
18
18
18
F8
F0
ENDCHAR
STARTCHAR 0322
ENCODING 802
SWIDTH 0 0
DWIDTH 0 0
BBX 5 7 0 -6
BITMAP
C0
C0
C0
C0
C0
F8
78
ENDCHAR
STARTCHAR 0323
ENCODING 803
SWIDTH 0 0
DWIDTH 0 0
BBX 2 3 -8 -5
BITMAP
C0
C0
C0
ENDCHAR
STARTCHAR 0324
ENCODING 804
SWIDTH 0 0
DWIDTH 0 0
BBX 7 3 -3 -4
BITMAP
C6
C6
C6
ENDCHAR
STARTCHAR 0325
ENCODING 805
SWIDTH 0 0
DWIDTH 0 0
BBX 5 6 -2 -6
BITMAP
70
F8
88
88
F8
70
ENDCHAR
STARTCHAR 0326
ENCODING 806
SWIDTH 0 0
DWIDTH 0 0
BBX 3 4 -2 -6
BITMAP
60
60
40
C0
ENDCHAR
STARTCHAR 0327
ENCODING 807
SWIDTH 0 0
DWIDTH 0 0
BBX 5 6 -2 -6
BITMAP
20
60
38
18
F8
F0
ENDCHAR
STARTCHAR 0328
ENCODING 808
SWIDTH 0 0
DWIDTH 0 0
BBX 4 6 -2 -6
BITMAP
20
60
C0
C0
F0
70
ENDCHAR
STARTCHAR 0329
ENCODING 809
SWIDTH 0 0
DWIDTH 0 0
BBX 2 4 -1 -5
BITMAP
C0
C0
C0
C0
ENDCHAR
STARTCHAR 032A
ENCODING 810
SWIDTH 0 0
DWIDTH 0 0
BBX 9 5 -4 -6
BITMAP
FF80
FF80
C180
C180
C180
ENDCHAR
STARTCHAR 032B
ENCODING 811
SWIDTH 0 0
DWIDTH 0 0
BBX 9 3 -4 -5
BITMAP
8880
FF80
7700
ENDCHAR
STARTCHAR 032C
ENCODING 812
SWIDTH 0 0
DWIDTH 0 0
BBX 8 4 -4 -5
BITMAP
C3
66
3C
18
ENDCHAR
STARTCHAR 032D
ENCODING 813
SWIDTH 0 0
DWIDTH 0 0
BBX 8 4 -4 -5
BITMAP
18
3C
66
C3
ENDCHAR
STARTCHAR 032E
ENCODING 814
SWIDTH 0 0
DWIDTH 0 0
BBX 7 4 -4 -5
BITMAP
82
C2
FE
7C
ENDCHAR
STARTCHAR 032F
ENCODING 815
SWIDTH 0 0
DWIDTH 0 0
BBX 7 4 -3 -5
BITMAP
38
FC
C6
82
ENDCHAR
STARTCHAR 0330
ENCODING 816
SWIDTH 0 0
DWIDTH 0 0
BBX 8 3 -4 -5
BITMAP
71
FF
8E
ENDCHAR
STARTCHAR 0331
ENCODING 817
SWIDTH 0 0
DWIDTH 0 0
BBX 7 2 -3 -4
BITMAP
FE
FE
ENDCHAR
STARTCHAR 0332
ENCODING 818
SWIDTH 0 0
DWIDTH 0 0
BBX 11 2 -5 -4
BITMAP
FFE0
FFE0
ENDCHAR
STARTCHAR 0333
ENCODING 819
SWIDTH 0 0
DWIDTH 0 0
BBX 10 5 -5 -6
BITMAP
FFC0
FFC0
0000
FFC0
FFC0
ENDCHAR
STARTCHAR 0334
ENCODING 820
SWIDTH 0 0
DWIDTH 0 0
BBX 8 3 -4 5
BITMAP
71
FF
8E
ENDCHAR
STARTCHAR 0335
ENCODING 821
SWIDTH 0 0
DWIDTH 0 0
BBX 10 2 -5 7
BITMAP
FFC0
FFC0
ENDCHAR
STARTCHAR 0336
ENCODING 822
SWIDTH 0 0
DWIDTH 0 0
BBX 17 2 -8 6
BITMAP
FFFF80
FFFF80
ENDCHAR
STARTCHAR 0337
ENCODING 823
SWIDTH 0 0
DWIDTH 0 0
BBX 6 5 -3 5
BITMAP
04
1C
78
E0
C0
ENDCHAR
STARTCHAR 0338
ENCODING 824
SWIDTH 0 0
DWIDTH 0 0
BBX 10 21 -5 -1
BITMAP
00C0
0180
0180
0100
0300
0300
0600
0600
0600
0C00
0C00
0C00
1800
1800
1800
3000
3000
2000
6000
6000
C000
ENDCHAR
STARTCHAR 0339
ENCODING 825
SWIDTH 0 0
DWIDTH 0 0
BBX 3 6 -1 -6
BITMAP
C0
E0
20
20
E0
C0
ENDCHAR
STARTCHAR 033A
ENCODING 826
SWIDTH 0 0
DWIDTH 0 0
BBX 9 5 -4 -6
BITMAP
C180
C180
C180
FF80
FF80
ENDCHAR
STARTCHAR 033B
ENCODING 827
SWIDTH 0 0
DWIDTH 0 0
BBX 9 5 -4 -6
BITMAP
FF80
FF80
8080
FF80
FF80
ENDCHAR
STARTCHAR 033C
ENCODING 828
SWIDTH 0 0
DWIDTH 0 0
BBX 9 4 -4 -5
BITMAP
7700
FF80
8880
8880
ENDCHAR
STARTCHAR 033D
ENCODING 829
SWIDTH 0 0
DWIDTH 0 0
BBX 4 5 -2 15
BITMAP
90
F0
60
F0
90
ENDCHAR
STARTCHAR 033E
ENCODING 830
SWIDTH 0 0
DWIDTH 0 0
BBX 3 8 -1 15
BITMAP
60
E0
C0
C0
60
60
E0
C0
ENDCHAR
STARTCHAR 033F
ENCODING 831
SWIDTH 0 0
DWIDTH 0 0
BBX 10 5 -5 20
BITMAP
FFC0
FFC0
0000
FFC0
FFC0
ENDCHAR
STARTCHAR 0340
ENCODING 832
SWIDTH 0 0
DWIDTH 0 0
BBX 4 4 -4 16
BITMAP
E0
60
30
10
ENDCHAR
STARTCHAR 0341
ENCODING 833
SWIDTH 0 0
DWIDTH 0 0
BBX 4 4 -2 16
BITMAP
30
60
E0
C0
ENDCHAR
STARTCHAR 0342
ENCODING 834
SWIDTH 0 0
DWIDTH 0 0
BBX 8 3 -4 16
BITMAP
71
FF
8E
ENDCHAR
STARTCHAR 0343
ENCODING 835
SWIDTH 0 0
DWIDTH 0 0
BBX 2 4 -1 14
BITMAP
C0
C0
C0
80
ENDCHAR
STARTCHAR 0344
ENCODING 836
SWIDTH 0 0
DWIDTH 0 0
BBX 7 6 -4 16
BITMAP
0C
1C
18
D6
D6
C6
ENDCHAR
STARTCHAR 0345
ENCODING 837
SWIDTH 0 0
DWIDTH 0 0
BBX 4 4 -1 -6
BITMAP
C0
C0
F0
70
ENDCHAR
STARTCHAR 0346
ENCODING 838
SWIDTH 0 0
DWIDTH 0 0
BBX 10 5 -5 15
BITMAP
FFC0
FFC0
C0C0
C0C0
C0C0
ENDCHAR
STARTCHAR 0347
ENCODING 839
SWIDTH 0 0
DWIDTH 0 0
BBX 10 5 -5 -6
BITMAP
FFC0
FFC0
0000
FFC0
FFC0
ENDCHAR
STARTCHAR 0348
ENCODING 840
SWIDTH 0 0
DWIDTH 0 0
BBX 6 4 -3 -5
BITMAP
CC
CC
CC
CC
ENDCHAR
STARTCHAR 0349
ENCODING 841
SWIDTH 0 0
DWIDTH 0 0
BBX 5 5 -2 -6
BITMAP
F8
F8
18
18
18
ENDCHAR
STARTCHAR 034A
ENCODING 842
SWIDTH 0 0
DWIDTH 0 0
BBX 8 5 -4 15
BITMAP
08
79
FF
9E
20
ENDCHAR
STARTCHAR 034B
ENCODING 843
SWIDTH 0 0
DWIDTH 0 0
BBX 8 9 -4 15
BITMAP
18
18
18
71
FF
8E
18
18
18
ENDCHAR
STARTCHAR 034C
ENCODING 844
SWIDTH 0 0
DWIDTH 0 0
BBX 8 7 -4 16
BITMAP
61
7B
DE
86
71
FF
8E
ENDCHAR
STARTCHAR 034D
ENCODING 845
SWIDTH 0 0
DWIDTH 0 0
BBX 7 5 -3 -6
BITMAP
4C
FE
FE
4C
08
ENDCHAR
STARTCHAR 034E
ENCODING 846
SWIDTH 0 0
DWIDTH 0 0
BBX 4 5 -2 -6
BITMAP
60
F0
60
60
60
ENDCHAR
STARTCHAR 034F
ENCODING 847
SWIDTH 0 0
DWIDTH 0 0
BBX 17 18 -8 0
BITMAP
F3C780
F3C780
800080
82A080
0A2800
080800
100400
900480
900480
900480
900480
100400
080800
0A2800
82A080
808080
F3C780
F3C780
ENDCHAR
STARTCHAR 0350
ENCODING 848
SWIDTH 0 0
DWIDTH 0 0
BBX 4 5 -2 15
BITMAP
80
F0
30
F0
80
ENDCHAR
STARTCHAR 0351
ENCODING 849
SWIDTH 0 0
DWIDTH 0 0
BBX 2 6 -1 15
BITMAP
40
C0
80
80
C0
40
ENDCHAR
STARTCHAR 0352
ENCODING 850
SWIDTH 0 0
DWIDTH 0 0
BBX 7 6 -3 16
BITMAP
78
FE
86
30
30
30
ENDCHAR
STARTCHAR 0353
ENCODING 851
SWIDTH 0 0
DWIDTH 0 0
BBX 4 4 -2 -6
BITMAP
90
F0
60
F0
ENDCHAR
STARTCHAR 0354
ENCODING 852
SWIDTH 0 0
DWIDTH 0 0
BBX 4 5 -2 -6
BITMAP
10
F0
C0
F0
10
ENDCHAR
STARTCHAR 0355
ENCODING 853
SWIDTH 0 0
DWIDTH 0 0
BBX 4 5 -2 -6
BITMAP
80
F0
30
F0
80
ENDCHAR
STARTCHAR 0356
ENCODING 854
SWIDTH 0 0
DWIDTH 0 0
BBX 9 5 -4 -6
BITMAP
8300
F300
3700
F580
8C80
ENDCHAR
STARTCHAR 0357
ENCODING 855
SWIDTH 0 0
DWIDTH 0 0
BBX 3 6 -1 15
BITMAP
C0
E0
20
20
E0
C0
ENDCHAR
STARTCHAR 0358
ENCODING 856
SWIDTH 0 0
DWIDTH 0 0
BBX 2 3 3 16
BITMAP
C0
C0
C0
ENDCHAR
STARTCHAR 0359
ENCODING 857
SWIDTH 0 0
DWIDTH 0 0
BBX 4 5 -2 -6
BITMAP
60
F0
F0
60
F0
ENDCHAR
STARTCHAR 035A
ENCODING 858
SWIDTH 0 0
DWIDTH 0 0
BBX 9 5 -4 -6
BITMAP
7700
9980
8880
FF80
7700
ENDCHAR
STARTCHAR 035B
ENCODING 859
SWIDTH 0 0
DWIDTH 0 0
BBX 4 5 -2 15
BITMAP
40
F0
F0
10
30
ENDCHAR
STARTCHAR 035C
ENCODING 860
SWIDTH 0 0
DWIDTH 0 0
BBX 18 5 -9 -6
BITMAP
C000C0
600180
380700
1FFE00
07F800
ENDCHAR
STARTCHAR 035D
ENCODING 861
SWIDTH 0 0
DWIDTH 0 0
BBX 18 5 -9 15
BITMAP
C000C0
600180
380700
1FFE00
07F800
ENDCHAR
STARTCHAR 035E
ENCODING 862
SWIDTH 0 0
DWIDTH 0 0
BBX 14 2 -7 16
BITMAP
FFFC
FFFC
ENDCHAR
STARTCHAR 035F
ENCODING 863
SWIDTH 0 0
DWIDTH 0 0
BBX 14 2 -7 -3
BITMAP
FFFC
FFFC
ENDCHAR
STARTCHAR 0360
ENCODING 864
SWIDTH 0 0
DWIDTH 0 0
BBX 18 3 -9 16
BITMAP
3F80C0
7FFFC0
C07F00
ENDCHAR
STARTCHAR 0361
ENCODING 865
SWIDTH 0 0
DWIDTH 0 0
BBX 18 5 -9 17
BITMAP
03F000
1FFE00
380700
600180
C000C0
ENDCHAR
STARTCHAR 0362
ENCODING 866
SWIDTH 0 0
DWIDTH 0 0
BBX 17 4 -9 -6
BITMAP
000100
FFFF80
FFFF80
000100
ENDCHAR
STARTCHAR 0363
ENCODING 867
SWIDTH 0 0
DWIDTH 0 0
BBX 5 6 -2 16
BITMAP
70
08
08
78
88
F8
ENDCHAR
STARTCHAR 0364
ENCODING 868
SWIDTH 0 0
DWIDTH 0 0
BBX 5 6 -2 16
BITMAP
70
88
F8
80
C0
78
ENDCHAR
STARTCHAR 0365
ENCODING 869
SWIDTH 0 0
DWIDTH 0 0
BBX 1 7 0 16
BITMAP
80
00
80
80
80
80
80
ENDCHAR
STARTCHAR 0366
ENCODING 870
SWIDTH 0 0
DWIDTH 0 0
BBX 5 6 -2 16
BITMAP
70
88
88
88
88
70
ENDCHAR
STARTCHAR 0367
ENCODING 871
SWIDTH 0 0
DWIDTH 0 0
BBX 5 5 -2 16
BITMAP
88
88
88
88
F8
ENDCHAR
STARTCHAR 0368
ENCODING 872
SWIDTH 0 0
DWIDTH 0 0
BBX 4 6 -2 16
BITMAP
70
80
80
80
80
70
ENDCHAR
STARTCHAR 0369
ENCODING 873
SWIDTH 0 0
DWIDTH 0 0
BBX 5 8 -2 16
BITMAP
08
08
78
88
88
88
88
78
ENDCHAR
STARTCHAR 036A
ENCODING 874
SWIDTH 0 0
DWIDTH 0 0
BBX 5 8 -2 16
BITMAP
80
80
F0
88
88
88
88
88
ENDCHAR
STARTCHAR 036B
ENCODING 875
SWIDTH 0 0
DWIDTH 0 0
BBX 9 6 -4 16
BITMAP
F700
8880
8880
8880
8880
8880
ENDCHAR
STARTCHAR 036C
ENCODING 876
SWIDTH 0 0
DWIDTH 0 0
BBX 3 6 -1 16
BITMAP
A0
C0
80
80
80
80
ENDCHAR
STARTCHAR 036D
ENCODING 877
SWIDTH 0 0
DWIDTH 0 0
BBX 4 7 -2 16
BITMAP
40
F0
40
40
40
40
70
ENDCHAR
STARTCHAR 036E
ENCODING 878
SWIDTH 0 0
DWIDTH 0 0
BBX 5 6 -2 16
BITMAP
88
88
90
50
60
60
ENDCHAR
STARTCHAR 036F
ENCODING 879
SWIDTH 0 0
DWIDTH 0 0
BBX 4 5 -2 16
BITMAP
90
50
20
50
90
ENDCHAR
STARTCHAR 0370
ENCODING 880
SWIDTH 400 0
DWIDTH 10 0
BBX 7 18 2 0
BITMAP
C0
C0
C0
C0
C0
C0
C0
FE
FE
C0
C0
C0
C0
C0
C0
C0
C0
C0
ENDCHAR
STARTCHAR 0371
ENCODING 881
SWIDTH 360 0
DWIDTH 9 0
BBX 7 14 2 0
BITMAP
C0
C0
C0
C0
C0
C0
FE
FE
C0
C0
C0
C0
C0
C0
ENDCHAR
STARTCHAR 0372
ENCODING 882
SWIDTH 640 0
DWIDTH 16 0
BBX 14 18 1 0
BITMAP
FFFC
FFFC
C30C
C30C
C30C
C30C
C30C
C30C
0300
0300
0300
0300
0300
0300
0300
0300
0300
0300
ENDCHAR
STARTCHAR 0373
ENCODING 883
SWIDTH 520 0
DWIDTH 13 0
BBX 11 19 1 0
BITMAP
FFE0
FFE0
C660
C660
C660
C660
0600
0600
0600
0600
0600
0600
0600
0600
0600
0600
0600
0600
0600
ENDCHAR
STARTCHAR 0374
ENCODING 884
SWIDTH 200 0
DWIDTH 5 0
BBX 4 4 1 14
BITMAP
70
60
C0
80
ENDCHAR
STARTCHAR 0375
ENCODING 885
SWIDTH 200 0
DWIDTH 5 0
BBX 4 4 1 -6
BITMAP
30
60
E0
C0
ENDCHAR
STARTCHAR 0376
ENCODING 886
SWIDTH 720 0
DWIDTH 18 0
BBX 14 18 2 0
BITMAP
C01C
C03C
C03C
C06C
C06C
C0CC
C1CC
C18C
C30C
C30C
C60C
CE0C
CC0C
D80C
D80C
F00C
F00C
E00C
ENDCHAR
STARTCHAR 0377
ENCODING 887
SWIDTH 600 0
DWIDTH 15 0
BBX 11 14 2 0
BITMAP
C0E0
C0E0
C1E0
C3E0
C360
C660
C660
CC60
CC60
D860
D860
F060
F060
E060
ENDCHAR
STARTCHAR 037A
ENCODING 890
SWIDTH 560 0
DWIDTH 14 0
BBX 4 4 6 -6
BITMAP
C0
C0
F0
70
ENDCHAR
STARTCHAR 037B
ENCODING 891
SWIDTH 480 0
DWIDTH 12 0
BBX 9 14 1 0
BITMAP
FC00
FF00
8700
0380
0180
0180
0180
0180
0180
0180
0380
0700
FE00
FC00
ENDCHAR
STARTCHAR 037C
ENCODING 892
SWIDTH 440 0
DWIDTH 11 0
BBX 9 14 1 0
BITMAP
1F80
3F80
7000
6000
E000
C600
C600
C600
C000
E000
6000
7000
3F80
1F80
ENDCHAR
STARTCHAR 037D
ENCODING 893
SWIDTH 440 0
DWIDTH 11 0
BBX 9 14 1 0
BITMAP
FC00
FE00
0700
0380
0380
3180
3180
3180
0180
0380
0300
0700
FE00
FC00
ENDCHAR
STARTCHAR 037E
ENCODING 894
SWIDTH 280 0
DWIDTH 7 0
BBX 4 17 1 -3
BITMAP
70
70
70
00
00
00
00
00
00
00
00
70
60
60
60
C0
C0
ENDCHAR
STARTCHAR 037F
ENCODING 895
SWIDTH 240 0
DWIDTH 6 0
BBX 6 23 -2 -5
BITMAP
0C
0C
0C
0C
0C
0C
0C
0C
0C
0C
0C
0C
0C
0C
0C
0C
0C
0C
0C
0C
1C
F8
F0
ENDCHAR
STARTCHAR 0384
ENCODING 900
SWIDTH 560 0
DWIDTH 14 0
BBX 3 5 6 16
BITMAP
60
60
C0
C0
C0
ENDCHAR
STARTCHAR 0385
ENCODING 901
SWIDTH 520 0
DWIDTH 13 0
BBX 7 6 3 16
BITMAP
0C
1C
18
D6
D6
C6
ENDCHAR
STARTCHAR 0386
ENCODING 902
SWIDTH 600 0
DWIDTH 15 0
BBX 15 19 0 0
BITMAP
6000
6380
C380
C2C0
86C0
06C0
0660
0C60
0C60
1830
1830
1FF0
3FF8
3018
3018
600C
600C
600E
C006
ENDCHAR
STARTCHAR 0387
ENCODING 903
SWIDTH 280 0
DWIDTH 7 0
BBX 3 3 2 11
BITMAP
E0
E0
E0
ENDCHAR
STARTCHAR 0388
ENCODING 904
SWIDTH 600 0
DWIDTH 15 0
BBX 15 19 -1 0
BITMAP
6000
67FE
67FE
4600
C600
0600
0600
0600
07FC
07FC
0600
0600
0600
0600
0600
0600
0600
07FE
07FE
ENDCHAR
STARTCHAR 0389
ENCODING 905
SWIDTH 760 0
DWIDTH 19 0
BBX 18 19 -1 0
BITMAP
600000
6600C0
6600C0
4600C0
C600C0
0600C0
0600C0
0600C0
07FFC0
07FFC0
0600C0
0600C0
0600C0
0600C0
0600C0
0600C0
0600C0
0600C0
0600C0
ENDCHAR
STARTCHAR 038A
ENCODING 906
SWIDTH 440 0
DWIDTH 11 0
BBX 10 19 0 0
BITMAP
E000
CFC0
C780
C300
8300
0300
0300
0300
0300
0300
0300
0300
0300
0300
0300
0300
0300
0780
0FC0
ENDCHAR
STARTCHAR 038C
ENCODING 908
SWIDTH 800 0
DWIDTH 20 0
BBX 18 19 0 0
BITMAP
600000
60FC00
63FE00
C70700
CE0180
0C0180
1C00C0
1800C0
1800C0
1800C0
1800C0
1800C0
1800C0
1C01C0
0C0180
0E0380
070700
03FE00
00FC00
ENDCHAR
STARTCHAR 038E
ENCODING 910
SWIDTH 680 0
DWIDTH 17 0
BBX 18 19 -1 0
BITMAP
600000
6601C0
670180
C30380
C30300
018700
018600
00CE00
00CC00
007C00
007800
003800
003000
003000
003000
003000
003000
003000
003000
ENDCHAR
STARTCHAR 038F
ENCODING 911
SWIDTH 800 0
DWIDTH 20 0
BBX 19 19 0 0
BITMAP
600000
E1F800
C7FE00
CF0700
8C0380
1C0180
1801C0
1800C0
1800C0
1800C0
1800C0
1801C0
1801C0
0C0180
0C0380
060300
030600
3F8FE0
3F8FE0
ENDCHAR
STARTCHAR 0390
ENCODING 912
SWIDTH 360 0
DWIDTH 9 0
BBX 9 22 0 0
BITMAP
0C00
0C00
0800
1800
DE00
C600
C600
0000
1800
1800
1800
1800
1800
1800
1800
1800
1800
1800
1800
1800
1F80
0F80
ENDCHAR
STARTCHAR 0391
ENCODING 913
SWIDTH 600 0
DWIDTH 15 0
BBX 15 18 0 0
BITMAP
0380
0380
02C0
06C0
06C0
0660
0C60
0C60
1830
1830
1FF0
3FF8
3018
3018
600C
600C
600E
C006
ENDCHAR
STARTCHAR 0392
ENCODING 914
SWIDTH 600 0
DWIDTH 15 0
BBX 12 18 2 0
BITMAP
FF80
FFC0
C0E0
C060
C060
C060
C0E0
FF80
FFC0
C0E0
C070
C030
C030
C030
C070
C0E0
FFE0
FF80
ENDCHAR
STARTCHAR 0393
ENCODING 915
SWIDTH 480 0
DWIDTH 12 0
BBX 10 18 2 0
BITMAP
FFC0
FFC0
C000
C000
C000
C000
C000
C000
C000
C000
C000
C000
C000
C000
C000
C000
C000
C000
ENDCHAR
STARTCHAR 0394
ENCODING 916
SWIDTH 600 0
DWIDTH 15 0
BBX 13 18 1 0
BITMAP
0700
0700
0700
0D80
0D80
0D80
18C0
18C0
18C0
3060
3060
3060
7070
6030
6030
E038
FFF8
FFF8
ENDCHAR
STARTCHAR 0395
ENCODING 917
SWIDTH 520 0
DWIDTH 13 0
BBX 10 18 2 0
BITMAP
FFC0
FFC0
C000
C000
C000
C000
C000
FF80
FF80
C000
C000
C000
C000
C000
C000
C000
FFC0
FFC0
ENDCHAR
STARTCHAR 0396
ENCODING 918
SWIDTH 520 0
DWIDTH 13 0
BBX 11 18 1 0
BITMAP
FFE0
FFE0
00C0
01C0
0180
0380
0300
0700
0600
0C00
1C00
1800
3800
3000
6000
6000
FFE0
FFE0
ENDCHAR
STARTCHAR 0397
ENCODING 919
SWIDTH 680 0
DWIDTH 17 0
BBX 13 18 2 0
BITMAP
C018
C018
C018
C018
C018
C018
C018
FFF8
FFF8
C018
C018
C018
C018
C018
C018
C018
C018
C018
ENDCHAR
STARTCHAR 0398
ENCODING 920
SWIDTH 760 0
DWIDTH 19 0
BBX 15 18 1 0
BITMAP
07E0
1FF0
3838
700C
600C
E006
C006
CFF6
CFF6
C006
C006
C006
E00E
600C
701C
3838
1FF0
07E0
ENDCHAR
STARTCHAR 0399
ENCODING 921
SWIDTH 320 0
DWIDTH 8 0
BBX 6 18 1 0
BITMAP
FC
78
30
30
30
30
30
30
30
30
30
30
30
30
30
30
78
FC
ENDCHAR
STARTCHAR 039A
ENCODING 922
SWIDTH 560 0
DWIDTH 14 0
BBX 12 18 2 0
BITMAP
C070
C0E0
C1C0
C180
C300
C700
CE00
DC00
DC00
FE00
E600
C700
C380
C180
C1C0
C0E0
C060
C070
ENDCHAR
STARTCHAR 039B
ENCODING 923
SWIDTH 560 0
DWIDTH 14 0
BBX 14 18 0 0
BITMAP
0380
0780
0780
07C0
0EC0
0CC0
0CE0
1C60
1860
1870
3830
3030
3038
7018
6018
601C
E00C
E00C
ENDCHAR
STARTCHAR 039C
ENCODING 924
SWIDTH 840 0
DWIDTH 21 0
BBX 17 18 2 0
BITMAP
F00780
F00780
F00780
D80D80
D80D80
D80D80
CC1980
CC1980
CC1980
C63180
C63180
C63180
C36180
C36180
C36180
C1C180
C1C180
C1C180
ENDCHAR
STARTCHAR 039D
ENCODING 925
SWIDTH 720 0
DWIDTH 18 0
BBX 13 18 2 0
BITMAP
E018
F018
F018
D818
D818
CC18
CC18
C618
C618
C318
C318
C198
C1D8
C0D8
C078
C078
C038
C038
ENDCHAR
STARTCHAR 039E
ENCODING 926
SWIDTH 520 0
DWIDTH 13 0
BBX 11 18 1 0
BITMAP
7FE0
7FE0
0000
0000
0000
0000
0000
7FC0
7FC0
0000
0000
0000
0000
0000
0000
0000
FFE0
FFE0
ENDCHAR
STARTCHAR 039F
ENCODING 927
SWIDTH 720 0
DWIDTH 18 0
BBX 15 18 1 0
BITMAP
07E0
1FF0
3838
700C
600C
E006
C006
C006
C006
C006
C006
C006
E00E
600C
701C
3838
1FF0
07E0
ENDCHAR
STARTCHAR 03A0
ENCODING 928
SWIDTH 680 0
DWIDTH 17 0
BBX 13 18 2 0
BITMAP
FFF8
FFF8
C018
C018
C018
C018
C018
C018
C018
C018
C018
C018
C018
C018
C018
C018
C018
C018
ENDCHAR
STARTCHAR 03A1
ENCODING 929
SWIDTH 560 0
DWIDTH 14 0
BBX 11 18 2 0
BITMAP
FF00
FFC0
C1C0
C0E0
C060
C060
C060
C0E0
C1C0
FF80
FE00
C000
C000
C000
C000
C000
C000
C000
ENDCHAR
STARTCHAR 03A3
ENCODING 931
SWIDTH 560 0
DWIDTH 14 0
BBX 12 18 1 0
BITMAP
FFE0
FFE0
6000
7000
3800
1800
0C00
0600
0700
0600
0C00
1C00
1800
3000
7000
E000
FFF0
FFF0
ENDCHAR
STARTCHAR 03A4
ENCODING 932
SWIDTH 600 0
DWIDTH 15 0
BBX 13 18 1 0
BITMAP
FFF8
FFF8
0600
0600
0600
0600
0600
0600
0600
0600
0600
0600
0600
0600
0600
0600
0600
0600
ENDCHAR
STARTCHAR 03A5
ENCODING 933
SWIDTH 560 0
DWIDTH 14 0
BBX 13 18 1 0
BITMAP
C038
E030
6070
6060
30E0
30C0
19C0
1980
0F80
0F00
0700
0600
0600
0600
0600
0600
0600
0600
ENDCHAR
STARTCHAR 03A6
ENCODING 934
SWIDTH 720 0
DWIDTH 18 0
BBX 16 18 1 0
BITMAP
0180
0FF0
3FFC
798E
6187
E183
C183
C183
C183
C183
E183
6187
718E
3FFC
0FF0
0180
0180
0180
ENDCHAR
STARTCHAR 03A7
ENCODING 935
SWIDTH 560 0
DWIDTH 14 0
BBX 14 18 0 0
BITMAP
6018
7038
3030
1860
18E0
0CC0
0FC0
0780
0300
0780
0780
0CC0
1CE0
1860
3070
3030
6038
E01C
ENDCHAR
STARTCHAR 03A8
ENCODING 936
SWIDTH 760 0
DWIDTH 19 0
BBX 16 18 1 0
BITMAP
C183
C183
C183
C183
C183
C183
C183
C183
E187
718E
3FFC
0FF8
0180
0180
0180
0180
0180
0180
ENDCHAR
STARTCHAR 03A9
ENCODING 937
SWIDTH 760 0
DWIDTH 19 0
BBX 17 18 1 0
BITMAP
07E000
1FF800
3C1C00
300E00
700600
600700
600300
600300
600300
600300
600700
600700
300600
300E00
180C00
0C1800
FE3F80
FE3F80
ENDCHAR
STARTCHAR 03AA
ENCODING 938
SWIDTH 320 0
DWIDTH 8 0
BBX 6 23 1 0
BITMAP
CC
CC
C4
00
00
FC
78
30
30
30
30
30
30
30
30
30
30
30
30
30
30
78
FC
ENDCHAR
STARTCHAR 03AB
ENCODING 939
SWIDTH 520 0
DWIDTH 13 0
BBX 13 23 0 0
BITMAP
18C0
18C0
18C0
0000
0000
C018
E038
6030
7070
3060
38C0
18C0
1D80
0D80
0F00
0700
0700
0700
0700
0700
0700
0700
0700
ENDCHAR
STARTCHAR 03AC
ENCODING 940
SWIDTH 600 0
DWIDTH 15 0
BBX 13 21 1 0
BITMAP
0300
0300
0300
0600
0600
0000
0000
1E30
3FF0
70E0
E0E0
E060
C060
C060
C060
C060
C060
E0E0
70E0
3FF8
1E38
ENDCHAR
STARTCHAR 03AD
ENCODING 941
SWIDTH 440 0
DWIDTH 11 0
BBX 10 21 1 0
BITMAP
0300
0600
0600
0600
0400
0000
0000
1F00
7F80
7080
6000
6000
7000
3F00
3F00
E000
C000
C000
E040
7FC0
3F80
ENDCHAR
STARTCHAR 03AE
ENCODING 942
SWIDTH 600 0
DWIDTH 15 0
BBX 11 27 2 -6
BITMAP
0300
0300
0600
0600
0600
0000
0000
CF80
DFC0
F0E0
E0E0
E060
C060
C060
C060
C060
C060
C060
C060
C060
C060
0060
0060
0060
0060
0060
0060
ENDCHAR
STARTCHAR 03AF
ENCODING 943
SWIDTH 360 0
DWIDTH 9 0
BBX 6 21 2 0
BITMAP
70
60
60
40
C0
00
00
C0
C0
C0
C0
C0
C0
C0
C0
C0
C0
C0
E0
7C
3C
ENDCHAR
STARTCHAR 03B0
ENCODING 944
SWIDTH 600 0
DWIDTH 15 0
BBX 11 22 2 0
BITMAP
0300
0700
0600
0600
3580
3180
3180
0000
C060
C060
C060
C060
C060
C060
C060
C060
C060
C060
E0E0
70C0
7F80
1F00
ENDCHAR
STARTCHAR 03B1
ENCODING 945
SWIDTH 600 0
DWIDTH 15 0
BBX 13 14 1 0
BITMAP
1E30
3FF0
70E0
E0E0
E060
C060
C060
C060
C060
C060
E0E0
70E0
3FF8
1E38
ENDCHAR
STARTCHAR 03B2
ENCODING 946
SWIDTH 600 0
DWIDTH 15 0
BBX 12 25 2 -6
BITMAP
1F00
7FC0
70E0
E060
C060
C060
C0E0
C1C0
CF00
CFC0
C0E0
C070
C030
C030
C030
C070
E0E0
FFE0
DF80
C000
C000
C000
C000
C000
C000
ENDCHAR
STARTCHAR 03B3
ENCODING 947
SWIDTH 480 0
DWIDTH 12 0
BBX 12 20 0 -6
BITMAP
E030
6070
6060
7060
30E0
30C0
18C0
19C0
1980
0D80
0F00
0F00
0700
0600
0600
0600
0E00
0C00
0C00
0C00
ENDCHAR
STARTCHAR 03B4
ENCODING 948
SWIDTH 560 0
DWIDTH 14 0
BBX 12 19 1 0
BITMAP
0F80
1FE0
3860
3000
3000
1800
1E00
0780
19C0
3060
6060
E030
C030
C030
C030
E070
70E0
3FC0
1F80
ENDCHAR
STARTCHAR 03B5
ENCODING 949
SWIDTH 440 0
DWIDTH 11 0
BBX 10 14 1 0
BITMAP
1F00
7F80
7080
6000
6000
7000
3F00
3F00
E000
C000
C000
E040
7FC0
3F80
ENDCHAR
STARTCHAR 03B6
ENCODING 950
SWIDTH 480 0
DWIDTH 12 0
BBX 10 24 1 -5
BITMAP
7FC0
7FC0
0180
0300
0600
0C00
1800
3000
7000
6000
6000
C000
C000
C000
C000
E000
6000
7C00
3F80
03C0
00C0
00C0
01C0
0180
ENDCHAR
STARTCHAR 03B7
ENCODING 951
SWIDTH 600 0
DWIDTH 15 0
BBX 11 20 2 -6
BITMAP
CF80
DFC0
F0E0
E0E0
E060
C060
C060
C060
C060
C060
C060
C060
C060
C060
0060
0060
0060
0060
0060
0060
ENDCHAR
STARTCHAR 03B8
ENCODING 952
SWIDTH 560 0
DWIDTH 14 0
BBX 11 19 1 0
BITMAP
1F00
3F80
71C0
60C0
6060
C060
C060
C060
FFE0
FFE0
C060
C060
C060
C060
60E0
60C0
71C0
3F80
1F00
ENDCHAR
STARTCHAR 03B9
ENCODING 953
SWIDTH 360 0
DWIDTH 9 0
BBX 6 14 2 0
BITMAP
C0
C0
C0
C0
C0
C0
C0
C0
C0
C0
C0
E0
7C
3C
ENDCHAR
STARTCHAR 03BA
ENCODING 954
SWIDTH 520 0
DWIDTH 13 0
BBX 10 14 2 0
BITMAP
C1C0
C380
C300
C600
CE00
DC00
DC00
FC00
EE00
C700
C300
C380
C1C0
C0C0
ENDCHAR
STARTCHAR 03BB
ENCODING 955
SWIDTH 520 0
DWIDTH 13 0
BBX 13 19 0 0
BITMAP
7800
7C00
0C00
0E00
0600
0600
0700
0700
0F00
0D80
1980
1980
38C0
30C0
30C0
6060
6060
E078
C038
ENDCHAR
STARTCHAR 03BC
ENCODING 956
SWIDTH 600 0
DWIDTH 15 0
BBX 11 20 2 -6
BITMAP
C060
C060
C060
C060
C060
C060
C060
C060
C060
C0E0
C0E0
E1E0
FF60
DE60
C000
C000
C000
C000
C000
C000
ENDCHAR
STARTCHAR 03BD
ENCODING 957
SWIDTH 520 0
DWIDTH 13 0
BBX 12 14 0 0
BITMAP
E030
6030
6030
7030
3030
3070
3860
1860
1860
1CC0
0CC0
0D80
0F00
0700
ENDCHAR
STARTCHAR 03BE
ENCODING 958
SWIDTH 480 0
DWIDTH 12 0
BBX 10 24 1 -5
BITMAP
7F80
7F80
1800
7000
6000
6000
6000
7000
3F80
1F80
7000
6000
C000
C000
C000
E000
6000
7E00
1F80
03C0
00C0
00C0
0180
0180
ENDCHAR
STARTCHAR 03BF
ENCODING 959
SWIDTH 560 0
DWIDTH 14 0
BBX 12 14 1 0
BITMAP
1F00
3FC0
70E0
6060
E070
C030
C030
C030
C030
E070
6060
70E0
3FC0
1F80
ENDCHAR
STARTCHAR 03C0
ENCODING 960
SWIDTH 680 0
DWIDTH 17 0
BBX 15 14 1 0
BITMAP
7FFE
FFFE
1830
1830
1830
1830
1830
1830
1830
1830
1830
1830
183E
181E
ENDCHAR
STARTCHAR 03C1
ENCODING 961
SWIDTH 600 0
DWIDTH 15 0
BBX 11 20 2 -6
BITMAP
1F00
3F80
70C0
E0E0
E060
C060
C060
C060
C060
C060
C0E0
E0C0
FFC0
DF00
C000
C000
C000
C000
C000
C000
ENDCHAR
STARTCHAR 03C2
ENCODING 962
SWIDTH 440 0
DWIDTH 11 0
BBX 9 19 1 -5
BITMAP
1F80
3F80
7080
6000
E000
C000
C000
C000
C000
C000
E000
7000
3F00
1F80
0380
0180
0180
0380
0300
ENDCHAR
STARTCHAR 03C3
ENCODING 963
SWIDTH 560 0
DWIDTH 14 0
BBX 13 14 1 0
BITMAP
0FF8
3FF8
70C0
6060
E070
C030
C030
C030
C030
E070
6060
70E0
3FC0
1F80
ENDCHAR
STARTCHAR 03C4
ENCODING 964
SWIDTH 480 0
DWIDTH 12 0
BBX 10 14 1 0
BITMAP
7FC0
FFC0
1800
1800
1800
1800
1800
1800
1800
1800
1800
1C00
0F80
0780
ENDCHAR
STARTCHAR 03C5
ENCODING 965
SWIDTH 600 0
DWIDTH 15 0
BBX 11 14 2 0
BITMAP
C0E0
C060
C060
C060
C060
C060
C060
C060
C060
C060
E0E0
71C0
7F80
1F00
ENDCHAR
STARTCHAR 03C6
ENCODING 966
SWIDTH 680 0
DWIDTH 17 0
BBX 15 20 1 -6
BITMAP
20F0
31F8
639C
630C
E306
C306
C306
C306
C306
E30E
630C
733C
3FF8
1FE0
0300
0300
0300
0300
0300
0300
ENDCHAR
STARTCHAR 03C7
ENCODING 967
SWIDTH 560 0
DWIDTH 14 0
BBX 14 20 0 -6
BITMAP
7038
7830
1870
1C60
0C60
0CC0
0EC0
0780
0780
0300
0700
0F80
0D80
1D80
18C0
38C0
30E0
7060
607C
E03C
ENDCHAR
STARTCHAR 03C8
ENCODING 968
SWIDTH 720 0
DWIDTH 18 0
BBX 15 25 2 -6
BITMAP
0300
0300
0300
0300
0300
C30C
C30E
C30E
C306
C306
C306
C306
C306
C306
E30E
630C
733C
3FF8
1FE0
0300
0300
0300
0300
0300
0300
ENDCHAR
STARTCHAR 03C9
ENCODING 969
SWIDTH 720 0
DWIDTH 18 0
BBX 16 14 1 0
BITMAP
600C
6006
6006
E006
C007
C187
C187
C187
C187
C187
E186
63CE
7EFC
1C78
ENDCHAR
STARTCHAR 03CA
ENCODING 970
SWIDTH 360 0
DWIDTH 9 0
BBX 8 18 0 0
BITMAP
C6
C6
C6
00
30
30
30
30
30
30
30
30
30
30
30
38
1F
0F
ENDCHAR
STARTCHAR 03CB
ENCODING 971
SWIDTH 600 0
DWIDTH 15 0
BBX 11 18 2 0
BITMAP
3180
3180
3180
0000
C060
C060
C060
C060
C060
C060
C060
C060
C060
C060
E0E0
71C0
7F80
1F00
ENDCHAR
STARTCHAR 03CC
ENCODING 972
SWIDTH 560 0
DWIDTH 14 0
BBX 12 21 1 0
BITMAP
0300
0300
0300
0600
0600
0000
0000
1F00
3FC0
70E0
6060
E070
C030
C030
C030
C030
E070
6060
70E0
3FC0
1F80
ENDCHAR
STARTCHAR 03CD
ENCODING 973
SWIDTH 600 0
DWIDTH 15 0
BBX 11 21 2 0
BITMAP
0700
0600
0600
0400
0C00
0000
0000
C0E0
C060
C060
C060
C060
C060
C060
C060
C060
C060
E0E0
71C0
7F80
1F00
ENDCHAR
STARTCHAR 03CE
ENCODING 974
SWIDTH 720 0
DWIDTH 18 0
BBX 16 21 1 0
BITMAP
00C0
00C0
0180
0180
0180
0000
0000
600C
6006
6006
E006
C007
C187
C187
C187
C187
C187
E186
63CE
7EFC
1C78
ENDCHAR
STARTCHAR 03CF
ENCODING 975
SWIDTH 560 0
DWIDTH 14 0
BBX 12 24 2 -6
BITMAP
C070
C0E0
C0C0
C180
C300
C700
CE00
DC00
DC00
FE00
E600
C300
C380
C180
C1C0
C0E0
C060
C070
0030
0070
0060
80E0
FFC0
3F00
ENDCHAR
STARTCHAR 03D0
ENCODING 976
SWIDTH 560 0
DWIDTH 14 0
BBX 11 19 1 0
BITMAP
0F80
1FC0
30C0
70C0
7FC0
EF00
C000
CF00
DFC0
F0C0
E060
C060
C060
C060
6060
60E0
70C0
3FC0
1F00
ENDCHAR
STARTCHAR 03D1
ENCODING 977
SWIDTH 600 0
DWIDTH 15 0
BBX 15 19 0 0
BITMAP
0F80
1FE0
1870
1830
1830
1E38
0FFE
01FE
F018
F018
3018
3018
3018
3038
3030
3070
3860
1FC0
0F80
ENDCHAR
STARTCHAR 03D2
ENCODING 978
SWIDTH 560 0
DWIDTH 14 0
BBX 13 18 0 0
BITMAP
C038
E078
6060
70E0
30C0
38C0
1980
1980
0F00
0F00
0700
0600
0600
0600
0600
0600
0600
0600
ENDCHAR
STARTCHAR 03D3
ENCODING 979
SWIDTH 720 0
DWIDTH 18 0
BBX 18 19 -1 0
BITMAP
600000
6601C0
6703C0
430300
C38700
018600
01C600
00CC00
00CC00
007800
007800
003800
003000
003000
003000
003000
003000
003000
003000
ENDCHAR
STARTCHAR 03D4
ENCODING 980
SWIDTH 560 0
DWIDTH 14 0
BBX 13 23 0 0
BITMAP
18C0
18C0
18C0
0000
0000
C038
E078
6060
7060
30C0
38C0
1980
1D80
0D00
0F00
0700
0600
0600
0600
0600
0600
0600
0600
ENDCHAR
STARTCHAR 03D5
ENCODING 981
SWIDTH 680 0
DWIDTH 17 0
BBX 15 25 1 -6
BITMAP
0300
0300
0300
0300
0300
0780
1FF0
3B78
631C
E30C
C306
C306
C306
C306
E30E
630C
731C
3FF8
1FE0
0300
0300
0300
0300
0300
0300
ENDCHAR
STARTCHAR 03D6
ENCODING 982
SWIDTH 840 0
DWIDTH 21 0
BBX 19 14 1 0
BITMAP
7FFFE0
FFFFE0
180180
180180
3001C0
3000C0
3060C0
3060C0
3060C0
3060C0
30E1C0
38F180
1FBF80
0F1F00
ENDCHAR
STARTCHAR 03D7
ENCODING 983
SWIDTH 640 0
DWIDTH 16 0
BBX 15 20 0 -6
BITMAP
E018
F038
3870
1870
18F0
19F0
1960
1B60
1E60
1C60
3C60
3870
383E
701E
0006
0006
0006
0006
003E
003C
ENDCHAR
STARTCHAR 03D8
ENCODING 984
SWIDTH 680 0
DWIDTH 17 0
BBX 15 18 1 0
BITMAP
0FE0
1FF0
7838
600C
E00E
C00E
C006
C006
C006
E00E
600E
701C
383C
1FF8
07E0
0180
0180
0180
ENDCHAR
STARTCHAR 03D9
ENCODING 985
SWIDTH 560 0
DWIDTH 14 0
BBX 12 20 1 -6
BITMAP
1F00
3FC0
70E0
6060
E060
C070
C070
C070
C070
E060
6060
70E0
3FC0
0F00
0600
0600
0600
0600
0600
0600
ENDCHAR
STARTCHAR 03DA
ENCODING 986
SWIDTH 560 0
DWIDTH 14 0
BBX 13 18 1 0
BITMAP
07E0
1FF8
3810
6000
E000
C000
C000
C000
C000
E000
7000
7800
3F80
0F80
0180
0180
0180
0180
ENDCHAR
STARTCHAR 03DB
ENCODING 987
SWIDTH 440 0
DWIDTH 11 0
BBX 9 19 1 -5
BITMAP
1F80
3F80
7000
6000
E000
C000
C000
C000
C000
C000
E000
7800
3F00
0F80
0180
0180
0180
1F80
1F00
ENDCHAR
STARTCHAR 03DC
ENCODING 988
SWIDTH 480 0
DWIDTH 12 0
BBX 9 18 2 0
BITMAP
FF80
FF80
C000
C000
C000
C000
C000
C000
FF80
FF80
C180
C180
C180
C000
C000
C000
C000
C000
ENDCHAR
STARTCHAR 03DD
ENCODING 989
SWIDTH 440 0
DWIDTH 11 0
BBX 8 20 2 -6
BITMAP
FF
FF
C0
C0
C0
C0
C0
FE
FE
C6
C6
C6
C6
C0
C0
C0
C0
C0
C0
C0
ENDCHAR
STARTCHAR 03DE
ENCODING 990
SWIDTH 440 0
DWIDTH 11 0
BBX 12 18 -1 0
BITMAP
F000
7800
1800
1800
1800
3800
3000
3FE0
7FE0
00E0
00C0
00C0
01C0
0180
0180
0180
01F0
00F0
ENDCHAR
STARTCHAR 03DF
ENCODING 991
SWIDTH 520 0
DWIDTH 13 0
BBX 11 25 1 -6
BITMAP
F000
7800
1800
1800
1800
3800
3000
3000
7000
6060
67E0
FFC0
F8C0
80C0
0180
0180
0180
0300
0300
0300
0600
0600
0600
03C0
03C0
ENDCHAR
STARTCHAR 03E0
ENCODING 992
SWIDTH 560 0
DWIDTH 14 0
BBX 12 18 0 0
BITMAP
7E00
FF80
C1C0
03E0
0760
1E70
1830
1070
01F0
03B0
0730
0430
0030
0030
0030
0070
0060
0060
ENDCHAR
STARTCHAR 03E1
ENCODING 993
SWIDTH 520 0
DWIDTH 13 0
BBX 12 26 -1 -6
BITMAP
8000
E000
7800
1E00
0700
0380
0180
03C0
0FC0
3CE0
1060
0070
0070
03F0
0F30
0C30
0030
0030
0030
0030
0030
0070
0070
0060
0060
00E0
ENDCHAR
STARTCHAR 03F0
ENCODING 1008
SWIDTH 600 0
DWIDTH 15 0
BBX 15 14 0 0
BITMAP
E018
F038
3870
1870
18F0
19E0
1960
1B60
1E60
1C60
3C60
3870
303E
701E
ENDCHAR
STARTCHAR 03F1
ENCODING 1009
SWIDTH 560 0
DWIDTH 14 0
BBX 12 20 1 -6
BITMAP
0F80
3FC0
30E0
6060
6070
E030
C030
C030
C030
C070
C060
F0E0
FFC0
CF80
C000
6000
7000
3F80
1FC0
00C0
ENDCHAR
STARTCHAR 03F2
ENCODING 1010
SWIDTH 440 0
DWIDTH 11 0
BBX 9 14 1 0
BITMAP
1F80
3F80
7000
6000
E000
C000
C000
C000
C000
E000
6000
7000
3F80
1F80
ENDCHAR
STARTCHAR 03F3
ENCODING 1011
SWIDTH 240 0
DWIDTH 6 0
BBX 5 24 -1 -6
BITMAP
18
18
18
00
18
18
18
18
18
18
18
18
18
18
18
18
18
18
18
18
18
18
F8
F0
ENDCHAR
STARTCHAR 03F4
ENCODING 1012
SWIDTH 720 0
DWIDTH 18 0
BBX 15 18 1 0
BITMAP
07E0
1FF0
3818
700C
600C
E006
C006
FFFE
FFFE
C006
C006
C006
E00E
600C
701C
3838
1FF0
07E0
ENDCHAR
STARTCHAR 03F5
ENCODING 1013
SWIDTH 480 0
DWIDTH 12 0
BBX 10 14 1 0
BITMAP
1F80
3F80
7000
6000
C000
C000
FF80
FF80
C000
C000
6000
7040
3FC0
1F80
ENDCHAR
STARTCHAR 03F6
ENCODING 1014
SWIDTH 480 0
DWIDTH 12 0
BBX 10 14 0 0
BITMAP
7E00
7F00
0180
01C0
00C0
00C0
3FC0
3FC0
00C0
00C0
01C0
8380
FF00
7E00
ENDCHAR
STARTCHAR 03F7
ENCODING 1015
SWIDTH 560 0
DWIDTH 14 0
BBX 11 18 2 0
BITMAP
C000
C000
C000
FF00
FFC0
C1C0
C0E0
C060
C060
C060
C0E0
C1C0
FF80
FF00
C000
C000
C000
C000
ENDCHAR
STARTCHAR 03F8
ENCODING 1016
SWIDTH 600 0
DWIDTH 15 0
BBX 11 25 2 -6
BITMAP
C000
C000
C000
C000
C000
CF00
DFC0
F0C0
E0E0
C060
C060
C060
C060
C060
C060
E0E0
F0C0
DFC0
CF00
C000
C000
C000
C000
C000
C000
ENDCHAR
STARTCHAR 03F9
ENCODING 1017
SWIDTH 560 0
DWIDTH 14 0
BBX 12 18 1 0
BITMAP
07E0
1FF0
3810
7000
6000
E000
E000
C000
C000
C000
C000
C000
E000
6000
7000
3800
1FF0
07E0
ENDCHAR
STARTCHAR 03FA
ENCODING 1018
SWIDTH 840 0
DWIDTH 21 0
BBX 17 18 2 0
BITMAP
F00380
F00780
F80780
D80D80
CC1D80
CC1980
C63180
C63180
C36180
C36180
C1C180
C1C180
C00180
C00180
C00180
C00180
C00180
C00180
ENDCHAR
STARTCHAR 03FB
ENCODING 1019
SWIDTH 680 0
DWIDTH 17 0
BBX 13 20 2 -6
BITMAP
E038
F038
F078
D878
D8D8
CD98
CD98
C718
C718
C018
C018
C018
C018
C018
C000
C000
C000
C000
C000
C000
ENDCHAR
STARTCHAR 03FC
ENCODING 1020
SWIDTH 600 0
DWIDTH 15 0
BBX 13 20 1 -6
BITMAP
07C0
1FE0
1870
3830
3038
3018
3018
3018
3018
3038
3030
3870
3FE0
37C0
3000
3000
FF00
FF00
3000
3000
ENDCHAR
STARTCHAR 03FD
ENCODING 1021
SWIDTH 600 0
DWIDTH 15 0
BBX 12 18 1 0
BITMAP
7F00
FF80
41C0
00E0
0060
0070
0030
0030
0030
0030
0030
0030
0070
0060
00E0
81C0
FF80
7F00
ENDCHAR
STARTCHAR 03FE
ENCODING 1022
SWIDTH 560 0
DWIDTH 14 0
BBX 12 18 1 0
BITMAP
07E0
1FF0
3810
7000
6000
E000
E000
C1C0
C1C0
C1C0
C000
C000
E000
6000
7000
3810
1FF0
07E0
ENDCHAR
STARTCHAR 03FF
ENCODING 1023
SWIDTH 560 0
DWIDTH 14 0
BBX 12 18 1 0
BITMAP
7E00
FF80
81C0
00E0
0060
0070
0070
1C30
1C30
1C30
0030
0070
0070
0060
00E0
81C0
FF80
7E00
ENDCHAR
STARTCHAR 0400
ENCODING 1024
SWIDTH 520 0
DWIDTH 13 0
BBX 10 24 2 0
BITMAP
3800
1800
0C00
0600
0000
0000
FFC0
FFC0
C000
C000
C000
C000
C000
FF80
FF80
C000
C000
C000
C000
C000
C000
C000
FFC0
FFC0
ENDCHAR
STARTCHAR 0401
ENCODING 1025
SWIDTH 520 0
DWIDTH 13 0
BBX 10 23 2 0
BITMAP
3300
3300
3300
0000
0000
FFC0
FFC0
C000
C000
C000
C000
C000
FF80
FF80
C000
C000
C000
C000
C000
C000
C000
FFC0
FFC0
ENDCHAR
STARTCHAR 0402
ENCODING 1026
SWIDTH 720 0
DWIDTH 18 0
BBX 15 18 1 0
BITMAP
FFE0
FFE0
0C00
0C00
0C00
0C00
0C00
0FF8
0FFC
0C0E
0C06
0C06
0C06
0C06
0C06
0C0E
0C7C
0C78
ENDCHAR
STARTCHAR 0403
ENCODING 1027
SWIDTH 480 0
DWIDTH 12 0
BBX 10 24 2 0
BITMAP
0700
0600
0C00
0C00
0000
0000
FFC0
FFC0
C000
C000
C000
C000
C000
C000
C000
C000
C000
C000
C000
C000
C000
C000
C000
C000
ENDCHAR
STARTCHAR 0404
ENCODING 1028
SWIDTH 600 0
DWIDTH 15 0
BBX 13 18 1 0
BITMAP
07F0
1FF8
3810
7000
6000
E000
C000
FFE0
FFE0
C000
C000
C000
E000
6000
7000
3808
1FF8
07F0
ENDCHAR
STARTCHAR 0405
ENCODING 1029
SWIDTH 520 0
DWIDTH 13 0
BBX 11 18 1 0
BITMAP
1F80
7FC0
E040
C000
C000
C000
E000
7800
3E00
0F80
03C0
00E0
0060
0060
00E0
80C0
FFC0
7F00
ENDCHAR
STARTCHAR 0406
ENCODING 1030
SWIDTH 320 0
DWIDTH 8 0
BBX 6 18 1 0
BITMAP
FC
78
30
30
30
30
30
30
30
30
30
30
30
30
30
30
78
FC
ENDCHAR
STARTCHAR 0407
ENCODING 1031
SWIDTH 320 0
DWIDTH 8 0
BBX 6 23 1 0
BITMAP
CC
CC
C4
00
00
FC
78
30
30
30
30
30
30
30
30
30
30
30
30
30
30
78
FC
ENDCHAR
STARTCHAR 0408
ENCODING 1032
SWIDTH 240 0
DWIDTH 6 0
BBX 6 23 -2 -5
BITMAP
0C
0C
0C
0C
0C
0C
0C
0C
0C
0C
0C
0C
0C
0C
0C
0C
0C
0C
0C
0C
1C
F8
F0
ENDCHAR
STARTCHAR 0409
ENCODING 1033
SWIDTH 920 0
DWIDTH 23 0
BBX 21 18 1 0
BITMAP
07F800
07F800
061800
061800
0E1800
0E1800
0C1800
0C1F80
0C1FE0
0C1870
0C1838
0C1818
1C1818
181818
181838
381870
F01FF0
E01FC0
ENDCHAR
STARTCHAR 040A
ENCODING 1034
SWIDTH 880 0
DWIDTH 22 0
BBX 19 18 2 0
BITMAP
C06000
C06000
C06000
C06000
C06000
C06000
C06000
FFFF00
FFFFC0
C061C0
C06060
C06060
C06060
C06060
C060E0
C061E0
C07FC0
C07F00
ENDCHAR
STARTCHAR 040B
ENCODING 1035
SWIDTH 720 0
DWIDTH 18 0
BBX 15 18 1 0
BITMAP
FFF0
FFF0
0C00
0C00
0C00
0C00
0C00
0FF8
0FFC
0C0E
0C06
0C06
0C06
0C06
0C06
0C06
0C06
0C06
ENDCHAR
STARTCHAR 040C
ENCODING 1036
SWIDTH 560 0
DWIDTH 14 0
BBX 12 24 2 0
BITMAP
0380
0300
0600
0C00
0000
0000
C070
C0E0
C1C0
C180
C300
C700
CE00
DC00
F800
D800
CC00
CE00
C700
C380
C1C0
C0C0
C0E0
C070
ENDCHAR
STARTCHAR 040D
ENCODING 1037
SWIDTH 720 0
DWIDTH 18 0
BBX 14 24 2 0
BITMAP
0E00
0700
0300
0180
0000
0000
C01C
C03C
C03C
C06C
C06C
C0CC
C1CC
C18C
C30C
C30C
C60C
CE0C
CC0C
D80C
D80C
F00C
F00C
E00C
ENDCHAR
STARTCHAR 040E
ENCODING 1038
SWIDTH 560 0
DWIDTH 14 0
BBX 14 24 0 0
BITMAP
1830
1C70
0FE0
07C0
0000
0000
E00C
601C
7018
3018
3038
1830
1870
0C60
0C60
06E0
06C0
07C0
0380
0380
0300
0700
7E00
7C00
ENDCHAR
STARTCHAR 040F
ENCODING 1039
SWIDTH 680 0
DWIDTH 17 0
BBX 13 23 2 -5
BITMAP
C018
C018
C018
C018
C018
C018
C018
C018
C018
C018
C018
C018
C018
C018
C018
C018
FFF8
FFF8
0600
0600
0600
0600
0600
ENDCHAR
STARTCHAR 0410
ENCODING 1040
SWIDTH 600 0
DWIDTH 15 0
BBX 15 18 0 0
BITMAP
0380
0380
02C0
06C0
06C0
0660
0C60
0C60
1830
1830
1FF0
3FF8
3018
3018
600C
600C
600E
C006
ENDCHAR
STARTCHAR 0411
ENCODING 1041
SWIDTH 560 0
DWIDTH 14 0
BBX 11 18 2 0
BITMAP
FFC0
FFC0
C000
C000
C000
C000
C000
FF00
FF80
C1C0
C0E0
C060
C060
C060
C0E0
C1C0
FFC0
FF00
ENDCHAR
STARTCHAR 0412
ENCODING 1042
SWIDTH 600 0
DWIDTH 15 0
BBX 12 18 2 0
BITMAP
FF80
FFC0
C0E0
C060
C060
C060
C0E0
FF80
FFC0
C0E0
C070
C030
C030
C030
C070
C0E0
FFE0
FF80
ENDCHAR
STARTCHAR 0413
ENCODING 1043
SWIDTH 480 0
DWIDTH 12 0
BBX 10 18 2 0
BITMAP
FFC0
FFC0
C000
C000
C000
C000
C000
C000
C000
C000
C000
C000
C000
C000
C000
C000
C000
C000
ENDCHAR
STARTCHAR 0414
ENCODING 1044
SWIDTH 720 0
DWIDTH 18 0
BBX 16 23 1 -5
BITMAP
03F8
07F8
0618
0618
0618
0618
0618
0E18
0C18
0C18
0C18
1818
1818
1818
3018
3018
FFFF
FFFF
C003
C003
C003
C003
C003
ENDCHAR
STARTCHAR 0415
ENCODING 1045
SWIDTH 520 0
DWIDTH 13 0
BBX 10 18 2 0
BITMAP
FFC0
FFC0
C000
C000
C000
C000
C000
FF80
FF80
C000
C000
C000
C000
C000
C000
C000
FFC0
FFC0
ENDCHAR
STARTCHAR 0416
ENCODING 1046
SWIDTH 800 0
DWIDTH 20 0
BBX 20 18 0 0
BITMAP
606070
7060E0
3060C0
186180
0C6380
0E6300
066600
036E00
03FC00
03EC00
076E00
066700
0C6300
1C6180
3861C0
3060C0
706060
E06070
ENDCHAR
STARTCHAR 0417
ENCODING 1047
SWIDTH 560 0
DWIDTH 14 0
BBX 11 18 1 0
BITMAP
1F80
7FC0
60E0
0060
0060
0060
01C0
3F80
3F80
01C0
00E0
0060
0060
0060
00E0
81C0
FFC0
7F00
ENDCHAR
STARTCHAR 0418
ENCODING 1048
SWIDTH 720 0
DWIDTH 18 0
BBX 14 18 2 0
BITMAP
C01C
C03C
C03C
C06C
C06C
C0CC
C1CC
C18C
C30C
C30C
C60C
CE0C
CC0C
D80C
D80C
F00C
F00C
E00C
ENDCHAR
STARTCHAR 0419
ENCODING 1049
SWIDTH 720 0
DWIDTH 18 0
BBX 14 24 2 0
BITMAP
1830
1860
1FE0
07C0
0000
0000
C01C
C03C
C03C
C06C
C06C
C0CC
C1CC
C18C
C30C
C30C
C60C
CE0C
CC0C
D80C
D80C
F00C
F00C
E00C
ENDCHAR
STARTCHAR 041A
ENCODING 1050
SWIDTH 560 0
DWIDTH 14 0
BBX 12 18 2 0
BITMAP
C070
C0E0
C1C0
C180
C300
C700
CE00
DC00
F800
D800
CC00
CE00
C700
C380
C1C0
C0C0
C0E0
C070
ENDCHAR
STARTCHAR 041B
ENCODING 1051
SWIDTH 720 0
DWIDTH 18 0
BBX 14 18 1 0
BITMAP
07FC
07FC
060C
060C
0E0C
0C0C
0C0C
0C0C
0C0C
0C0C
0C0C
1C0C
180C
180C
180C
380C
F00C
E00C
ENDCHAR
STARTCHAR 041C
ENCODING 1052
SWIDTH 840 0
DWIDTH 21 0
BBX 17 18 2 0
BITMAP
F00780
F00780
F00780
D80D80
D80D80
D80D80
CC1980
CC1980
CC1980
C63180
C63180
C63180
C36180
C36180
C36180
C1C180
C1C180
C1C180
ENDCHAR
STARTCHAR 041D
ENCODING 1053
SWIDTH 680 0
DWIDTH 17 0
BBX 13 18 2 0
BITMAP
C018
C018
C018
C018
C018
C018
C018
FFF8
FFF8
C018
C018
C018
C018
C018
C018
C018
C018
C018
ENDCHAR
STARTCHAR 041E
ENCODING 1054
SWIDTH 720 0
DWIDTH 18 0
BBX 15 18 1 0
BITMAP
07E0
1FF0
3838
700C
600C
E006
C006
C006
C006
C006
C006
C006
E00E
600C
701C
3838
1FF0
07E0
ENDCHAR
STARTCHAR 041F
ENCODING 1055
SWIDTH 680 0
DWIDTH 17 0
BBX 13 18 2 0
BITMAP
FFF8
FFF8
C018
C018
C018
C018
C018
C018
C018
C018
C018
C018
C018
C018
C018
C018
C018
C018
ENDCHAR
STARTCHAR 0420
ENCODING 1056
SWIDTH 560 0
DWIDTH 14 0
BBX 11 18 2 0
BITMAP
FF00
FFC0
C1C0
C0E0
C060
C060
C060
C0E0
C1C0
FF80
FE00
C000
C000
C000
C000
C000
C000
C000
ENDCHAR
STARTCHAR 0421
ENCODING 1057
SWIDTH 560 0
DWIDTH 14 0
BBX 12 18 1 0
BITMAP
07E0
1FF0
3810
7000
6000
E000
E000
C000
C000
C000
C000
C000
E000
6000
7000
3800
1FF0
07E0
ENDCHAR
STARTCHAR 0422
ENCODING 1058
SWIDTH 600 0
DWIDTH 15 0
BBX 13 18 1 0
BITMAP
FFF8
FFF8
0600
0600
0600
0600
0600
0600
0600
0600
0600
0600
0600
0600
0600
0600
0600
0600
ENDCHAR
STARTCHAR 0423
ENCODING 1059
SWIDTH 600 0
DWIDTH 15 0
BBX 14 18 0 0
BITMAP
E00C
600C
701C
3018
3818
1830
1C30
0C70
0E60
0660
06C0
03C0
0380
0180
0300
0700
7E00
7C00
ENDCHAR
STARTCHAR 0424
ENCODING 1060
SWIDTH 720 0
DWIDTH 18 0
BBX 16 18 1 0
BITMAP
0180
0FF0
3FFC
798E
6187
E183
C183
C183
C183
C183
E183
6187
718E
3FFC
0FF0
0180
0180
0180
ENDCHAR
STARTCHAR 0425
ENCODING 1061
SWIDTH 560 0
DWIDTH 14 0
BBX 14 18 0 0
BITMAP
6018
7038
3030
1860
18E0
0CC0
0FC0
0780
0300
0780
0780
0CC0
1CE0
1860
3070
3030
6038
E01C
ENDCHAR
STARTCHAR 0426
ENCODING 1062
SWIDTH 720 0
DWIDTH 18 0
BBX 15 23 2 -5
BITMAP
C018
C018
C018
C018
C018
C018
C018
C018
C018
C018
C018
C018
C018
C018
C018
C018
FFFE
FFFE
0006
0006
0006
0006
0006
ENDCHAR
STARTCHAR 0427
ENCODING 1063
SWIDTH 680 0
DWIDTH 17 0
BBX 12 18 2 0
BITMAP
C030
C030
C030
C030
C030
C030
C030
C030
C030
E0F0
7FF0
1F30
0030
0030
0030
0030
0030
0030
ENDCHAR
STARTCHAR 0428
ENCODING 1064
SWIDTH 960 0
DWIDTH 24 0
BBX 20 18 2 0
BITMAP
C06070
C06070
C06070
C06070
C06070
C06070
C06070
C06070
C06070
C06070
C06070
C06070
C06070
C06070
C06070
C06070
FFFFF0
FFFFF0
ENDCHAR
STARTCHAR 0429
ENCODING 1065
SWIDTH 1000 0
DWIDTH 25 0
BBX 22 23 2 -5
BITMAP
C06060
C06060
C06060
C06060
C06060
C06060
C06060
C06060
C06060
C06060
C06060
C06060
C06060
C06060
C06060
C06060
FFFFFC
FFFFFC
00000C
00000C
00000C
00000C
00000C
ENDCHAR
STARTCHAR 042A
ENCODING 1066
SWIDTH 680 0
DWIDTH 17 0
BBX 15 18 1 0
BITMAP
FC00
FC00
0C00
0C00
0C00
0C00
0C00
0FF0
0FF8
0C1C
0C0E
0C06
0C06
0C06
0C0E
0C1C
0FFC
0FF0
ENDCHAR
STARTCHAR 042B
ENCODING 1067
SWIDTH 800 0
DWIDTH 20 0
BBX 16 18 2 0
BITMAP
C003
C003
C003
C003
C003
C003
C003
FF03
FF83
C1C3
C0E3
C063
C063
C063
C0E3
C1C3
FFC3
FF03
ENDCHAR
STARTCHAR 042C
ENCODING 1068
SWIDTH 560 0
DWIDTH 14 0
BBX 11 18 2 0
BITMAP
C000
C000
C000
C000
C000
C000
C000
FF00
FFC0
C1C0
C060
C060
C060
C060
C060
C0E0
FFC0
FF00
ENDCHAR
STARTCHAR 042D
ENCODING 1069
SWIDTH 600 0
DWIDTH 15 0
BBX 12 18 1 0
BITMAP
7F00
FF80
01C0
0060
0060
0030
0030
3FF0
3FF0
0030
0030
0030
0070
0060
00E0
01C0
FF80
7E00
ENDCHAR
STARTCHAR 042E
ENCODING 1070
SWIDTH 960 0
DWIDTH 24 0
BBX 21 18 2 0
BITMAP
C03F00
C07FC0
C0E0E0
C1C070
C18030
C38038
C30018
FF0018
FF0018
C30018
C30018
C30038
C38038
C18030
C1C070
C0E0E0
C07FC0
C01F00
ENDCHAR
STARTCHAR 042F
ENCODING 1071
SWIDTH 600 0
DWIDTH 15 0
BBX 12 18 1 0
BITMAP
0FF0
3FF0
7030
7030
6030
6030
7030
3830
3FF0
0FF0
0C30
1C30
1830
3830
3030
7030
6030
E030
ENDCHAR
STARTCHAR 0430
ENCODING 1072
SWIDTH 520 0
DWIDTH 13 0
BBX 10 14 1 0
BITMAP
1F00
7F80
21C0
00C0
00C0
1FC0
7FC0
F0C0
E0C0
C0C0
C1C0
E1C0
7EC0
3C40
ENDCHAR
STARTCHAR 0431
ENCODING 1073
SWIDTH 560 0
DWIDTH 14 0
BBX 11 20 1 0
BITMAP
0060
07E0
1F80
3800
6000
6000
6000
CF80
DFC0
F0C0
E060
C060
C060
C060
C060
E060
60E0
70C0
3F80
1F00
ENDCHAR
STARTCHAR 0432
ENCODING 1074
SWIDTH 560 0
DWIDTH 14 0
BBX 11 14 2 0
BITMAP
FF00
FFC0
C1C0
C0C0
C0C0
C1C0
FF00
FF80
C0E0
C060
C060
C0E0
FFC0
FF80
ENDCHAR
STARTCHAR 0433
ENCODING 1075
SWIDTH 440 0
DWIDTH 11 0
BBX 8 14 2 0
BITMAP
FF
FF
C0
C0
C0
C0
C0
C0
C0
C0
C0
C0
C0
C0
ENDCHAR
STARTCHAR 0434
ENCODING 1076
SWIDTH 600 0
DWIDTH 15 0
BBX 13 19 1 -5
BITMAP
0FE0
0FE0
0C60
0C60
0C60
1C60
1C60
1860
1860
3860
3060
7060
FFF8
FFF8
C018
C018
C018
C018
C018
ENDCHAR
STARTCHAR 0435
ENCODING 1077
SWIDTH 520 0
DWIDTH 13 0
BBX 11 14 1 0
BITMAP
1F00
3F80
70C0
60E0
C060
FFE0
FFE0
C000
C000
E000
6000
7000
3FC0
0FC0
ENDCHAR
STARTCHAR 0436
ENCODING 1078
SWIDTH 720 0
DWIDTH 18 0
BBX 17 14 1 0
BITMAP
C18300
618700
718E00
398C00
199800
0DB800
0FF000
0FB000
1DB800
199C00
318C00
618600
E18300
C18380
ENDCHAR
STARTCHAR 0437
ENCODING 1079
SWIDTH 440 0
DWIDTH 11 0
BBX 10 14 0 0
BITMAP
3F00
7F80
41C0
00C0
00C0
01C0
1F00
1F80
01C0
00C0
00C0
81C0
FF80
7F00
ENDCHAR
STARTCHAR 0438
ENCODING 1080
SWIDTH 600 0
DWIDTH 15 0
BBX 11 14 2 0
BITMAP
C0E0
C0E0
C1E0
C3E0
C360
C660
C660
CC60
CC60
D860
D860
F060
F060
E060
ENDCHAR
STARTCHAR 0439
ENCODING 1081
SWIDTH 600 0
DWIDTH 15 0
BBX 11 20 2 0
BITMAP
30C0
30C0
31C0
3F80
0F00
0000
C0E0
C0E0
C1E0
C3E0
C360
C660
C660
CC60
CC60
D860
D860
F060
F060
E060
ENDCHAR
STARTCHAR 043A
ENCODING 1082
SWIDTH 520 0
DWIDTH 13 0
BBX 10 14 2 0
BITMAP
C1C0
C380
C300
C600
CC00
DC00
F800
D800
CC00
CE00
C700
C300
C180
C1C0
ENDCHAR
STARTCHAR 043B
ENCODING 1083
SWIDTH 560 0
DWIDTH 14 0
BBX 12 14 0 0
BITMAP
0FF0
0FF0
0C30
0C30
0C30
0C30
0C30
0C30
1C30
1C30
1830
3830
F030
E030
ENDCHAR
STARTCHAR 043C
ENCODING 1084
SWIDTH 720 0
DWIDTH 18 0
BBX 14 14 2 0
BITMAP
E01C
F03C
F03C
D03C
D86C
D86C
C84C
CCCC
CCCC
C48C
C78C
C78C
C30C
C30C
ENDCHAR
STARTCHAR 043D
ENCODING 1085
SWIDTH 600 0
DWIDTH 15 0
BBX 11 14 2 0
BITMAP
C060
C060
C060
C060
C060
C060
FFE0
FFE0
C060
C060
C060
C060
C060
C060
ENDCHAR
STARTCHAR 043E
ENCODING 1086
SWIDTH 560 0
DWIDTH 14 0
BBX 12 14 1 0
BITMAP
1F00
3FC0
70E0
6060
E070
C030
C030
C030
C030
E070
6060
70E0
3FC0
1F80
ENDCHAR
STARTCHAR 043F
ENCODING 1087
SWIDTH 600 0
DWIDTH 15 0
BBX 11 14 2 0
BITMAP
FFE0
FFE0
C060
C060
C060
C060
C060
C060
C060
C060
C060
C060
C060
C060
ENDCHAR
STARTCHAR 0440
ENCODING 1088
SWIDTH 600 0
DWIDTH 15 0
BBX 11 20 2 -6
BITMAP
CF00
DFC0
F0C0
E0E0
C060
C060
C060
C060
C060
C060
E0E0
F0C0
DFC0
CF00
C000
C000
C000
C000
C000
C000
ENDCHAR
STARTCHAR 0441
ENCODING 1089
SWIDTH 440 0
DWIDTH 11 0
BBX 9 14 1 0
BITMAP
1F80
3F80
7000
6000
E000
C000
C000
C000
C000
E000
6000
7000
3F80
1F80
ENDCHAR
STARTCHAR 0442
ENCODING 1090
SWIDTH 480 0
DWIDTH 12 0
BBX 10 14 1 0
BITMAP
FFC0
FFC0
0C00
0C00
0C00
0C00
0C00
0C00
0C00
0C00
0C00
0C00
0C00
0C00
ENDCHAR
STARTCHAR 0443
ENCODING 1091
SWIDTH 480 0
DWIDTH 12 0
BBX 12 20 0 -6
BITMAP
C070
E060
6060
60E0
70C0
30C0
31C0
3980
1980
1B80
0F00
0F00
0F00
0600
0600
0C00
0C00
1C00
F800
F000
ENDCHAR
STARTCHAR 0444
ENCODING 1092
SWIDTH 680 0
DWIDTH 17 0
BBX 15 26 1 -6
BITMAP
0300
0300
0300
0300
0300
0300
0FC0
3FF0
7338
630C
E30E
C306
C306
C306
C306
E30E
630C
731C
3FF8
0FE0
0300
0300
0300
0300
0300
0300
ENDCHAR
STARTCHAR 0445
ENCODING 1093
SWIDTH 520 0
DWIDTH 13 0
BBX 11 14 1 0
BITMAP
C0E0
60C0
7180
3380
3B00
1E00
0E00
0E00
1F00
3B00
3180
61C0
E0C0
C0E0
ENDCHAR
STARTCHAR 0446
ENCODING 1094
SWIDTH 640 0
DWIDTH 16 0
BBX 13 19 2 -5
BITMAP
C060
C060
C060
C060
C060
C060
C060
C060
C060
C060
C060
C060
FFF8
FFF8
0018
0018
0018
0018
0018
ENDCHAR
STARTCHAR 0447
ENCODING 1095
SWIDTH 600 0
DWIDTH 15 0
BBX 11 14 2 0
BITMAP
C060
C060
C060
C060
C060
C060
C060
E1E0
7F60
3C60
0060
0060
0060
0060
ENDCHAR
STARTCHAR 0448
ENCODING 1096
SWIDTH 880 0
DWIDTH 22 0
BBX 18 14 2 0
BITMAP
C0C1C0
C0C1C0
C0C1C0
C0C1C0
C0C1C0
C0C1C0
C0C1C0
C0C1C0
C0C1C0
C0C1C0
C0C1C0
C0C1C0
FFFFC0
FFFFC0
ENDCHAR
STARTCHAR 0449
ENCODING 1097
SWIDTH 880 0
DWIDTH 22 0
BBX 19 19 2 -5
BITMAP
C0C180
C0C180
C0C180
C0C180
C0C180
C0C180
C0C180
C0C180
C0C180
C0C180
C0C180
C0C180
FFFFE0
FFFFE0
000060
000060
000060
000060
000060
ENDCHAR
STARTCHAR 044A
ENCODING 1098
SWIDTH 680 0
DWIDTH 17 0
BBX 15 14 1 0
BITMAP
FC00
FC00
0C00
0C00
0C00
0C00
0FF8
0FFC
0C0E
0C06
0C06
0C0E
0FFC
0FF8
ENDCHAR
STARTCHAR 044B
ENCODING 1099
SWIDTH 720 0
DWIDTH 18 0
BBX 14 14 2 0
BITMAP
C00C
C00C
C00C
C00C
C00C
C00C
FF0C
FFCC
C1CC
C0CC
C0CC
C1CC
FF8C
FF0C
ENDCHAR
STARTCHAR 044C
ENCODING 1100
SWIDTH 560 0
DWIDTH 14 0
BBX 11 14 2 0
BITMAP
C000
C000
C000
C000
C000
C000
FF80
FFC0
C0E0
C060
C060
C0E0
FFC0
FF80
ENDCHAR
STARTCHAR 044D
ENCODING 1101
SWIDTH 480 0
DWIDTH 12 0
BBX 10 14 0 0
BITMAP
7E00
7F00
0180
01C0
00C0
00C0
3FC0
3FC0
00C0
00C0
01C0
8380
FF00
7E00
ENDCHAR
STARTCHAR 044E
ENCODING 1102
SWIDTH 800 0
DWIDTH 20 0
BBX 16 14 2 0
BITMAP
C0F8
C1FC
C386
C707
C703
C603
FE03
FE03
C603
C703
C707
C386
C1FC
C0F8
ENDCHAR
STARTCHAR 044F
ENCODING 1103
SWIDTH 520 0
DWIDTH 13 0
BBX 10 14 1 0
BITMAP
3FC0
7FC0
E0C0
C0C0
C0C0
C0C0
E0C0
7FC0
1FC0
38C0
30C0
60C0
E0C0
C0C0
ENDCHAR
STARTCHAR 0450
ENCODING 1104
SWIDTH 520 0
DWIDTH 13 0
BBX 11 20 1 0
BITMAP
3800
1C00
0C00
0600
0000
0000
1F00
3F80
70C0
60E0
C060
FFE0
FFE0
C000
C000
E000
6000
7000
3FC0
0FC0
ENDCHAR
STARTCHAR 0451
ENCODING 1105
SWIDTH 520 0
DWIDTH 13 0
BBX 11 18 1 0
BITMAP
3180
3180
3180
0000
1F00
3F80
70C0
60E0
C060
FFE0
FFE0
C000
C000
E000
6000
7000
3FC0
0FC0
ENDCHAR
STARTCHAR 0452
ENCODING 1106
SWIDTH 600 0
DWIDTH 15 0
BBX 12 25 1 -6
BITMAP
3000
3000
FF00
FF00
3000
33C0
3FE0
3870
3830
3030
3030
3030
3030
3030
3030
3030
3030
3030
3030
0030
0030
0030
0030
01F0
01E0
ENDCHAR
STARTCHAR 0453
ENCODING 1107
SWIDTH 440 0
DWIDTH 11 0
BBX 8 20 2 0
BITMAP
06
0E
0C
18
30
00
FF
FF
C0
C0
C0
C0
C0
C0
C0
C0
C0
C0
C0
C0
ENDCHAR
STARTCHAR 0454
ENCODING 1108
SWIDTH 480 0
DWIDTH 12 0
BBX 10 14 1 0
BITMAP
1F80
3F80
7000
6000
C000
C000
FF80
FF80
C000
C000
6000
7040
3FC0
1F80
ENDCHAR
STARTCHAR 0455
ENCODING 1109
SWIDTH 440 0
DWIDTH 11 0
BBX 9 14 1 0
BITMAP
3F00
7F00
E100
C000
E000
7000
3C00
0F00
0380
0180
0180
8380
FF00
7E00
ENDCHAR
STARTCHAR 0456
ENCODING 1110
SWIDTH 240 0
DWIDTH 6 0
BBX 2 18 2 0
BITMAP
C0
C0
C0
00
C0
C0
C0
C0
C0
C0
C0
C0
C0
C0
C0
C0
C0
C0
ENDCHAR
STARTCHAR 0457
ENCODING 1111
SWIDTH 280 0
DWIDTH 7 0
BBX 7 18 0 0
BITMAP
C6
C6
C6
00
30
30
30
30
30
30
30
30
30
30
30
30
30
30
ENDCHAR
STARTCHAR 0458
ENCODING 1112
SWIDTH 240 0
DWIDTH 6 0
BBX 5 24 -1 -6
BITMAP
18
18
18
00
18
18
18
18
18
18
18
18
18
18
18
18
18
18
18
18
18
18
F8
F0
ENDCHAR
STARTCHAR 0459
ENCODING 1113
SWIDTH 800 0
DWIDTH 20 0
BBX 19 14 0 0
BITMAP
0FE000
0FE000
0C6000
0C6000
0C6000
0C6000
0C7F80
087FC0
1860E0
186060
186060
3860E0
F07FC0
E07F80
ENDCHAR
STARTCHAR 045A
ENCODING 1114
SWIDTH 840 0
DWIDTH 21 0
BBX 18 14 2 0
BITMAP
C0C000
C0C000
C0C000
C0C000
C0C000
C0C000
FFFF00
FFFF80
C0C1C0
C0C1C0
C0C1C0
C0C180
C0FF80
C0FF00
ENDCHAR
STARTCHAR 045B
ENCODING 1115
SWIDTH 600 0
DWIDTH 15 0
BBX 12 19 1 0
BITMAP
3000
3000
FF80
FF80
3000
33C0
3FE0
3870
3830
3030
3030
3030
3030
3030
3030
3030
3030
3030
3030
ENDCHAR
STARTCHAR 045C
ENCODING 1116
SWIDTH 520 0
DWIDTH 13 0
BBX 10 20 2 0
BITMAP
0700
0700
0E00
0C00
1800
0000
C1C0
C380
C300
C600
CC00
DC00
F800
D800
CC00
CE00
C700
C300
C180
C1C0
ENDCHAR
STARTCHAR 045D
ENCODING 1117
SWIDTH 600 0
DWIDTH 15 0
BBX 11 20 2 0
BITMAP
1800
1C00
0C00
0600
0200
0000
C0E0
C0E0
C1E0
C3E0
C360
C660
C660
CC60
CC60
D860
D860
F060
F060
E060
ENDCHAR
STARTCHAR 045E
ENCODING 1118
SWIDTH 520 0
DWIDTH 13 0
BBX 12 26 1 -6
BITMAP
60C0
30C0
30C0
3F80
0F00
0000
C070
E060
6060
60E0
70C0
30C0
31C0
1980
1980
1B80
0F00
0F00
0F00
0600
0600
0E00
0C00
1C00
F800
F000
ENDCHAR
STARTCHAR 045F
ENCODING 1119
SWIDTH 600 0
DWIDTH 15 0
BBX 11 19 2 -5
BITMAP
C060
C060
C060
C060
C060
C060
C060
C060
C060
C060
C060
C060
FFE0
FFE0
0C00
0C00
0C00
0C00
0C00
ENDCHAR
STARTCHAR 0460
ENCODING 1120
SWIDTH 880 0
DWIDTH 22 0
BBX 20 18 1 0
BITMAP
C06030
C06030
C06030
C06030
E06030
607030
607030
60F070
60F060
70F860
319860
3198E0
399CC0
1B8CC0
1B0DC0
0F0780
0F0780
060300
ENDCHAR
STARTCHAR 0461
ENCODING 1121
SWIDTH 800 0
DWIDTH 20 0
BBX 18 14 1 0
BITMAP
C0C0C0
C0C0C0
C0C0C0
E0C0C0
E0C1C0
60E180
60E180
61E180
31E300
333300
3B3700
1E3600
1E1E00
0E1C00
ENDCHAR
STARTCHAR 0462
ENCODING 1122
SWIDTH 640 0
DWIDTH 16 0
BBX 14 18 1 0
BITMAP
0C00
0C00
FFE0
FFE0
0C00
0C00
0C00
0FE0
0FF8
0C3C
0C0C
0C0C
0C0C
0C0C
0C0C
0C1C
0FF8
0FE0
ENDCHAR
STARTCHAR 0463
ENCODING 1123
SWIDTH 600 0
DWIDTH 15 0
BBX 13 17 1 0
BITMAP
1800
1800
1800
FF80
FF80
1800
1800
1800
1800
1FE0
1FF8
1838
1818
1818
1838
1FF0
1FE0
ENDCHAR
STARTCHAR 0464
ENCODING 1124
SWIDTH 840 0
DWIDTH 21 0
BBX 18 18 2 0
BITMAP
C01F80
C07FC0
C0E040
C1C000
C18000
C38000
C30000
FFFF00
FFFF00
C30000
C30000
C30000
C38000
C18000
C1C000
C0E000
C07FC0
C01FC0
ENDCHAR
STARTCHAR 0465
ENCODING 1125
SWIDTH 680 0
DWIDTH 17 0
BBX 15 14 2 0
BITMAP
C07E
C1FC
C180
C380
C300
C300
FFFC
FFFC
C300
C300
C300
C182
C1FE
C07C
ENDCHAR
STARTCHAR 0466
ENCODING 1126
SWIDTH 640 0
DWIDTH 16 0
BBX 16 18 0 0
BITMAP
01C0
03C0
03C0
03E0
0660
0660
0E30
0C30
0FF8
1FF8
1998
399C
318C
318E
7186
6186
6187
C183
ENDCHAR
STARTCHAR 0467
ENCODING 1127
SWIDTH 560 0
DWIDTH 14 0
BBX 14 14 0 0
BITMAP
0780
0780
07C0
0CC0
0CC0
0C60
1FE0
1FE0
3B30
3330
3338
6318
6318
E30C
ENDCHAR
STARTCHAR 0468
ENCODING 1128
SWIDTH 880 0
DWIDTH 22 0
BBX 20 18 2 0
BITMAP
C03800
C03C00
C03C00
C06C00
C06600
C0E600
C0C300
FFFF00
FFFF00
C19980
C39980
C319C0
C318C0
C718C0
C618E0
C61860
CE1860
CC1870
ENDCHAR
STARTCHAR 0469
ENCODING 1129
SWIDTH 760 0
DWIDTH 19 0
BBX 17 14 2 0
BITMAP
C0F000
C0F000
C0F000
C19800
C19800
C31800
FFFC00
FFFC00
C66E00
C66600
CE6600
CC6300
CC6300
DC6380
ENDCHAR
STARTCHAR 046A
ENCODING 1130
SWIDTH 720 0
DWIDTH 18 0
BBX 16 18 1 0
BITMAP
7FFE
7FFE
300C
1818
0C30
0E60
07E0
0FF0
1FF8
399C
718C
718E
6186
6186
E187
C183
C183
C183
ENDCHAR
STARTCHAR 046B
ENCODING 1131
SWIDTH 640 0
DWIDTH 16 0
BBX 14 14 1 0
BITMAP
7FF8
7FF8
3030
1860
0CC0
0F80
1FE0
3BF0
7330
6318
6318
C31C
C30C
C30C
ENDCHAR
STARTCHAR 046C
ENCODING 1132
SWIDTH 920 0
DWIDTH 23 0
BBX 20 18 2 0
BITMAP
C7FFE0
C7FFE0
C380C0
C1C1C0
C0E180
C07300
C03E00
FFFF00
FFFFC0
C38CC0
C30C60
C70C60
C70C60
C60C60
C60C30
CE0C30
CC0C30
CC0C30
ENDCHAR
STARTCHAR 046D
ENCODING 1133
SWIDTH 840 0
DWIDTH 21 0
BBX 18 14 2 0
BITMAP
C7FF80
C7FF80
C30300
C18600
C1CC00
C0FC00
FFFE00
FFFF00
C73300
C63180
C63180
CE31C0
CC30C0
CC30C0
ENDCHAR
STARTCHAR 046E
ENCODING 1134
SWIDTH 560 0
DWIDTH 14 0
BBX 12 27 1 -5
BITMAP
30C0
19C0
1B00
0E00
3F80
F9E0
4060
0060
0060
0060
01C0
3F80
3F80
00E0
0070
0030
0030
0030
0070
00E0
3FC0
7F80
E000
C000
E000
7FE0
3FE0
ENDCHAR
STARTCHAR 046F
ENCODING 1135
SWIDTH 480 0
DWIDTH 12 0
BBX 10 21 1 -4
BITMAP
71C0
33C0
1B00
1E00
7F80
61C0
00C0
00C0
0180
1F00
1F80
01C0
00C0
00C0
01C0
3F80
7F00
E000
C000
FFC0
7FC0
ENDCHAR
STARTCHAR 0470
ENCODING 1136
SWIDTH 760 0
DWIDTH 19 0
BBX 16 18 1 0
BITMAP
C183
C183
C183
C183
C183
C183
C183
C183
E187
718E
3FFC
0FF8
0180
0180
0180
0180
0180
0180
ENDCHAR
STARTCHAR 0471
ENCODING 1137
SWIDTH 720 0
DWIDTH 18 0
BBX 15 26 2 -6
BITMAP
0300
0300
0300
0300
0300
0300
C30C
C30E
C30E
C306
C306
C306
C306
C306
C306
E30E
630C
733C
3FF8
1FE0
0300
0300
0300
0300
0300
0300
ENDCHAR
STARTCHAR 0472
ENCODING 1138
SWIDTH 720 0
DWIDTH 18 0
BBX 15 18 1 0
BITMAP
07E0
1FF0
3818
700C
600C
E006
C006
FFFE
FFFE
C006
C006
C006
E00E
600C
701C
3838
1FF0
07E0
ENDCHAR
STARTCHAR 0473
ENCODING 1139
SWIDTH 560 0
DWIDTH 14 0
BBX 12 14 1 0
BITMAP
1F00
3FC0
70E0
6060
C030
C030
FFF0
FFF0
C030
C030
6060
70E0
3FC0
1F80
ENDCHAR
STARTCHAR 0474
ENCODING 1140
SWIDTH 600 0
DWIDTH 15 0
BBX 16 18 0 0
BITMAP
E007
600F
601C
7018
3018
3038
3830
1830
1870
1C60
0C60
0C60
0EC0
06C0
06C0
06C0
0380
0380
ENDCHAR
STARTCHAR 0475
ENCODING 1141
SWIDTH 480 0
DWIDTH 12 0
BBX 13 14 0 0
BITMAP
E038
6078
6060
7060
30E0
30C0
38C0
18C0
1980
1D80
0D80
0D80
0F00
0700
ENDCHAR
STARTCHAR 0476
ENCODING 1142
SWIDTH 600 0
DWIDTH 15 0
BBX 16 24 0 0
BITMAP
3980
19C0
0CC0
0660
0000
0000
E007
600F
601C
7018
3018
3038
3830
1830
1870
1C60
0C60
0C60
0EC0
06C0
06C0
06C0
0380
0380
ENDCHAR
STARTCHAR 0477
ENCODING 1143
SWIDTH 480 0
DWIDTH 12 0
BBX 13 20 0 0
BITMAP
7700
3300
1980
0880
0000
0000
E038
6078
6060
7060
30E0
30C0
38C0
18C0
1980
1D80
0D80
0D80
0F00
0700
ENDCHAR
STARTCHAR 0478
ENCODING 1144
SWIDTH 1120 0
DWIDTH 28 0
BBX 27 24 1 -6
BITMAP
0FC00000
1FF00000
38300000
70180000
601DC060
E00CC0E0
C00CC0C0
C00C60C0
C00C60C0
C00C6180
C00C3180
C00C3180
E00C3B00
601C1B00
70181B00
38301E00
1FF00E00
0FC00E00
00000C00
00000C00
00001C00
00001800
0001F000
0001E000
ENDCHAR
STARTCHAR 0479
ENCODING 1145
SWIDTH 1040 0
DWIDTH 26 0
BBX 25 20 1 -6
BITMAP
1F060380
3FC70300
70E30300
60630700
E0738600
C0318600
C0318E00
C031CC00
C030CC00
E070DC00
60607800
70E07800
3FC07800
1F803000
00003000
00006000
00006000
0000E000
0007C000
00078000
ENDCHAR
STARTCHAR 047A
ENCODING 1146
SWIDTH 760 0
DWIDTH 19 0
BBX 16 22 1 -2
BITMAP
0180
03C0
0FF8
3FFC
399C
700E
6007
E007
C003
C003
C003
C003
C003
C003
E007
6007
700E
399C
3FFC
0FF0
03C0
0180
ENDCHAR
STARTCHAR 047B
ENCODING 1147
SWIDTH 600 0
DWIDTH 15 0
BBX 13 16 1 -1
BITMAP
0700
0F80
3FE0
7770
6030
E038
C018
C018
C018
C018
E038
6030
7770
3FE0
0F80
0700
ENDCHAR
STARTCHAR 047C
ENCODING 1148
SWIDTH 1000 0
DWIDTH 25 0
BBX 21 27 1 0
BITMAP
00E000
01FC00
018F00
018300
003800
001800
001800
003000
000000
0F07C0
3F8FE0
308070
700030
600038
E00018
C00018
C00018
C00018
C00018
C03018
C03018
E03018
603038
703030
387870
3FFFE0
0F8F80
ENDCHAR
STARTCHAR 047D
ENCODING 1149
SWIDTH 920 0
DWIDTH 23 0
BBX 19 23 1 0
BITMAP
03E000
07FE00
061E00
00E000
00E000
006000
00C000
000000
000000
1E1F00
3E1F80
6001C0
E000C0
C000E0
C00060
C00060
C0C060
C0C060
E0C0E0
E0C0C0
71E1C0
3FFF80
1E1F00
ENDCHAR
STARTCHAR 047E
ENCODING 1150
SWIDTH 880 0
DWIDTH 22 0
BBX 20 23 1 0
BITMAP
03FF00
03FF00
012200
000000
000000
C06030
C06030
C06030
C06030
E06030
607030
607030
607070
70F870
70F860
309860
319C60
198C60
198CC0
1F0EC0
0F06C0
0F0780
060380
ENDCHAR
STARTCHAR 047F
ENCODING 1151
SWIDTH 800 0
DWIDTH 20 0
BBX 18 18 1 0
BITMAP
0FFC00
0FFC00
040800
000000
C0C0C0
C0C0C0
C0C0C0
C0C0C0
E0C1C0
60E180
60E180
61E180
31E380
333300
333300
1E1E00
1E1E00
0C1C00
ENDCHAR
STARTCHAR 0480
ENCODING 1152
SWIDTH 600 0
DWIDTH 15 0
BBX 13 24 1 -6
BITMAP
07F0
1FF8
3810
7000
6000
6000
E000
C000
C000
C000
C000
C000
E000
6000
7000
3800
1FC0
07C0
00C0
00C0
00C0
00C0
00C0
00C0
ENDCHAR
STARTCHAR 0481
ENCODING 1153
SWIDTH 440 0
DWIDTH 11 0
BBX 9 20 1 -6
BITMAP
1F80
3F80
7000
6000
E000
C000
C000
C000
C000
E000
E000
7000
3F00
1F00
0300
0300
0300
0300
0300
0300
ENDCHAR
STARTCHAR 0482
ENCODING 1154
SWIDTH 560 0
DWIDTH 14 0
BBX 11 16 2 0
BITMAP
0080
00C0
1180
1D00
0F00
0780
07E0
0C60
8C00
F800
7800
3C00
3700
6300
6000
4000
ENDCHAR
STARTCHAR 0483
ENCODING 1155
SWIDTH 0 0
DWIDTH 0 0
BBX 9 4 -4 15
BITMAP
0100
7F80
FF80
C000
ENDCHAR
STARTCHAR 0484
ENCODING 1156
SWIDTH 0 0
DWIDTH 0 0
BBX 9 3 -4 16
BITMAP
0F00
FF80
E180
ENDCHAR
STARTCHAR 0485
ENCODING 1157
SWIDTH 0 0
DWIDTH 0 0
BBX 3 4 -1 16
BITMAP
E0
E0
C0
60
ENDCHAR
STARTCHAR 0486
ENCODING 1158
SWIDTH 0 0
DWIDTH 0 0
BBX 3 4 -1 16
BITMAP
C0
E0
60
C0
ENDCHAR
STARTCHAR 0487
ENCODING 1159
SWIDTH 0 0
DWIDTH 0 0
BBX 9 3 -4 20
BITMAP
7800
FF80
C380
ENDCHAR
STARTCHAR 0488
ENCODING 1160
SWIDTH 960 0
DWIDTH 24 0
BBX 22 22 1 -4
BITMAP
007000
007800
008C00
000000
1C00E0
3E00F0
220110
000000
000000
000000
700038
F8003C
880044
000000
000000
000000
1C00E0
3E00F0
220110
003000
007800
004C00
ENDCHAR
STARTCHAR 0489
ENCODING 1161
SWIDTH 960 0
DWIDTH 24 0
BBX 22 23 1 -5
BITMAP
001000
003000
003000
183000
080060
0C01C0
040080
000000
000000
000000
C00020
F0003C
10000C
000000
000000
000000
000080
0400C0
1C00C0
103040
003040
003000
002000
ENDCHAR
STARTCHAR 048A
ENCODING 1162
SWIDTH 760 0
DWIDTH 19 0
BBX 16 29 2 -5
BITMAP
1860
1860
1FE0
0FC0
0000
0000
C01C
C03C
C03C
C06C
C06C
C0CC
C1CC
C18C
C30C
C30C
C60C
CE0C
CC0C
D80C
D80C
F00C
F00F
E00F
0003
0007
0006
000E
000E
ENDCHAR
STARTCHAR 048B
ENCODING 1163
SWIDTH 640 0
DWIDTH 16 0
BBX 13 25 2 -5
BITMAP
70C0
70C0
71C0
3F80
1F00
0000
C0E0
C0E0
C1E0
C160
C360
C660
C660
CC60
CC60
D860
D860
F060
F078
E078
0018
0018
0038
0030
0030
ENDCHAR
STARTCHAR 048C
ENCODING 1164
SWIDTH 600 0
DWIDTH 15 0
BBX 13 18 1 0
BITMAP
3000
3000
FF00
FF00
3000
3000
3000
3F80
3FE0
3070
3038
3018
3018
3018
3038
3070
3FE0
3FC0
ENDCHAR
STARTCHAR 048D
ENCODING 1165
SWIDTH 560 0
DWIDTH 14 0
BBX 12 20 1 0
BITMAP
3000
3000
3000
FF00
FF00
3000
3000
3000
3000
3000
3000
3000
3FC0
3FF0
3070
3030
3030
3070
3FE0
3FC0
ENDCHAR
STARTCHAR 048E
ENCODING 1166
SWIDTH 560 0
DWIDTH 14 0
BBX 11 18 2 0
BITMAP
FF00
FFC0
C1C0
C0E0
C060
C060
C060
C6E0
C7C0
FF80
FF80
C0C0
C080
C000
C000
C000
C000
C000
ENDCHAR
STARTCHAR 048F
ENCODING 1167
SWIDTH 600 0
DWIDTH 15 0
BBX 11 20 2 -6
BITMAP
CF00
DFC0
F0C0
E0E0
C060
C060
C060
C060
C060
C260
E3E0
F3C0
DFC0
CFC0
C0C0
C040
C000
C000
C000
C000
ENDCHAR
STARTCHAR 0490
ENCODING 1168
SWIDTH 520 0
DWIDTH 13 0
BBX 10 22 2 0
BITMAP
00C0
00C0
00C0
00C0
FFC0
FFC0
C000
C000
C000
C000
C000
C000
C000
C000
C000
C000
C000
C000
C000
C000
C000
C000
ENDCHAR
STARTCHAR 0491
ENCODING 1169
SWIDTH 440 0
DWIDTH 11 0
BBX 8 18 2 0
BITMAP
03
03
03
03
FF
FF
C0
C0
C0
C0
C0
C0
C0
C0
C0
C0
C0
C0
ENDCHAR
STARTCHAR 0492
ENCODING 1170
SWIDTH 520 0
DWIDTH 13 0
BBX 12 18 1 0
BITMAP
3FF0
3FF0
3000
3000
3000
3000
3000
3000
FF80
FF80
3000
3000
3000
3000
3000
3000
3000
3000
ENDCHAR
STARTCHAR 0493
ENCODING 1171
SWIDTH 440 0
DWIDTH 11 0
BBX 10 14 1 0
BITMAP
3FC0
3FC0
3000
3000
3000
3000
FF00
FF00
3000
3000
3000
3000
3000
3000
ENDCHAR
STARTCHAR 0494
ENCODING 1172
SWIDTH 600 0
DWIDTH 15 0
BBX 12 24 2 -6
BITMAP
FFC0
FFC0
C000
C000
C000
C000
C000
C000
FF00
FFC0
C1E0
C060
C070
C030
C030
C030
C030
C030
0030
0030
0060
00E0
1FC0
1F80
ENDCHAR
STARTCHAR 0495
ENCODING 1173
SWIDTH 520 0
DWIDTH 13 0
BBX 10 20 2 -6
BITMAP
FF00
FF00
C000
C000
C000
C000
FE00
FF00
C380
C180
C1C0
C0C0
C0C0
C0C0
00C0
01C0
01C0
0380
3F00
1E00
ENDCHAR
STARTCHAR 0496
ENCODING 1174
SWIDTH 880 0
DWIDTH 22 0
BBX 21 23 0 -5
BITMAP
606070
7060E0
3060C0
186180
0C6380
0E6300
066600
036C00
03FC00
03EC00
076E00
066600
0C6300
1C6380
3861C0
3060C0
706078
E06078
000018
000018
000018
000018
000018
ENDCHAR
STARTCHAR 0497
ENCODING 1175
SWIDTH 800 0
DWIDTH 20 0
BBX 18 19 1 -5
BITMAP
C18300
618700
718E00
398C00
199800
0DB000
0FF000
0FB000
1DB800
199800
318C00
618600
E187C0
C183C0
0000C0
0000C0
0000C0
0000C0
0000C0
ENDCHAR
STARTCHAR 0498
ENCODING 1176
SWIDTH 560 0
DWIDTH 14 0
BBX 12 24 1 -6
BITMAP
1F80
7FC0
60E0
0060
0060
0060
00C0
3F80
3FC0
00E0
0070
0030
0030
0030
0070
80E0
FFC0
7F00
0600
0300
0300
0300
0F00
0E00
ENDCHAR
STARTCHAR 0499
ENCODING 1177
SWIDTH 480 0
DWIDTH 12 0
BBX 10 20 1 -6
BITMAP
7E00
FF00
4180
0180
0180
0380
3F00
3F80
01C0
00C0
00C0
81C0
FF80
7F00
0C00
0600
0600
0600
1E00
1C00
ENDCHAR
STARTCHAR 049A
ENCODING 1178
SWIDTH 640 0
DWIDTH 16 0
BBX 13 23 2 -5
BITMAP
C070
C0E0
C1C0
C180
C300
C600
CE00
DC00
F800
D800
CC00
CE00
C700
C380
C180
C0C0
C0F8
C078
0018
0018
0018
0018
0018
ENDCHAR
STARTCHAR 049B
ENCODING 1179
SWIDTH 560 0
DWIDTH 14 0
BBX 11 19 2 -5
BITMAP
C180
C380
C300
C600
CC00
DC00
F800
D800
DC00
CE00
C600
C300
C1E0
C1E0
0060
0060
0060
0060
0060
ENDCHAR
STARTCHAR 049C
ENCODING 1180
SWIDTH 640 0
DWIDTH 16 0
BBX 12 18 2 0
BITMAP
C030
C060
C0C0
CDC0
CF80
CF00
CE00
CC00
DC00
FC00
DC00
CE00
CF00
CF80
CDC0
C0E0
C060
C030
ENDCHAR
STARTCHAR 049D
ENCODING 1181
SWIDTH 560 0
DWIDTH 14 0
BBX 10 14 2 0
BITMAP
C0C0
CD80
CF00
CF00
CE00
DC00
DC00
FC00
CC00
CE00
CF00
CF80
CDC0
C0C0
ENDCHAR
STARTCHAR 049E
ENCODING 1182
SWIDTH 640 0
DWIDTH 16 0
BBX 14 18 1 0
BITMAP
301C
3038
FE30
FE60
30E0
31C0
3380
3700
3E00
3700
3380
3180
31C0
30E0
3070
3038
3018
300C
ENDCHAR
STARTCHAR 049F
ENCODING 1183
SWIDTH 520 0
DWIDTH 13 0
BBX 12 19 1 0
BITMAP
3000
3000
FF00
FF00
3000
3060
30C0
31C0
3380
3300
3600
3C00
3E00
3700
3300
3180
30C0
30E0
3070
ENDCHAR
STARTCHAR 04A0
ENCODING 1184
SWIDTH 680 0
DWIDTH 17 0
BBX 16 18 1 0
BITMAP
FC07
FC0E
0C1C
0C18
0C30
0C70
0CE0
0DC0
0F80
0DC0
0CC0
0CE0
0C70
0C38
0C1C
0C0C
0C06
0C07
ENDCHAR
STARTCHAR 04A1
ENCODING 1185
SWIDTH 600 0
DWIDTH 15 0
BBX 14 14 1 0
BITMAP
FC1C
FC38
0C30
0C60
0CC0
0DC0
0F80
0D80
0CC0
0CE0
0C70
0C30
0C18
0C0C
ENDCHAR
STARTCHAR 04A2
ENCODING 1186
SWIDTH 720 0
DWIDTH 18 0
BBX 15 23 2 -5
BITMAP
C018
C018
C018
C018
C018
C018
C018
FFF8
FFF8
C018
C018
C018
C018
C018
C018
C018
C01E
C01E
0006
0006
0006
0006
0006
ENDCHAR
STARTCHAR 04A3
ENCODING 1187
SWIDTH 640 0
DWIDTH 16 0
BBX 13 19 2 -5
BITMAP
C060
C060
C060
C060
C060
C060
FFE0
FFE0
C060
C060
C060
C060
C078
C078
0018
0018
0018
0018
0018
ENDCHAR
STARTCHAR 04A4
ENCODING 1188
SWIDTH 800 0
DWIDTH 20 0
BBX 17 18 2 0
BITMAP
C01F80
C01F80
C01800
C01800
C01800
C01800
C01800
FFF800
FFF800
C01800
C01800
C01800
C01800
C01800
C01800
C01800
C01800
C01800
ENDCHAR
STARTCHAR 04A5
ENCODING 1189
SWIDTH 720 0
DWIDTH 18 0
BBX 15 14 2 0
BITMAP
C07E
C07E
C060
C060
C060
C060
FFE0
FFE0
C060
C060
C060
C060
C060
C060
ENDCHAR
STARTCHAR 04A6
ENCODING 1190
SWIDTH 1000 0
DWIDTH 25 0
BBX 22 24 2 -6
BITMAP
FFF000
FFF000
C03000
C03000
C03000
C03000
C03000
C03000
C03F80
C03FE0
C03070
C03038
C03018
C0301C
C0300C
C0300C
C0300C
C0300C
00001C
00001C
000018
000038
000FF0
000FC0
ENDCHAR
STARTCHAR 04A7
ENCODING 1191
SWIDTH 840 0
DWIDTH 21 0
BBX 18 20 2 -6
BITMAP
FFC000
FFC000
C0C000
C0C000
C0C000
C0C000
C0FC00
C0FF00
C0C380
C0C180
C0C1C0
C0C0C0
C0C0C0
C0C0C0
0000C0
0001C0
0001C0
000380
003F00
001E00
ENDCHAR
STARTCHAR 04A8
ENCODING 1192
SWIDTH 720 0
DWIDTH 18 0
BBX 16 19 1 -1
BITMAP
0FC0
1FC0
3800
7078
60FC
E1CE
C186
C186
C186
C186
C186
C186
E186
61CC
70CC
38F8
1FF0
07FF
000F
ENDCHAR
STARTCHAR 04A9
ENCODING 1193
SWIDTH 600 0
DWIDTH 15 0
BBX 13 14 1 0
BITMAP
1E00
3E00
71E0
63F0
E738
C618
C618
C618
C618
E738
6330
73E0
3FF8
1F78
ENDCHAR
STARTCHAR 04AA
ENCODING 1194
SWIDTH 560 0
DWIDTH 14 0
BBX 12 24 1 -6
BITMAP
07E0
1FF0
3810
7000
6000
E000
E000
C000
C000
C000
C000
C000
E000
6000
7000
3800
1FF0
07E0
0180
0180
00C0
00C0
03C0
0380
ENDCHAR
STARTCHAR 04AB
ENCODING 1195
SWIDTH 440 0
DWIDTH 11 0
BBX 9 20 1 -6
BITMAP
1F80
3F80
7000
6000
E000
C000
C000
C000
C000
E000
6000
7000
3F80
1F80
0600
0600
0300
0300
0F00
0E00
ENDCHAR
STARTCHAR 04AC
ENCODING 1196
SWIDTH 600 0
DWIDTH 15 0
BBX 13 23 1 -5
BITMAP
FFF8
FFF8
0600
0600
0600
0600
0600
0600
0600
0600
0600
0600
0600
0600
0600
0600
07C0
07C0
00C0
00C0
00C0
00C0
00C0
ENDCHAR
STARTCHAR 04AD
ENCODING 1197
SWIDTH 480 0
DWIDTH 12 0
BBX 10 19 1 -5
BITMAP
FFC0
FFC0
0C00
0C00
0C00
0C00
0C00
0C00
0C00
0C00
0C00
0C00
0F00
0F00
0300
0300
0300
0300
0300
ENDCHAR
STARTCHAR 04AE
ENCODING 1198
SWIDTH 560 0
DWIDTH 14 0
BBX 13 18 1 0
BITMAP
C038
E030
6070
6060
30E0
30C0
19C0
1980
0F80
0F00
0700
0600
0600
0600
0600
0600
0600
0600
ENDCHAR
STARTCHAR 04AF
ENCODING 1199
SWIDTH 480 0
DWIDTH 12 0
BBX 12 20 0 -6
BITMAP
E030
6070
6060
7060
30E0
30C0
38C0
19C0
1980
1D80
0F00
0F00
0700
0600
0600
0600
0600
0600
0600
0600
ENDCHAR
STARTCHAR 04B0
ENCODING 1200
SWIDTH 520 0
DWIDTH 13 0
BBX 13 18 0 0
BITMAP
E018
6030
7030
3070
3860
18E0
1CC0
0CC0
0F80
0780
0700
0300
3FE0
3FE0
0300
0300
0300
0300
ENDCHAR
STARTCHAR 04B1
ENCODING 1201
SWIDTH 520 0
DWIDTH 13 0
BBX 13 20 0 -6
BITMAP
E038
6030
6070
7060
3060
30E0
38C0
18C0
1980
1D80
0F80
0F00
0F00
0600
3FE0
3FE0
0600
0600
0600
0600
ENDCHAR
STARTCHAR 04B2
ENCODING 1202
SWIDTH 640 0
DWIDTH 16 0
BBX 14 23 1 -5
BITMAP
E038
6030
7060
30E0
18C0
1DC0
0D80
0F00
0700
0700
0D80
1D80
18C0
30E0
3060
6070
E03C
C03C
000C
000C
000C
000C
000C
ENDCHAR
STARTCHAR 04B3
ENCODING 1203
SWIDTH 560 0
DWIDTH 14 0
BBX 12 19 1 -5
BITMAP
E0E0
60C0
31C0
3980
1B00
1F00
0E00
0E00
1F00
1B80
3180
71C0
60F0
C070
0030
0030
0030
0030
0030
ENDCHAR
STARTCHAR 04B4
ENCODING 1204
SWIDTH 880 0
DWIDTH 22 0
BBX 20 23 1 -5
BITMAP
FFF180
FFF180
060180
060180
060180
060180
060180
060180
060180
060180
060180
060180
060180
060180
060180
060180
07FFF0
07FFF0
000030
000030
000030
000030
000030
ENDCHAR
STARTCHAR 04B5
ENCODING 1205
SWIDTH 720 0
DWIDTH 18 0
BBX 16 19 1 -5
BITMAP
FFCC
FFCC
0C0C
0C0C
0C0C
0C0C
0C0C
0C0C
0C0C
0C0C
0C0C
0C0C
0FFF
0FFF
0003
0003
0003
0003
0003
ENDCHAR
STARTCHAR 04B6
ENCODING 1206
SWIDTH 680 0
DWIDTH 17 0
BBX 14 23 2 -5
BITMAP
C030
C030
C030
C030
C030
C030
C030
C030
C030
E0F0
7FF0
1F30
0030
0030
0030
0030
003C
003C
000C
000C
000C
000C
000C
ENDCHAR
STARTCHAR 04B7
ENCODING 1207
SWIDTH 640 0
DWIDTH 16 0
BBX 13 19 2 -5
BITMAP
C060
C060
C060
C060
C060
C060
C060
E1E0
7F60
3C60
0060
0060
0078
0078
0018
0018
0018
0018
0018
ENDCHAR
STARTCHAR 04B8
ENCODING 1208
SWIDTH 680 0
DWIDTH 17 0
BBX 12 18 2 0
BITMAP
C030
C030
C030
C030
C030
C230
C230
C230
E230
E2F0
7FF0
1F30
0230
0230
0230
0030
0030
0030
ENDCHAR
STARTCHAR 04B9
ENCODING 1209
SWIDTH 600 0
DWIDTH 15 0
BBX 11 14 2 0
BITMAP
C060
C060
C060
C060
C460
C460
C460
E5E0
7F60
3C60
0460
0460
0060
0060
ENDCHAR
STARTCHAR 04BA
ENCODING 1210
SWIDTH 640 0
DWIDTH 16 0
BBX 12 18 2 0
BITMAP
C000
C000
C000
C000
C000
C000
C7C0
FFE0
F070
C030
C030
C030
C030
C030
C030
C030
C030
C030
ENDCHAR
STARTCHAR 04BB
ENCODING 1211
SWIDTH 600 0
DWIDTH 15 0
BBX 11 19 2 0
BITMAP
C000
C000
C000
C000
C000
CF80
DFC0
F0E0
E0E0
E060
C060
C060
C060
C060
C060
C060
C060
C060
C060
ENDCHAR
STARTCHAR 04BC
ENCODING 1212
SWIDTH 800 0
DWIDTH 20 0
BBX 18 18 1 0
BITMAP
00FC00
03FF00
070380
060180
0C01C0
CC00C0
CC00C0
FFFFC0
7FFFC0
0C0000
0C0000
0C0000
0C0000
0E0000
070000
038080
01FF80
00FF00
ENDCHAR
STARTCHAR 04BD
ENCODING 1213
SWIDTH 640 0
DWIDTH 16 0
BBX 14 14 1 0
BITMAP
03E0
07F0
0C18
DC1C
D80C
FFFC
7FFC
1800
1800
1C00
0C00
0E00
07F8
01F0
ENDCHAR
STARTCHAR 04BE
ENCODING 1214
SWIDTH 800 0
DWIDTH 20 0
BBX 18 23 1 -5
BITMAP
00FC00
01FF00
038300
060180
0E0180
CC01C0
CC00C0
CC00C0
FFFFC0
7FFFC0
0C0000
0C0000
0C0000
0E0000
060000
078080
03FF80
00FF00
003000
003000
003000
003000
003000
ENDCHAR
STARTCHAR 04BF
ENCODING 1215
SWIDTH 640 0
DWIDTH 16 0
BBX 14 19 1 -5
BITMAP
03E0
07F0
0E38
CC1C
D80C
D80C
FFFC
7FFC
1800
1800
1C00
0E00
07F8
03F8
00C0
00C0
00C0
00C0
00C0
ENDCHAR
STARTCHAR 04C0
ENCODING 1216
SWIDTH 320 0
DWIDTH 8 0
BBX 6 18 1 0
BITMAP
FC
78
30
30
30
30
30
30
30
30
30
30
30
30
30
30
78
FC
ENDCHAR
STARTCHAR 04C1
ENCODING 1217
SWIDTH 800 0
DWIDTH 20 0
BBX 20 24 0 0
BITMAP
030600
030C00
03FC00
01F800
000000
000000
E06070
7060E0
3060C0
186180
1C6380
0E6300
066600
036E00
03FC00
03EC00
076E00
0E6700
0C6300
1C6180
3861C0
3060C0
606060
E06070
ENDCHAR
STARTCHAR 04C2
ENCODING 1218
SWIDTH 720 0
DWIDTH 18 0
BBX 18 20 0 0
BITMAP
0E0C00
061C00
061800
07F800
01E000
000000
60C180
30C380
38C700
18C600
0CCC00
06DC00
07F800
07D800
0EDC00
0CCE00
18C600
30C300
70C180
E0C1C0
ENDCHAR
STARTCHAR 04C3
ENCODING 1219
SWIDTH 640 0
DWIDTH 16 0
BBX 13 24 2 -6
BITMAP
C070
C0E0
C1C0
C380
C300
C600
CC00
D800
FF80
FFC0
C0E0
C070
C030
C038
C018
C018
C018
C018
0038
0038
0030
0070
1FE0
0F80
ENDCHAR
STARTCHAR 04C4
ENCODING 1220
SWIDTH 520 0
DWIDTH 13 0
BBX 10 20 2 -6
BITMAP
C180
C300
C700
C600
CC00
D800
FE00
FF80
C380
C1C0
C0C0
C0C0
C0C0
C0C0
00C0
00C0
01C0
0180
1F80
1E00
ENDCHAR
STARTCHAR 04C5
ENCODING 1221
SWIDTH 720 0
DWIDTH 18 0
BBX 17 23 1 -5
BITMAP
07FC00
07FC00
060C00
060C00
0E0C00
0C0C00
0C0C00
0C0C00
0C0C00
0C0C00
0C0C00
1C0C00
180C00
180C00
180C00
380C00
F00F80
E00F00
000300
000300
000700
000600
000600
ENDCHAR
STARTCHAR 04C6
ENCODING 1222
SWIDTH 560 0
DWIDTH 14 0
BBX 14 19 0 -5
BITMAP
0FF0
0FF0
0C30
0C30
0C30
0C30
0C30
0C30
1C30
1C30
1830
3830
F03C
E03C
000C
000C
0018
0018
0018
ENDCHAR
STARTCHAR 04C7
ENCODING 1223
SWIDTH 680 0
DWIDTH 17 0
BBX 13 24 2 -6
BITMAP
C018
C018
C018
C018
C018
C018
C018
FFF8
FFF8
C018
C018
C018
C018
C018
C018
C018
C018
C018
0038
0038
0030
0070
1FE0
0F80
ENDCHAR
STARTCHAR 04C8
ENCODING 1224
SWIDTH 600 0
DWIDTH 15 0
BBX 11 20 2 -6
BITMAP
C060
C060
C060
C060
C060
C060
FFE0
FFE0
C060
C060
C060
C060
C060
C060
0060
0060
00E0
00C0
0FC0
0F00
ENDCHAR
STARTCHAR 04C9
ENCODING 1225
SWIDTH 720 0
DWIDTH 18 0
BBX 15 23 2 -5
BITMAP
C018
C018
C018
C018
C018
C018
C018
FFF8
FFF8
C018
C018
C018
C018
C018
C018
C018
C01E
C01E
0006
000E
000C
000C
001C
ENDCHAR
STARTCHAR 04CA
ENCODING 1226
SWIDTH 640 0
DWIDTH 16 0
BBX 13 19 2 -5
BITMAP
C060
C060
C060
C060
C060
C060
FFE0
FFE0
C060
C060
C060
C060
C078
C078
0018
0018
0030
0030
0030
ENDCHAR
STARTCHAR 04CB
ENCODING 1227
SWIDTH 680 0
DWIDTH 17 0
BBX 12 23 2 -5
BITMAP
C030
C030
C030
C030
C030
C030
C030
C030
C030
E0F0
7FF0
1F30
0030
0030
0030
0030
00F0
00F0
00C0
00C0
00C0
00C0
00C0
ENDCHAR
STARTCHAR 04CC
ENCODING 1228
SWIDTH 600 0
DWIDTH 15 0
BBX 11 19 2 -5
BITMAP
C060
C060
C060
C060
C060
C060
C060
E1E0
7F60
3C60
0060
0060
01E0
01E0
0180
0180
0180
0180
0180
ENDCHAR
STARTCHAR 04CD
ENCODING 1229
SWIDTH 880 0
DWIDTH 22 0
BBX 19 23 2 -5
BITMAP
F00780
F00780
F00780
D80D80
D80D80
D80D80
CC1980
CC1980
CC1980
C63180
C63180
C63180
C36180
C36180
C36180
C1C180
C1C1E0
C1C1E0
000060
0000E0
0000C0
0000C0
0001C0
ENDCHAR
STARTCHAR 04CE
ENCODING 1230
SWIDTH 720 0
DWIDTH 18 0
BBX 16 19 2 -5
BITMAP
E01C
F03C
F03C
D03C
D86C
D86C
C84C
CCCC
CCCC
C48C
C78C
C78C
C30F
C30F
0003
0006
0006
0006
000E
ENDCHAR
STARTCHAR 04CF
ENCODING 1231
SWIDTH 320 0
DWIDTH 8 0
BBX 6 18 1 0
BITMAP
FC
78
30
30
30
30
30
30
30
30
30
30
30
30
30
30
78
FC
ENDCHAR
STARTCHAR 04D0
ENCODING 1232
SWIDTH 600 0
DWIDTH 15 0
BBX 15 24 0 0
BITMAP
1830
1870
0FE0
07C0
0000
0000
0380
0380
0780
06C0
06C0
0CC0
0C60
0C60
1870
1830
1FF0
3FF8
3018
7018
601C
600C
E00C
C00E
ENDCHAR
STARTCHAR 04D1
ENCODING 1233
SWIDTH 520 0
DWIDTH 13 0
BBX 10 20 1 0
BITMAP
60C0
71C0
3F80
1F00
0000
0000
1F00
7F80
21C0
00C0
00C0
07C0
3FC0
70C0
E0C0
C0C0
C1C0
E1C0
7FC0
3CC0
ENDCHAR
STARTCHAR 04D2
ENCODING 1234
SWIDTH 600 0
DWIDTH 15 0
BBX 15 23 0 0
BITMAP
0C60
0C60
0C60
0000
0000
0380
0380
06C0
06C0
06C0
0C60
0C60
0C60
1830
1830
1FF8
3FF8
3018
701C
600C
600C
E00E
C006
ENDCHAR
STARTCHAR 04D3
ENCODING 1235
SWIDTH 520 0
DWIDTH 13 0
BBX 10 18 1 0
BITMAP
3180
3180
3180
0000
1F00
7F80
21C0
00C0
00C0
1FC0
7FC0
F0C0
E0C0
C0C0
C1C0
E1C0
7FC0
3C40
ENDCHAR
STARTCHAR 04D4
ENCODING 1236
SWIDTH 840 0
DWIDTH 21 0
BBX 19 18 1 0
BITMAP
01FFE0
01FFE0
033000
033000
063000
063000
0E3000
0C3FE0
0C3FE0
183000
1FF000
3FF000
303000
703000
603000
E03000
C03FE0
C03FE0
ENDCHAR
STARTCHAR 04D5
ENCODING 1237
SWIDTH 800 0
DWIDTH 20 0
BBX 18 14 1 0
BITMAP
1F1E00
7FBF80
01E180
00C1C0
00C0C0
1FFFC0
7FFFC0
E0C000
E0C000
C0C000
C1E000
E37000
7F3F80
3C1F80
ENDCHAR
STARTCHAR 04D6
ENCODING 1238
SWIDTH 520 0
DWIDTH 13 0
BBX 10 24 2 0
BITMAP
6180
6180
7F80
3F00
0000
0000
FFC0
FFC0
C000
C000
C000
C000
C000
FF80
FF80
C000
C000
C000
C000
C000
C000
C000
FFC0
FFC0
ENDCHAR
STARTCHAR 04D7
ENCODING 1239
SWIDTH 520 0
DWIDTH 13 0
BBX 11 20 1 0
BITMAP
60C0
60C0
3F80
1F00
0000
0000
1F00
3F80
70C0
60E0
C060
FFE0
FFE0
C000
C000
E000
6000
7000
3FC0
0FC0
ENDCHAR
STARTCHAR 04D8
ENCODING 1240
SWIDTH 680 0
DWIDTH 17 0
BBX 14 18 1 0
BITMAP
3F80
7FE0
4070
0018
0018
000C
000C
000C
FFFC
FFFC
C00C
C00C
E00C
601C
6018
3070
3FE0
0FC0
ENDCHAR
STARTCHAR 04D9
ENCODING 1241
SWIDTH 520 0
DWIDTH 13 0
BBX 11 14 1 0
BITMAP
3E00
7F80
01C0
00C0
0060
0060
FFE0
FFE0
C060
C0E0
E0C0
61C0
3F80
1F00
ENDCHAR
STARTCHAR 04DA
ENCODING 1242
SWIDTH 680 0
DWIDTH 17 0
BBX 14 24 1 0
BITMAP
0CC0
0CC0
0CC0
0000
0000
0000
3F80
7FE0
4070
0018
0018
000C
000C
000C
FFFC
FFFC
C00C
C00C
E00C
601C
6018
3070
3FE0
0FC0
ENDCHAR
STARTCHAR 04DB
ENCODING 1243
SWIDTH 520 0
DWIDTH 13 0
BBX 11 18 1 0
BITMAP
3300
3300
3300
0000
3E00
7F80
01C0
00C0
0060
0060
FFE0
FFE0
C060
C0E0
E0C0
61C0
3F80
1F00
ENDCHAR
STARTCHAR 04DC
ENCODING 1244
SWIDTH 840 0
DWIDTH 21 0
BBX 20 23 0 0
BITMAP
018C00
018C00
018C00
000000
000000
606030
706060
3860E0
1861C0
0C6380
0E6300
066700
036E00
01FC00
03EC00
036E00
066700
0C6380
1C6180
1861C0
3060E0
706070
E06030
ENDCHAR
STARTCHAR 04DD
ENCODING 1245
SWIDTH 760 0
DWIDTH 19 0
BBX 17 18 1 0
BITMAP
063000
063000
063000
000000
E18380
618300
318600
198C00
1D9C00
0DB800
07F000
07B000
0D9800
199C00
398E00
718700
618300
C18180
ENDCHAR
STARTCHAR 04DE
ENCODING 1246
SWIDTH 560 0
DWIDTH 14 0
BBX 12 24 0 0
BITMAP
18C0
18C0
18C0
0000
0000
0000
1F80
7FE0
6070
0030
0030
0070
00E0
3FC0
3FC0
00E0
0070
0030
0030
0030
0070
C0E0
FFE0
3F80
ENDCHAR
STARTCHAR 04DF
ENCODING 1247
SWIDTH 440 0
DWIDTH 11 0
BBX 10 18 0 0
BITMAP
3180
3180
3180
0000
3F00
7F80
41C0
00C0
00C0
01C0
1F00
1F80
01C0
00C0
00C0
81C0
FF80
7F00
ENDCHAR
STARTCHAR 04E0
ENCODING 1248
SWIDTH 560 0
DWIDTH 14 0
BBX 12 18 0 0
BITMAP
7FE0
7FE0
00C0
0180
0300
0600
0C00
1F80
1FE0
00E0
0070
0030
0030
0030
0070
C0E0
FFC0
3F80
ENDCHAR
STARTCHAR 04E1
ENCODING 1249
SWIDTH 480 0
DWIDTH 12 0
BBX 11 20 0 -6
BITMAP
7FE0
7FE0
00C0
0180
0380
0700
0E00
0C00
1F00
1FC0
01C0
00E0
0060
0060
0060
0060
00E0
C1C0
FF80
7F00
ENDCHAR
STARTCHAR 04E2
ENCODING 1250
SWIDTH 720 0
DWIDTH 18 0
BBX 14 22 2 0
BITMAP
0FE0
0FE0
0000
0000
C01C
C03C
C03C
C06C
C06C
C0CC
C1CC
C18C
C30C
C30C
C60C
CE0C
CC0C
D80C
D80C
F00C
F00C
E00C
ENDCHAR
STARTCHAR 04E3
ENCODING 1251
SWIDTH 600 0
DWIDTH 15 0
BBX 11 17 2 0
BITMAP
3F80
3F80
0000
C0E0
C0E0
C1E0
C360
C360
C660
C660
CC60
CC60
D860
D860
F060
E060
E060
ENDCHAR
STARTCHAR 04E4
ENCODING 1252
SWIDTH 720 0
DWIDTH 18 0
BBX 14 23 2 0
BITMAP
0CC0
0CC0
0CC0
0000
0000
C01C
C03C
C03C
C06C
C0EC
C0CC
C1CC
C18C
C30C
C30C
C60C
CE0C
CC0C
D80C
D80C
F00C
F00C
E00C
ENDCHAR
STARTCHAR 04E5
ENCODING 1253
SWIDTH 600 0
DWIDTH 15 0
BBX 11 18 2 0
BITMAP
1980
1980
1980
0000
C0E0
C0E0
C1E0
C1E0
C360
C360
C660
CE60
CC60
D860
D860
F060
F060
E060
ENDCHAR
STARTCHAR 04E6
ENCODING 1254
SWIDTH 720 0
DWIDTH 18 0
BBX 15 24 1 0
BITMAP
0660
0660
0660
0000
0000
0000
07E0
1FF0
3838
700C
600C
E006
C006
C006
C006
C006
C006
C006
E00E
600C
701C
3838
1FF0
07E0
ENDCHAR
STARTCHAR 04E7
ENCODING 1255
SWIDTH 560 0
DWIDTH 14 0
BBX 12 18 1 0
BITMAP
1980
1980
1980
0000
1F00
3FC0
70E0
6060
E070
C030
C030
C030
C030
E070
6060
70E0
3FC0
1F80
ENDCHAR
STARTCHAR 04E8
ENCODING 1256
SWIDTH 720 0
DWIDTH 18 0
BBX 15 18 1 0
BITMAP
07E0
1FF0
3818
700C
600C
E006
C006
FFFE
FFFE
C006
C006
C006
E00E
600C
701C
3838
1FF0
07E0
ENDCHAR
STARTCHAR 04E9
ENCODING 1257
SWIDTH 560 0
DWIDTH 14 0
BBX 12 14 1 0
BITMAP
1F00
3FC0
70E0
6060
C030
C030
FFF0
FFF0
C030
C030
6060
70E0
3FC0
1F80
ENDCHAR
STARTCHAR 04EA
ENCODING 1258
SWIDTH 720 0
DWIDTH 18 0
BBX 15 23 1 0
BITMAP
0660
0660
0660
0000
0000
07E0
1FF0
3818
700C
600C
E006
C006
FFFE
FFFE
C006
C006
C006
E00E
600C
701C
3838
1FF0
07E0
ENDCHAR
STARTCHAR 04EB
ENCODING 1259
SWIDTH 560 0
DWIDTH 14 0
BBX 12 18 1 0
BITMAP
1980
1980
1980
0000
1F00
3FC0
70E0
6060
C030
C030
FFF0
FFF0
C030
C030
6060
70E0
3FC0
1F80
ENDCHAR
STARTCHAR 04EC
ENCODING 1260
SWIDTH 600 0
DWIDTH 15 0
BBX 13 24 0 0
BITMAP
3180
3180
3180
0000
0000
0000
3F00
7FC0
40E0
0070
0030
0018
0018
1FF8
1FF8
0018
0018
0018
0038
0030
0070
80E0
FFC0
7F00
ENDCHAR
STARTCHAR 04ED
ENCODING 1261
SWIDTH 480 0
DWIDTH 12 0
BBX 10 18 0 0
BITMAP
6300
6300
6300
0000
7E00
7F00
4180
01C0
00C0
00C0
3FC0
3FC0
00C0
00C0
01C0
8380
FF00
7E00
ENDCHAR
STARTCHAR 04EE
ENCODING 1262
SWIDTH 560 0
DWIDTH 14 0
BBX 14 22 0 0
BITMAP
0FE0
0FE0
0000
0000
E00C
600C
7018
3018
3838
1830
1830
0C60
0C60
06E0
06C0
03C0
0380
0380
0300
0700
7E00
7C00
ENDCHAR
STARTCHAR 04EF
ENCODING 1263
SWIDTH 520 0
DWIDTH 13 0
BBX 11 24 1 -6
BITMAP
3F80
3F80
0000
0000
C060
C060
60E0
60C0
60C0
31C0
3180
3180
1B80
1B00
1B00
0F00
0E00
0600
0E00
0C00
0C00
1C00
F800
F000
ENDCHAR
STARTCHAR 04F0
ENCODING 1264
SWIDTH 640 0
DWIDTH 16 0
BBX 14 24 1 0
BITMAP
0C60
0C60
0C60
0000
0000
0000
C00C
E00C
601C
7018
3038
3830
1830
1C60
0C60
0EE0
06C0
07C0
0380
0380
0300
0700
FE00
F800
ENDCHAR
STARTCHAR 04F1
ENCODING 1265
SWIDTH 520 0
DWIDTH 13 0
BBX 13 24 0 -6
BITMAP
18C0
18C0
18C0
0000
E038
6030
7030
3070
3060
3860
18C0
18C0
1CC0
0D80
0D80
0780
0700
0700
0700
0600
0E00
0C00
FC00
F000
ENDCHAR
STARTCHAR 04F2
ENCODING 1266
SWIDTH 600 0
DWIDTH 15 0
BBX 14 24 0 0
BITMAP
0198
0330
0630
0460
0000
0000
E00C
600C
701C
3018
3818
1830
1C30
0C70
0E60
0660
06C0
03C0
0380
0180
0300
0700
7E00
7C00
ENDCHAR
STARTCHAR 04F3
ENCODING 1267
SWIDTH 480 0
DWIDTH 12 0
BBX 12 26 0 -6
BITMAP
0660
0CC0
18C0
1180
0000
0000
C070
E060
6060
60E0
70C0
30C0
31C0
3980
1980
1B80
0F00
0F00
0F00
0600
0600
0C00
0C00
1C00
F800
F000
ENDCHAR
STARTCHAR 04F4
ENCODING 1268
SWIDTH 680 0
DWIDTH 17 0
BBX 12 23 2 0
BITMAP
1980
1980
1980
0000
0000
C030
C030
C030
C030
C030
C030
C030
C030
C030
E0F0
7FF0
1F30
0030
0030
0030
0030
0030
0030
ENDCHAR
STARTCHAR 04F5
ENCODING 1269
SWIDTH 600 0
DWIDTH 15 0
BBX 11 18 2 0
BITMAP
3180
3180
3180
0000
C060
C060
C060
C060
C060
C060
C060
E1E0
7F60
3C60
0060
0060
0060
0060
ENDCHAR
STARTCHAR 04F6
ENCODING 1270
SWIDTH 480 0
DWIDTH 12 0
BBX 10 23 2 -5
BITMAP
FFC0
FFC0
C000
C000
C000
C000
C000
C000
C000
C000
C000
C000
C000
C000
C000
C000
F000
F000
3000
3000
3000
3000
3000
ENDCHAR
STARTCHAR 04F7
ENCODING 1271
SWIDTH 440 0
DWIDTH 11 0
BBX 8 19 2 -5
BITMAP
FF
FF
C0
C0
C0
C0
C0
C0
C0
C0
C0
C0
F0
F0
30
30
30
30
30
ENDCHAR
STARTCHAR 04F8
ENCODING 1272
SWIDTH 800 0
DWIDTH 20 0
BBX 16 23 2 0
BITMAP
0660
0660
0660
0000
0000
C003
C003
C003
C003
C003
C003
C003
FF03
FF83
C1C3
C0E3
C063
C063
C063
C0E3
C1C3
FFC3
FF03
ENDCHAR
STARTCHAR 04F9
ENCODING 1273
SWIDTH 720 0
DWIDTH 18 0
BBX 14 18 2 0
BITMAP
0CC0
0CC0
0CC0
0000
C00C
C00C
C00C
C00C
C00C
C00C
FF0C
FFCC
C1CC
C0CC
C0CC
C1CC
FF8C
FF0C
ENDCHAR
STARTCHAR 04FA
ENCODING 1274
SWIDTH 520 0
DWIDTH 13 0
BBX 12 23 1 -5
BITMAP
3FF0
3FF0
3000
3000
3000
3000
3000
3000
FF80
FF80
3000
3000
3000
3000
3000
3000
3C00
3C00
0C00
0C00
0C00
3C00
3800
ENDCHAR
STARTCHAR 04FB
ENCODING 1275
SWIDTH 440 0
DWIDTH 11 0
BBX 10 19 1 -5
BITMAP
3FC0
3FC0
3000
3000
3000
3000
FF00
FF00
3000
3000
3000
3000
3C00
3C00
0C00
0C00
0C00
3C00
3800
ENDCHAR
STARTCHAR 04FC
ENCODING 1276
SWIDTH 640 0
DWIDTH 16 0
BBX 14 23 1 -5
BITMAP
E038
6030
7060
30E0
38C0
19C0
0D80
0F00
0700
0F00
0F80
1D80
18C0
30E0
7060
6070
E03C
C03C
000C
000C
000C
007C
0078
ENDCHAR
STARTCHAR 04FD
ENCODING 1277
SWIDTH 560 0
DWIDTH 14 0
BBX 12 19 1 -5
BITMAP
C0E0
60C0
71C0
3380
3B00
1F00
0E00
0E00
1F00
3B00
3180
61C0
E0F0
C0F0
0030
0030
0030
01F0
01E0
ENDCHAR
STARTCHAR 04FE
ENCODING 1278
SWIDTH 520 0
DWIDTH 13 0
BBX 13 18 0 0
BITMAP
E038
6030
3060
38E0
18C0
0D80
0D80
7FF0
7FF0
0F80
0D80
1DC0
18C0
30E0
3060
6030
E038
C018
ENDCHAR
STARTCHAR 04FF
ENCODING 1279
SWIDTH 480 0
DWIDTH 12 0
BBX 12 14 0 0
BITMAP
6060
70E0
30C0
3980
1980
0F00
7FE0
7FE0
0F00
1980
39C0
30C0
70E0
E070
ENDCHAR
STARTCHAR 0500
ENCODING 1280
SWIDTH 560 0
DWIDTH 14 0
BBX 11 18 1 0
BITMAP
0060
0060
0060
0060
0060
0060
0060
0FE0
3FE0
7060
E060
C060
C060
C060
E060
7060
7FE0
1FE0
ENDCHAR
STARTCHAR 0501
ENCODING 1281
SWIDTH 560 0
DWIDTH 14 0
BBX 11 19 1 0
BITMAP
0060
0060
0060
0060
0060
1E60
3FE0
70E0
E0E0
E060
C060
C060
C060
C060
E060
E0E0
70E0
3FE0
1E60
ENDCHAR
STARTCHAR 0502
ENCODING 1282
SWIDTH 840 0
DWIDTH 21 0
BBX 18 18 1 0
BITMAP
00C000
00C000
00C000
00C000
00C000
00C000
00C000
0FC0C0
3FC0C0
70C0C0
E0C0C0
C0C0C0
C0C0C0
C0C0C0
E0C0C0
61E1C0
7FFF80
1E1F00
ENDCHAR
STARTCHAR 0503
ENCODING 1283
SWIDTH 840 0
DWIDTH 21 0
BBX 18 20 1 0
BITMAP
006000
006000
006000
006000
006000
006000
1E6000
3F6000
71E000
E0E000
E0E000
C060C0
C060C0
C060C0
C060C0
C060C0
E0E0C0
70F1C0
3FBF80
1F1F00
ENDCHAR
STARTCHAR 0504
ENCODING 1284
SWIDTH 840 0
DWIDTH 21 0
BBX 18 18 1 0
BITMAP
3F0000
FF8000
C1C000
00C000
00C000
00C000
018000
7F00C0
7F00C0
0380C0
01C0C0
00C0C0
00C0C0
00C0C0
00C0C0
00E1C0
007F80
001F00
ENDCHAR
STARTCHAR 0505
ENCODING 1285
SWIDTH 760 0
DWIDTH 19 0
BBX 15 14 2 0
BITMAP
FC00
FE00
8700
0300
0300
0706
7C06
7E06
0706
0306
0306
038E
01FC
00F8
ENDCHAR
STARTCHAR 0506
ENCODING 1286
SWIDTH 640 0
DWIDTH 16 0
BBX 13 23 2 -5
BITMAP
3F00
FF80
C1C0
00C0
00C0
00C0
01C0
0380
7E00
7F00
0380
00C0
00C0
00C0
00C0
00C0
00F8
00F8
0018
0018
0018
0018
0018
ENDCHAR
STARTCHAR 0507
ENCODING 1287
SWIDTH 520 0
DWIDTH 13 0
BBX 11 19 1 -5
BITMAP
7E00
FF00
8380
0180
0180
0380
3E00
3F00
0380
0180
0180
0180
01E0
01E0
0060
0060
0060
0060
0060
ENDCHAR
STARTCHAR 0508
ENCODING 1288
SWIDTH 960 0
DWIDTH 24 0
BBX 21 18 1 0
BITMAP
07FC00
07FC00
060C00
060C00
060C00
0E0C00
0E0C00
0C0C18
0C0C18
0C0C18
0C0C18
0C0C18
1C0C18
180C18
180C18
380E38
F007F0
E003E0
ENDCHAR
STARTCHAR 0509
ENCODING 1289
SWIDTH 840 0
DWIDTH 21 0
BBX 19 14 0 0
BITMAP
0FF000
0FF000
0C3000
0C3000
0C3000
0C3060
0C3060
0C3060
1C3060
1C3060
183060
3838E0
F01FC0
E00F80
ENDCHAR
STARTCHAR 050A
ENCODING 1290
SWIDTH 920 0
DWIDTH 23 0
BBX 19 18 2 0
BITMAP
C03000
C03000
C03000
C03000
C03000
C03000
C03000
FFF060
FFF060
C03060
C03060
C03060
C03060
C03060
C03060
C038E0
C01FC0
C00F80
ENDCHAR
STARTCHAR 050B
ENCODING 1291
SWIDTH 880 0
DWIDTH 22 0
BBX 18 14 2 0
BITMAP
C06000
C06000
C06000
C06000
C06000
C060C0
FFE0C0
FFE0C0
C060C0
C060C0
C060C0
C071C0
C03F80
C01F00
ENDCHAR
ENDFONT
